<mxfile host="app.diagrams.net" modified="2023-07-26T20:17:20.334Z" agent="Mozilla/5.0 (Windows NT 10.0; Win64; x64) AppleWebKit/537.36 (KHTML, like Gecko) Chrome/115.0.0.0 Safari/537.36" etag="pdp7uh-XJNd_RLRcXrS5" version="21.6.5" type="device" pages="7">
  <diagram id="wAgFyvXAg0B-_Anp9Sxv" name="Exercicio 1.0">
    <mxGraphModel dx="1050" dy="574" grid="1" gridSize="10" guides="1" tooltips="1" connect="1" arrows="1" fold="1" page="1" pageScale="1" pageWidth="827" pageHeight="1169" math="0" shadow="0">
      <root>
        <mxCell id="0" />
        <mxCell id="1" parent="0" />
        <mxCell id="OZJgbkCGfBMzSd8MIB0s-1" value="Filme" style="rounded=0;whiteSpace=wrap;html=1;" vertex="1" parent="1">
          <mxGeometry x="40" y="190" width="120" height="60" as="geometry" />
        </mxCell>
        <mxCell id="OZJgbkCGfBMzSd8MIB0s-2" value="Você deverá criar a modelagem para o catálogo de filmes, observando a seguinte situação:&#xa;&#xa;&#xa;- um filme possui apenas um único gênero.&#xa;- um gênero pode definir mais de um filme." style="text;whiteSpace=wrap;" vertex="1" parent="1">
          <mxGeometry x="10" y="10" width="520" height="100" as="geometry" />
        </mxCell>
        <mxCell id="OZJgbkCGfBMzSd8MIB0s-3" style="edgeStyle=orthogonalEdgeStyle;rounded=0;orthogonalLoop=1;jettySize=auto;html=1;entryX=0.5;entryY=0;entryDx=0;entryDy=0;endArrow=none;endFill=0;" edge="1" parent="1" source="OZJgbkCGfBMzSd8MIB0s-5" target="OZJgbkCGfBMzSd8MIB0s-7">
          <mxGeometry relative="1" as="geometry" />
        </mxCell>
        <mxCell id="OZJgbkCGfBMzSd8MIB0s-4" style="edgeStyle=orthogonalEdgeStyle;rounded=0;orthogonalLoop=1;jettySize=auto;html=1;entryX=0.5;entryY=1;entryDx=0;entryDy=0;endArrow=none;endFill=0;" edge="1" parent="1" source="OZJgbkCGfBMzSd8MIB0s-5" target="OZJgbkCGfBMzSd8MIB0s-1">
          <mxGeometry relative="1" as="geometry" />
        </mxCell>
        <mxCell id="OZJgbkCGfBMzSd8MIB0s-5" value="Possui" style="rhombus;whiteSpace=wrap;html=1;" vertex="1" parent="1">
          <mxGeometry x="60" y="300" width="80" height="80" as="geometry" />
        </mxCell>
        <mxCell id="OZJgbkCGfBMzSd8MIB0s-6" style="edgeStyle=orthogonalEdgeStyle;rounded=0;orthogonalLoop=1;jettySize=auto;html=1;entryX=0;entryY=0.5;entryDx=0;entryDy=0;endArrow=none;endFill=0;" edge="1" parent="1" source="OZJgbkCGfBMzSd8MIB0s-7" target="OZJgbkCGfBMzSd8MIB0s-14">
          <mxGeometry relative="1" as="geometry" />
        </mxCell>
        <mxCell id="OZJgbkCGfBMzSd8MIB0s-7" value="Gênero" style="rounded=0;whiteSpace=wrap;html=1;" vertex="1" parent="1">
          <mxGeometry x="40" y="430" width="120" height="60" as="geometry" />
        </mxCell>
        <mxCell id="OZJgbkCGfBMzSd8MIB0s-8" value="1" style="text;whiteSpace=wrap;" vertex="1" parent="1">
          <mxGeometry x="103" y="404" width="10" height="20" as="geometry" />
        </mxCell>
        <mxCell id="OZJgbkCGfBMzSd8MIB0s-9" value="N" style="text;whiteSpace=wrap;" vertex="1" parent="1">
          <mxGeometry x="101" y="250" width="10" height="20" as="geometry" />
        </mxCell>
        <mxCell id="OZJgbkCGfBMzSd8MIB0s-10" style="edgeStyle=orthogonalEdgeStyle;rounded=0;orthogonalLoop=1;jettySize=auto;html=1;endArrow=none;endFill=0;" edge="1" parent="1" source="OZJgbkCGfBMzSd8MIB0s-11" target="OZJgbkCGfBMzSd8MIB0s-1">
          <mxGeometry relative="1" as="geometry" />
        </mxCell>
        <mxCell id="OZJgbkCGfBMzSd8MIB0s-11" value="Lançamento" style="ellipse;whiteSpace=wrap;html=1;" vertex="1" parent="1">
          <mxGeometry x="240" y="170" width="120" height="40" as="geometry" />
        </mxCell>
        <mxCell id="OZJgbkCGfBMzSd8MIB0s-12" style="edgeStyle=orthogonalEdgeStyle;rounded=0;orthogonalLoop=1;jettySize=auto;html=1;endArrow=none;endFill=0;" edge="1" parent="1" source="OZJgbkCGfBMzSd8MIB0s-13">
          <mxGeometry relative="1" as="geometry">
            <mxPoint x="200" y="210" as="targetPoint" />
          </mxGeometry>
        </mxCell>
        <mxCell id="OZJgbkCGfBMzSd8MIB0s-13" value="Nome" style="ellipse;whiteSpace=wrap;html=1;" vertex="1" parent="1">
          <mxGeometry x="240" y="230" width="120" height="40" as="geometry" />
        </mxCell>
        <mxCell id="OZJgbkCGfBMzSd8MIB0s-14" value="Nome" style="ellipse;whiteSpace=wrap;html=1;" vertex="1" parent="1">
          <mxGeometry x="230" y="440" width="120" height="40" as="geometry" />
        </mxCell>
        <mxCell id="Nd3HpOzr4SghYrIFNOkH-1" value="Conceitual" style="text;html=1;align=center;verticalAlign=middle;resizable=0;points=[];autosize=1;strokeColor=#b85450;fillColor=#f8cecc;" vertex="1" parent="1">
          <mxGeometry x="40" y="130" width="80" height="30" as="geometry" />
        </mxCell>
        <mxCell id="Nd3HpOzr4SghYrIFNOkH-2" value="Logico&amp;nbsp;" style="text;html=1;align=center;verticalAlign=middle;resizable=0;points=[];autosize=1;strokeColor=#b85450;fillColor=#f8cecc;" vertex="1" parent="1">
          <mxGeometry x="40" y="570" width="60" height="30" as="geometry" />
        </mxCell>
        <mxCell id="Nd3HpOzr4SghYrIFNOkH-3" value="Genero&amp;nbsp;" style="shape=table;startSize=30;container=1;collapsible=1;childLayout=tableLayout;fixedRows=1;rowLines=0;fontStyle=1;align=center;resizeLast=1;html=1;" vertex="1" parent="1">
          <mxGeometry x="40" y="640" width="180" height="90" as="geometry" />
        </mxCell>
        <mxCell id="Nd3HpOzr4SghYrIFNOkH-4" value="" style="shape=tableRow;horizontal=0;startSize=0;swimlaneHead=0;swimlaneBody=0;fillColor=none;collapsible=0;dropTarget=0;points=[[0,0.5],[1,0.5]];portConstraint=eastwest;top=0;left=0;right=0;bottom=1;" vertex="1" parent="Nd3HpOzr4SghYrIFNOkH-3">
          <mxGeometry y="30" width="180" height="30" as="geometry" />
        </mxCell>
        <mxCell id="Nd3HpOzr4SghYrIFNOkH-5" value="PK" style="shape=partialRectangle;connectable=0;fillColor=none;top=0;left=0;bottom=0;right=0;fontStyle=1;overflow=hidden;whiteSpace=wrap;html=1;" vertex="1" parent="Nd3HpOzr4SghYrIFNOkH-4">
          <mxGeometry width="30" height="30" as="geometry">
            <mxRectangle width="30" height="30" as="alternateBounds" />
          </mxGeometry>
        </mxCell>
        <mxCell id="Nd3HpOzr4SghYrIFNOkH-6" value="IdGenero" style="shape=partialRectangle;connectable=0;fillColor=none;top=0;left=0;bottom=0;right=0;align=left;spacingLeft=6;fontStyle=5;overflow=hidden;whiteSpace=wrap;html=1;" vertex="1" parent="Nd3HpOzr4SghYrIFNOkH-4">
          <mxGeometry x="30" width="150" height="30" as="geometry">
            <mxRectangle width="150" height="30" as="alternateBounds" />
          </mxGeometry>
        </mxCell>
        <mxCell id="Nd3HpOzr4SghYrIFNOkH-7" value="" style="shape=tableRow;horizontal=0;startSize=0;swimlaneHead=0;swimlaneBody=0;fillColor=none;collapsible=0;dropTarget=0;points=[[0,0.5],[1,0.5]];portConstraint=eastwest;top=0;left=0;right=0;bottom=0;" vertex="1" parent="Nd3HpOzr4SghYrIFNOkH-3">
          <mxGeometry y="60" width="180" height="30" as="geometry" />
        </mxCell>
        <mxCell id="Nd3HpOzr4SghYrIFNOkH-8" value="" style="shape=partialRectangle;connectable=0;fillColor=none;top=0;left=0;bottom=0;right=0;editable=1;overflow=hidden;whiteSpace=wrap;html=1;" vertex="1" parent="Nd3HpOzr4SghYrIFNOkH-7">
          <mxGeometry width="30" height="30" as="geometry">
            <mxRectangle width="30" height="30" as="alternateBounds" />
          </mxGeometry>
        </mxCell>
        <mxCell id="Nd3HpOzr4SghYrIFNOkH-9" value="NomeGenero" style="shape=partialRectangle;connectable=0;fillColor=none;top=0;left=0;bottom=0;right=0;align=left;spacingLeft=6;overflow=hidden;whiteSpace=wrap;html=1;" vertex="1" parent="Nd3HpOzr4SghYrIFNOkH-7">
          <mxGeometry x="30" width="150" height="30" as="geometry">
            <mxRectangle width="150" height="30" as="alternateBounds" />
          </mxGeometry>
        </mxCell>
        <mxCell id="Nd3HpOzr4SghYrIFNOkH-16" value="Filme" style="shape=table;startSize=30;container=1;collapsible=1;childLayout=tableLayout;fixedRows=1;rowLines=0;fontStyle=1;align=center;resizeLast=1;html=1;whiteSpace=wrap;" vertex="1" parent="1">
          <mxGeometry x="290" y="640" width="180" height="150" as="geometry" />
        </mxCell>
        <mxCell id="Nd3HpOzr4SghYrIFNOkH-17" value="" style="shape=tableRow;horizontal=0;startSize=0;swimlaneHead=0;swimlaneBody=0;fillColor=none;collapsible=0;dropTarget=0;points=[[0,0.5],[1,0.5]];portConstraint=eastwest;top=0;left=0;right=0;bottom=0;html=1;" vertex="1" parent="Nd3HpOzr4SghYrIFNOkH-16">
          <mxGeometry y="30" width="180" height="30" as="geometry" />
        </mxCell>
        <mxCell id="Nd3HpOzr4SghYrIFNOkH-18" value="PK" style="shape=partialRectangle;connectable=0;fillColor=none;top=0;left=0;bottom=0;right=0;fontStyle=1;overflow=hidden;html=1;whiteSpace=wrap;" vertex="1" parent="Nd3HpOzr4SghYrIFNOkH-17">
          <mxGeometry width="60" height="30" as="geometry">
            <mxRectangle width="60" height="30" as="alternateBounds" />
          </mxGeometry>
        </mxCell>
        <mxCell id="Nd3HpOzr4SghYrIFNOkH-19" value="IdFilme" style="shape=partialRectangle;connectable=0;fillColor=none;top=0;left=0;bottom=0;right=0;align=left;spacingLeft=6;fontStyle=5;overflow=hidden;html=1;whiteSpace=wrap;" vertex="1" parent="Nd3HpOzr4SghYrIFNOkH-17">
          <mxGeometry x="60" width="120" height="30" as="geometry">
            <mxRectangle width="120" height="30" as="alternateBounds" />
          </mxGeometry>
        </mxCell>
        <mxCell id="Nd3HpOzr4SghYrIFNOkH-20" value="" style="shape=tableRow;horizontal=0;startSize=0;swimlaneHead=0;swimlaneBody=0;fillColor=none;collapsible=0;dropTarget=0;points=[[0,0.5],[1,0.5]];portConstraint=eastwest;top=0;left=0;right=0;bottom=1;html=1;" vertex="1" parent="Nd3HpOzr4SghYrIFNOkH-16">
          <mxGeometry y="60" width="180" height="30" as="geometry" />
        </mxCell>
        <mxCell id="Nd3HpOzr4SghYrIFNOkH-21" value="FK" style="shape=partialRectangle;connectable=0;fillColor=none;top=0;left=0;bottom=0;right=0;fontStyle=1;overflow=hidden;html=1;whiteSpace=wrap;" vertex="1" parent="Nd3HpOzr4SghYrIFNOkH-20">
          <mxGeometry width="60" height="30" as="geometry">
            <mxRectangle width="60" height="30" as="alternateBounds" />
          </mxGeometry>
        </mxCell>
        <mxCell id="Nd3HpOzr4SghYrIFNOkH-22" value="IdGenero" style="shape=partialRectangle;connectable=0;fillColor=none;top=0;left=0;bottom=0;right=0;align=left;spacingLeft=6;fontStyle=5;overflow=hidden;html=1;whiteSpace=wrap;" vertex="1" parent="Nd3HpOzr4SghYrIFNOkH-20">
          <mxGeometry x="60" width="120" height="30" as="geometry">
            <mxRectangle width="120" height="30" as="alternateBounds" />
          </mxGeometry>
        </mxCell>
        <mxCell id="Nd3HpOzr4SghYrIFNOkH-23" value="" style="shape=tableRow;horizontal=0;startSize=0;swimlaneHead=0;swimlaneBody=0;fillColor=none;collapsible=0;dropTarget=0;points=[[0,0.5],[1,0.5]];portConstraint=eastwest;top=0;left=0;right=0;bottom=0;html=1;" vertex="1" parent="Nd3HpOzr4SghYrIFNOkH-16">
          <mxGeometry y="90" width="180" height="30" as="geometry" />
        </mxCell>
        <mxCell id="Nd3HpOzr4SghYrIFNOkH-24" value="" style="shape=partialRectangle;connectable=0;fillColor=none;top=0;left=0;bottom=0;right=0;editable=1;overflow=hidden;html=1;whiteSpace=wrap;" vertex="1" parent="Nd3HpOzr4SghYrIFNOkH-23">
          <mxGeometry width="60" height="30" as="geometry">
            <mxRectangle width="60" height="30" as="alternateBounds" />
          </mxGeometry>
        </mxCell>
        <mxCell id="Nd3HpOzr4SghYrIFNOkH-25" value="Lancamento" style="shape=partialRectangle;connectable=0;fillColor=none;top=0;left=0;bottom=0;right=0;align=left;spacingLeft=6;overflow=hidden;html=1;whiteSpace=wrap;" vertex="1" parent="Nd3HpOzr4SghYrIFNOkH-23">
          <mxGeometry x="60" width="120" height="30" as="geometry">
            <mxRectangle width="120" height="30" as="alternateBounds" />
          </mxGeometry>
        </mxCell>
        <mxCell id="Nd3HpOzr4SghYrIFNOkH-26" value="" style="shape=tableRow;horizontal=0;startSize=0;swimlaneHead=0;swimlaneBody=0;fillColor=none;collapsible=0;dropTarget=0;points=[[0,0.5],[1,0.5]];portConstraint=eastwest;top=0;left=0;right=0;bottom=0;html=1;" vertex="1" parent="Nd3HpOzr4SghYrIFNOkH-16">
          <mxGeometry y="120" width="180" height="30" as="geometry" />
        </mxCell>
        <mxCell id="Nd3HpOzr4SghYrIFNOkH-27" value="" style="shape=partialRectangle;connectable=0;fillColor=none;top=0;left=0;bottom=0;right=0;editable=1;overflow=hidden;html=1;whiteSpace=wrap;" vertex="1" parent="Nd3HpOzr4SghYrIFNOkH-26">
          <mxGeometry width="60" height="30" as="geometry">
            <mxRectangle width="60" height="30" as="alternateBounds" />
          </mxGeometry>
        </mxCell>
        <mxCell id="Nd3HpOzr4SghYrIFNOkH-28" value="NomeFilme" style="shape=partialRectangle;connectable=0;fillColor=none;top=0;left=0;bottom=0;right=0;align=left;spacingLeft=6;overflow=hidden;html=1;whiteSpace=wrap;" vertex="1" parent="Nd3HpOzr4SghYrIFNOkH-26">
          <mxGeometry x="60" width="120" height="30" as="geometry">
            <mxRectangle width="120" height="30" as="alternateBounds" />
          </mxGeometry>
        </mxCell>
        <mxCell id="Nd3HpOzr4SghYrIFNOkH-29" value="" style="edgeStyle=entityRelationEdgeStyle;fontSize=12;html=1;endArrow=ERoneToMany;rounded=0;exitX=1;exitY=0.5;exitDx=0;exitDy=0;entryX=0;entryY=0.5;entryDx=0;entryDy=0;" edge="1" parent="1" source="Nd3HpOzr4SghYrIFNOkH-4" target="Nd3HpOzr4SghYrIFNOkH-20">
          <mxGeometry width="100" height="100" relative="1" as="geometry">
            <mxPoint x="200" y="790" as="sourcePoint" />
            <mxPoint x="300" y="690" as="targetPoint" />
          </mxGeometry>
        </mxCell>
        <mxCell id="Nd3HpOzr4SghYrIFNOkH-34" value="Físico" style="text;html=1;align=center;verticalAlign=middle;resizable=0;points=[];autosize=1;strokeColor=#b85450;fillColor=#f8cecc;" vertex="1" parent="1">
          <mxGeometry x="41" y="890" width="60" height="30" as="geometry" />
        </mxCell>
        <mxCell id="Nd3HpOzr4SghYrIFNOkH-35" value="" style="shape=image;verticalLabelPosition=bottom;labelBackgroundColor=default;verticalAlign=top;aspect=fixed;imageAspect=0;image=data:image/png,iVBORw0KGgoAAAANSUhEUgAAAlEAAABvCAYAAADMk5UqAAAAAXNSR0IArs4c6QAAAARnQU1BAACxjwv8YQUAAAAJcEhZcwAAEnQAABJ0Ad5mH3gAABNeSURBVHhe7d2/eqrK18Dx5XstmiLbK9Ar0F+T6rTpsNQmXcp0abCM3W5TpYleQbwCd4rgvfjODIMBBIXBf+D38zycEwkSmGGWa4bB3doosse/f//kz58/9hXqjLqsH+qsGsqvGsqvGsqvOfLq8v/s/wEAAFACSRQAAIADkigAAAAHJFEAAAAOWqvVau/E8m63a38CcAmqjdqfUBbxC8CxZMXig0/ntVotObAJgBOh/VVD+QE4hrxYwu08AAAAByRRAAAADkiiAAAAHJBEAQAAOCCJAgAAcEASBQBooLVM+y1p9afqp9BilHwNVEUSdUnrqfRbqlEnlpEs7K8BAPnW034qfoZLf0qahPMgiboQ0yPqTKQ735jvnoiWwF/JkJ4SABTT8yWIxVC9fI3b6hdtGX+p119j9RNwGiRRF6B7T8NZT/xgI28Du9Jqj79o9AAA1ABJ1Nmt5fN9KeI9i+ksFbEYJYerUyNVZlRrtEgObWeNZhXcj/l/+vcZtx7VpgBwtQ7NgdobO+Px0iGe4jaQRJ3b+lN0DtW779gV+5nGPRSZb4eqA/FlIp10g50NpfP9bLeZi7ecyGNsXkCZ/QxlHm4TjYjpYJG+9Tj31KbMPQBQcxmxs6OToo+HxDqneIrGI4m6kO7d7zBUoheU6NEs5HWyFG/+Jr93/doyfvZElu/yGW+tnkp8tvcGB/JgNvksvx/xZJ64x7iW6cvM7D+xevAmKo+S5eSVifAALidKerZLX0r17fScqlTszFrnFk/RdCRRF7L6+W1pZh6U7dHoxGRr/SP634zWIz6/AUItQ5XUlFFmP95DLDBogXzru48PybXawESblcROBQDOa2di+VfxqRIujhWX0QgkUefWvpOu+t/yOwhfF+ClnuBzDRRO+7EBI19XYoNqAHATjhWXUW8kUWc3kCe/p7oxL4eHnG3CFR+1clJlP/a9s4/dm3aLD9Xz6t1LsdldANAAx4rLaASSqAtoj/+K31vKpJN+wm0tP4lhnzDhWk4ekwmXnuhdagJjlf1ESd8weazqvXr02nvm6xgA3JJjxWU0AUnURdgvgbNPuP3eV+/IRHwJYt8TpedLBb6YhGu73ct9YpsiquzHzNlKH+twlfk9VwDQdMeKy6i/1kbfyN1DXxwHNgFwIrS/aig/AMeQF0sYiQIAAHBAEgUAAOCAJAoAAMABSRQAAICD1mq12jvrstvV34gB4FJUG7U/oSziF4BjyYrFPJ13Q6jL+qHOqqH8qqH8qqH8miOvLrmdBwAA4IAkCgAAwAFJFAAAgAOSKAAAAAckUQAAAA5qlUQtRi3+lWwAV6VcXFrLtJ/c/hbiGrG7bnav0yqaXP/XkUQtRtJq9WXqWsLrqfRbqpISy0gW9tcowNRBXrktZKR+13euoBOj/nEKjnFpPe2nrsVwudr2UwWxu2ZscrRT5rFlROmXUfvbeSbD7UykO9+Y73CIlsBfyZCeT2Hrn+hLxGYyrFEjov5xlXq+BLHrUS9f47b6RVvGX+r111j9dNtou5dgr7+ovOeeWtcTP4itexv8bhe/TqsmzA1V6yRK9/iGs/ACMPUe0x5/EahK88T3eyqPeqlFQ6H+gXqi7aIprjqJMj2V3CHGtXy+L9Xn/rOYDl4R21tWdkn1dszfU38nMRyf1SMquJ/t8cd/nzF8fU0DP3fjv+L3ljJ5LNATLHAue8s0Xo6ly5n6x2Vs61UvDpVn3p91XVl7r8NKbeZ89pcRbbcOTBnY8zc/D2fqJ/XZ0AnPPbw9bW8Ppgoi/t5cDSnPq02idCUMZ57M7RBjcP+iXttfautP0e2wd9+xK/YzjWso2/1tNoH4MpFOuqJnQ+l8P9tt5uItJ/IYG5Yps5+hzMNtol6VbsDp4eu5pza9pvkSbRk/e6qtTOR13wVd5lwyyrSjG83HQ2JdqXKm/nEBB+PSsZyizZwJsbt5Bm/h+cZv/YW3px01qTzVwe9VYJPq5p76O72NqhxrvlHVten9rjBUGW+k52/M2sDf9NQ2nmoRkcDvmePdLtG2dn/xbY3U3zX7T22U+Jtl9iOe2jou2Pi93f1r2dsf3766DMvu9xiSx5Suj+Lnkiy/0OF1Bcr5Rup/X53hsErll6rXqP73xiVl5zo0S+r6iG1/6LV2eF2xa7Osg+XnUkY3FLsPlt+l7bk+kuWnZG6bXTbp9yZfX/6z0EVeXV7nSNT6R/Q05+7d4Ux39fObtZp76epc9aIq45fdn85y40OH4fBkCWX24z1I8lZ/IN96BPshNQFAGTzog11J7FQubvDkqz7HTF4yewUnPpcS5Uz942xs/ReJS+oDIzWx/Kv4rSsXx7rGqypRRrTdW9Ws8qzvxPL2nXTV/5bfQfi6AJX4xoJatJQPbk77sY04X1eKxOazaY/lr+ouLCePu5PMz3Que8uZ+gd2HOsaPyna7m1rWHleZxJlG1m8p7JrIE/qQ77Qk2SF9ldAlf3Y984+dicaLT5Ub6h3L8VmCJxPe/wsnp5I+Pph11inPhfqH9foWNfRKVzLsRU6Dtpuc7TlThdOGQ0rzysdiRqIHtVbTl63X7oWTla0L6x29CRZJz2rfy3brz0ywka7M6qiJ7eVmnRZZT9R4Bgmj1W9V5+X93yNj/QO5E2Prc9mkiz6U59LsXKm/nFexeLSZRzrGq+K2N1YnXtRJSjpAcTOfTIhPtwmmlWeV3s7b/AWqEY2k6G9d/1yH0igCz7BfiGY+qBP3uvuyER8CWLfNaLvuQe+bB/PNMvLfWKbIqrsx9z3Tx/rcJX5XSlXY/C2naMQn+dw6nMpVs7UP86rWFy6jGNd41URuxuqPRb94HZUBlECFE+I9foibaJJ5dna6JvCe+iTO7AJaoK6rB/qrBrKrxrKrxrKrzny6rK+E8sBAAAuiCQKAADAAUkUAACAA5IoAAAAB63VarV31lu3W/ZLIAAck2qj9ieURfwCcCxZsZin824IdVk/1Fk1lF81lF81lF9z5NUlt/MAAAAckEQBAAA4IIkCAABwQBIFAADggCQKAADAAUkUYOl/ffz3X3Rfy7Qffw0AcNfMmHrjSdRCRi37L0jbJfqXqVHBeir9VLn2p6QiQJxJ2uPthOBTEHG7HJu8FCyn9bSfKNtoIYZnu+EkSl9YQ5H5xnz3g17mnshsSIOswnwwdCbSjZXrZhPIf++dmjXCtoy/1LF/jdVPwDGFH2rDlS/Bto2o5W1gf499FqOsuN0XPuNzLF5lsvTE0+X0UfDDrZe6NtXyNa4aCZsZU284iQorNB63Bk++9NT/Vz+0RieLkQxnIp4KcMnPg7CsqzdCoP7W00fzoTYnQXcyeMuK20t5/yRuZ1l86KD8IG8PJosSxgiOizlROBLVu35RjVX1YJ6KdKgzbvmlRwDNqJZamRheju6nq4RtZ11c/Pc52yRup2QMPybnSIW4BYNq1vL5vlTN5EkYdzqu7h0p6a6FhDmUutoGD+LJTF4qDtlFcXkbC+Mx8kDcTcfUffvarouWK421JFFxwbfqz9AY3QTyHRbe4d61bmjpW35z1byHGffdZ0PpfD/b7ebiLSfS0Q3q4yGx7jH2PpN0mRH/aP+B+KLel2qgw5m33Sa4fzGjaPvo97zcB3afaglUD1gdH3kUirPt5Ps11YngdpQb1Xl7nMiyaOft1iw+VNrkic6hVBYlejBq+f6ZSGycqLg3lHkYB+2IapG4myljX7WKteoA9yqwSUPMN+r62qgu4iawa5rmtHUZll/PP1R6wcbvqXL2VFNLUXmUOkZP7Sn2OlUfh9eFx7Gz+7mn9t3bhIeXfazpfWf9raT8czmW22l/p3F95ZcVZ+x1FLv2r8V1Xn9ReUXL9ZVb5LLllxGfEnEwW+D3YmUbLb/vMXFxp8yLxF373nSMLVR/p4+1h+TVJSNRlp6sOJOe+H+Zp1DF8juwP+UJe+JmeDlloLtJspJKU9LWP2oPunMT7+WrJT7MZLcpP+L4+5RLuHRkokcVgJJ6//0vFmfaMn7W1/5Mis77vW12grL6XNNL4K9kqNojT4+lrD/lPR1rzS29AvPHdiaWf0liSqv3kLwdXSTu5knvy6hPrCWJUsJbOyqBClIXCkroyH04K3//0K1tbPm6coy7qarDEgsAOYGgFN2oVUOWeHAJRPWOgOo69+ahFpTXHv817XA5eWXSdMz6891MT0kmNnqw4HRldZy4W69Ye/NJVJhA6congaqmLf/7z0Qyed3XOtt3Kk1SDTujy22eIundq3SsArv/vU9YFtkmLerVPTNSiSrCzsbOvBQzH7Mn95Uu/htXNXY0SvgAg/pgiyUzdpmfYNTTJabmqVmsvekkSk+Ey34kHy6iHmHWd23pZDUcbh/IU7hRcpvo6xEqN5xw/8vJY3Kirp7Mvp3gaCdYxnpjUTKdKyP5W4y4nYey7K27RGdjIaPw4qcjd5D+os1RchTFfA9S+hbpjbNlkjVtIryll92RdVck7hZUs1h7w0nUQl5trezcx+VJGUfhXIVANaZ0meonLaLviWqPv7ZP4223Ga7ED46TzOr9B77IpBPb/8u9BLHv5Rm86eHhmZlLER2fPu58A3mzT4hE+9RPlJhOHVDG4C3VRoYy0yMG9OQK0B/W4RyoqB3qeTe6I8z30P0yo/rbp/LSwk6kylKSyWhFReJuMfWKta2NHt/bQ5/AgU1QE9Rl/VBn1VB+1VB+1VB+zZFXl0wsBwAAcEASBQAA4IAkCgAAwAFJFAAAgIPWarXaO+ut29UPGwK4FNVG7U8oi/gF4FiyYjFP590Q6rJ+qLNqKL9qKL9qKL/myKtLbucBAAA4IIkCAABwQBIFAADggCQKAADAAUkUAACAA5IoAADQSItRS1r9qazt62O78SRqIaNW7F+cVsvomP+sNWLWMu0ny3pnofDRdOup9LOufbvQBIpoaNzOvDZG6mxrou7H7+imk6jFaCgy35jvftDL3BOZDfsyPVXKetPaMv76LeuNLmzpiR/E1r0Nwk2BpmqP5Su63mNL4PfULz15oAkcoDtjWXG73omUGS3pTKQbO6/wuljJ8BSjKIuRSnCO91l39uO/IjedRA3eNhL/3B48+epjfSnvn2RRAM5lIa+TpcqhHoQc6pCwM7Ybt0VWP/WM2+tpX4azsEOZ7ke2x1+y+Rqrs75edT/+qpgTlaF71+QqrwnTU4oNC6d6M6bno7qe5v+x3+etNzKGm9O9173vB05gPX2RmR6VfSKFuj1r+XzXCfSzjIt+7BSMjTq5ydrG/H44Uz8tZdIJf9+PD0kd2H9SuePfF1+366IlFZwPnVcksZ/UPrZKneMBmwMKbNIQwcbvyUZ6vvqpma6qLueeOp7eRvVedgR+T/3O28zt66y6mXvqtTof8X630vLWh39PNonVdl0vdhC5778QfSxwd/3lZ6/tK7ne0mpx/WW17StxsPwCf9NT28Rj0D5usXG+8dJ/Iyf+Ftl/Qsnj3xe3E/uw+41vVuS8wm1+jz88H7Uudvylz9HKq8uDLSTvjc1gC08XslniBds8V1WXuUlU2DB2AmJq+3RjiWSvz/+gSm+ft99LaXb7O72rL78rTgC067/+wnhx6APwUg6WX0aysP3gj5btuZWIjamNzLp4GWXG32L7Tyh1/PY4CsXX3Zh9+Lx2kyota5tS52jpc8ly47fzkpOdzSS4VmpoE+e1/hH972TriaKJ4VYz/JySN4dkZ30g32bKye7WgwfVpNRfTEynYG4KzmIt0xd1Xfd84U6eG/1wkLkV+rfe827i87nMPCL7maQSgF9lYqOLCvsvdPyRzPiafnq7I3qaYCn2+PdOxzlBGTInKqY9/isq+5Xl5LXxj2VeO9VT2DbE3+Wr+LyBONtw8nWFaXA4u8Wr+aDwnps98fZU9NyXcEKzY1y4Bu07FX3UZ853EL4u4KixMUOp/Tsc/y6dQKmkSXwJtn8vMJ/Fp3LMMiSJytK7l479EWdmG+VRn7Sx+5x97KbGiw89EkB94/zMtcfXGjgJEyj9YVjjBMoYyJPOFmYvh79u4BSxMc5p/yWOP8/6U8K56RU7E0WO/wRleMNJlP7CttQXgdmeYe+//9EzvJiwUS4nj8lGqZ+mcH6CImrow+TTeGqfJhAzEoBzW08lvJP3lHFrA/uEj9SHowlN+Gq58A5I+KRc8mGytfwkhtCPGBs79+brfJIDSG77L378OTI6uYuRw+08dfx6dkb8TlKUbP86wefL5oACm9TWzgQ4taiG2VhXVZcHJvLtm5yoZU0y1PLWG+ZvxvaZ8ff3vv8C9HHC3bWWn7nOrugBhjzXV352Innmsn9i8CXo4ypsJz6pJRX3NJfYaNZlbWf3Ed/80P5zFTj+3PhqJ6hv36e2SW9b7LySD4vpSebmfFLH4XKOerssLf0f9ctcetLVgU1QE9Rl/VBn1VB+1VB+1VB+zZFXl8yJAgAAcEASBQAA4IAkCgAAwAFJFAAAgIPWarXaO+ut29UPHwK4FNVG7U8oi/gF4FiyYvHBp/P+/fsnf/78sa9QZ9Rl/VBn1VB+1VB+1VB+zZFXl9zOAwAAcEASBQAA4IAkCgAAwAFJFAAAgAOSKAAAAAckUQAAAA5IogAAAByQRAEAAJQm8v9U/rZik6dmkwAAAABJRU5ErkJggg==;" vertex="1" parent="1">
          <mxGeometry x="40" y="960" width="480.81" height="90" as="geometry" />
        </mxCell>
      </root>
    </mxGraphModel>
  </diagram>
  <diagram name="Exercicio 1.1" id="ITK8CiDFNCDJeBptkkHk">
    <mxGraphModel dx="750" dy="369" grid="1" gridSize="10" guides="1" tooltips="1" connect="1" arrows="1" fold="1" page="1" pageScale="1" pageWidth="827" pageHeight="1169" math="0" shadow="0">
      <root>
        <mxCell id="0" />
        <mxCell id="1" parent="0" />
        <mxCell id="mxID1eUkBbuD5ef9H6zq-1" value="Construa a modelagem que represente pessoas e seus dados, observando que:&#xa;&#xa;&#xa;- uma pessoa pode ter vários telefones e vários emails, porém, pode possuir somente uma CNH." style="text;whiteSpace=wrap;" parent="1" vertex="1">
          <mxGeometry x="20" y="30" width="560" height="80" as="geometry" />
        </mxCell>
        <mxCell id="mxID1eUkBbuD5ef9H6zq-2" value="Pessoa" style="rounded=0;whiteSpace=wrap;html=1;" parent="1" vertex="1">
          <mxGeometry x="40" y="280" width="120" height="60" as="geometry" />
        </mxCell>
        <mxCell id="mxID1eUkBbuD5ef9H6zq-3" value="Email" style="rounded=0;whiteSpace=wrap;html=1;" parent="1" vertex="1">
          <mxGeometry x="330" y="280" width="120" height="60" as="geometry" />
        </mxCell>
        <mxCell id="mxID1eUkBbuD5ef9H6zq-10" style="edgeStyle=orthogonalEdgeStyle;rounded=0;orthogonalLoop=1;jettySize=auto;html=1;endArrow=none;endFill=0;" parent="1" source="mxID1eUkBbuD5ef9H6zq-4" target="mxID1eUkBbuD5ef9H6zq-6" edge="1">
          <mxGeometry relative="1" as="geometry" />
        </mxCell>
        <mxCell id="mxID1eUkBbuD5ef9H6zq-4" value="Telefone" style="rounded=0;whiteSpace=wrap;html=1;" parent="1" vertex="1">
          <mxGeometry x="40" y="490" width="120" height="60" as="geometry" />
        </mxCell>
        <mxCell id="mxID1eUkBbuD5ef9H6zq-7" style="edgeStyle=orthogonalEdgeStyle;rounded=0;orthogonalLoop=1;jettySize=auto;html=1;entryX=1;entryY=0.5;entryDx=0;entryDy=0;endArrow=none;endFill=0;" parent="1" source="mxID1eUkBbuD5ef9H6zq-5" target="mxID1eUkBbuD5ef9H6zq-2" edge="1">
          <mxGeometry relative="1" as="geometry" />
        </mxCell>
        <mxCell id="mxID1eUkBbuD5ef9H6zq-8" style="edgeStyle=orthogonalEdgeStyle;rounded=0;orthogonalLoop=1;jettySize=auto;html=1;entryX=0;entryY=0.5;entryDx=0;entryDy=0;endArrow=none;endFill=0;" parent="1" source="mxID1eUkBbuD5ef9H6zq-5" target="mxID1eUkBbuD5ef9H6zq-3" edge="1">
          <mxGeometry relative="1" as="geometry" />
        </mxCell>
        <mxCell id="mxID1eUkBbuD5ef9H6zq-5" value="Possui" style="rhombus;whiteSpace=wrap;html=1;" parent="1" vertex="1">
          <mxGeometry x="200" y="270" width="80" height="80" as="geometry" />
        </mxCell>
        <mxCell id="mxID1eUkBbuD5ef9H6zq-9" style="edgeStyle=orthogonalEdgeStyle;rounded=0;orthogonalLoop=1;jettySize=auto;html=1;entryX=0.5;entryY=1;entryDx=0;entryDy=0;endArrow=none;endFill=0;" parent="1" source="mxID1eUkBbuD5ef9H6zq-6" target="mxID1eUkBbuD5ef9H6zq-2" edge="1">
          <mxGeometry relative="1" as="geometry" />
        </mxCell>
        <mxCell id="mxID1eUkBbuD5ef9H6zq-6" value="Possui" style="rhombus;whiteSpace=wrap;html=1;" parent="1" vertex="1">
          <mxGeometry x="60" y="370" width="80" height="80" as="geometry" />
        </mxCell>
        <mxCell id="mxID1eUkBbuD5ef9H6zq-11" value="1" style="text;html=1;align=center;verticalAlign=middle;resizable=0;points=[];autosize=1;strokeColor=none;fillColor=none;" parent="1" vertex="1">
          <mxGeometry x="152" y="270" width="30" height="30" as="geometry" />
        </mxCell>
        <mxCell id="mxID1eUkBbuD5ef9H6zq-12" value="N" style="text;html=1;align=center;verticalAlign=middle;resizable=0;points=[];autosize=1;strokeColor=none;fillColor=none;" parent="1" vertex="1">
          <mxGeometry x="300" y="270" width="30" height="30" as="geometry" />
        </mxCell>
        <mxCell id="mxID1eUkBbuD5ef9H6zq-13" value="N" style="text;html=1;align=center;verticalAlign=middle;resizable=0;points=[];autosize=1;strokeColor=none;fillColor=none;" parent="1" vertex="1">
          <mxGeometry x="160" y="480" width="30" height="30" as="geometry" />
        </mxCell>
        <mxCell id="mxID1eUkBbuD5ef9H6zq-14" value="1" style="text;html=1;align=center;verticalAlign=middle;resizable=0;points=[];autosize=1;strokeColor=none;fillColor=none;" parent="1" vertex="1">
          <mxGeometry x="100" y="341" width="30" height="30" as="geometry" />
        </mxCell>
        <mxCell id="mxID1eUkBbuD5ef9H6zq-17" style="edgeStyle=orthogonalEdgeStyle;rounded=0;orthogonalLoop=1;jettySize=auto;html=1;endArrow=none;endFill=0;" parent="1" source="mxID1eUkBbuD5ef9H6zq-15" target="mxID1eUkBbuD5ef9H6zq-2" edge="1">
          <mxGeometry relative="1" as="geometry" />
        </mxCell>
        <mxCell id="mxID1eUkBbuD5ef9H6zq-15" value="CNH" style="ellipse;whiteSpace=wrap;html=1;" parent="1" vertex="1">
          <mxGeometry x="55" y="210" width="90" height="30" as="geometry" />
        </mxCell>
        <mxCell id="F4o2l8jfVwrb29Brw03E-1" value="Conceitual" style="text;html=1;align=center;verticalAlign=middle;resizable=0;points=[];autosize=1;strokeColor=#b85450;fillColor=#f8cecc;" vertex="1" parent="1">
          <mxGeometry x="40" y="140" width="80" height="30" as="geometry" />
        </mxCell>
        <mxCell id="jO6tHIsn_LjpDx2HVM75-1" value="Logico" style="text;html=1;align=center;verticalAlign=middle;resizable=0;points=[];autosize=1;strokeColor=#b85450;fillColor=#f8cecc;" vertex="1" parent="1">
          <mxGeometry x="40" y="610" width="60" height="30" as="geometry" />
        </mxCell>
        <mxCell id="hsDdO6fQhVXFPxeYiTVl-19" value="Pessoa" style="shape=table;startSize=30;container=1;collapsible=1;childLayout=tableLayout;fixedRows=1;rowLines=0;fontStyle=1;align=center;resizeLast=1;html=1;" vertex="1" parent="1">
          <mxGeometry x="40" y="680" width="180" height="90" as="geometry" />
        </mxCell>
        <mxCell id="hsDdO6fQhVXFPxeYiTVl-20" value="" style="shape=tableRow;horizontal=0;startSize=0;swimlaneHead=0;swimlaneBody=0;fillColor=none;collapsible=0;dropTarget=0;points=[[0,0.5],[1,0.5]];portConstraint=eastwest;top=0;left=0;right=0;bottom=1;" vertex="1" parent="hsDdO6fQhVXFPxeYiTVl-19">
          <mxGeometry y="30" width="180" height="30" as="geometry" />
        </mxCell>
        <mxCell id="hsDdO6fQhVXFPxeYiTVl-21" value="PK" style="shape=partialRectangle;connectable=0;fillColor=none;top=0;left=0;bottom=0;right=0;fontStyle=1;overflow=hidden;whiteSpace=wrap;html=1;" vertex="1" parent="hsDdO6fQhVXFPxeYiTVl-20">
          <mxGeometry width="30" height="30" as="geometry">
            <mxRectangle width="30" height="30" as="alternateBounds" />
          </mxGeometry>
        </mxCell>
        <mxCell id="hsDdO6fQhVXFPxeYiTVl-22" value="IdPessoa" style="shape=partialRectangle;connectable=0;fillColor=none;top=0;left=0;bottom=0;right=0;align=left;spacingLeft=6;fontStyle=5;overflow=hidden;whiteSpace=wrap;html=1;" vertex="1" parent="hsDdO6fQhVXFPxeYiTVl-20">
          <mxGeometry x="30" width="150" height="30" as="geometry">
            <mxRectangle width="150" height="30" as="alternateBounds" />
          </mxGeometry>
        </mxCell>
        <mxCell id="hsDdO6fQhVXFPxeYiTVl-23" value="" style="shape=tableRow;horizontal=0;startSize=0;swimlaneHead=0;swimlaneBody=0;fillColor=none;collapsible=0;dropTarget=0;points=[[0,0.5],[1,0.5]];portConstraint=eastwest;top=0;left=0;right=0;bottom=0;" vertex="1" parent="hsDdO6fQhVXFPxeYiTVl-19">
          <mxGeometry y="60" width="180" height="30" as="geometry" />
        </mxCell>
        <mxCell id="hsDdO6fQhVXFPxeYiTVl-24" value="" style="shape=partialRectangle;connectable=0;fillColor=none;top=0;left=0;bottom=0;right=0;editable=1;overflow=hidden;whiteSpace=wrap;html=1;" vertex="1" parent="hsDdO6fQhVXFPxeYiTVl-23">
          <mxGeometry width="30" height="30" as="geometry">
            <mxRectangle width="30" height="30" as="alternateBounds" />
          </mxGeometry>
        </mxCell>
        <mxCell id="hsDdO6fQhVXFPxeYiTVl-25" value="CNH" style="shape=partialRectangle;connectable=0;fillColor=none;top=0;left=0;bottom=0;right=0;align=left;spacingLeft=6;overflow=hidden;whiteSpace=wrap;html=1;" vertex="1" parent="hsDdO6fQhVXFPxeYiTVl-23">
          <mxGeometry x="30" width="150" height="30" as="geometry">
            <mxRectangle width="150" height="30" as="alternateBounds" />
          </mxGeometry>
        </mxCell>
        <mxCell id="hsDdO6fQhVXFPxeYiTVl-32" value="Email" style="shape=table;startSize=30;container=1;collapsible=1;childLayout=tableLayout;fixedRows=1;rowLines=0;fontStyle=1;align=center;resizeLast=1;html=1;whiteSpace=wrap;" vertex="1" parent="1">
          <mxGeometry x="360" y="680" width="180" height="120" as="geometry" />
        </mxCell>
        <mxCell id="hsDdO6fQhVXFPxeYiTVl-33" value="" style="shape=tableRow;horizontal=0;startSize=0;swimlaneHead=0;swimlaneBody=0;fillColor=none;collapsible=0;dropTarget=0;points=[[0,0.5],[1,0.5]];portConstraint=eastwest;top=0;left=0;right=0;bottom=0;html=1;" vertex="1" parent="hsDdO6fQhVXFPxeYiTVl-32">
          <mxGeometry y="30" width="180" height="30" as="geometry" />
        </mxCell>
        <mxCell id="hsDdO6fQhVXFPxeYiTVl-34" value="PK" style="shape=partialRectangle;connectable=0;fillColor=none;top=0;left=0;bottom=0;right=0;fontStyle=1;overflow=hidden;html=1;whiteSpace=wrap;" vertex="1" parent="hsDdO6fQhVXFPxeYiTVl-33">
          <mxGeometry width="60" height="30" as="geometry">
            <mxRectangle width="60" height="30" as="alternateBounds" />
          </mxGeometry>
        </mxCell>
        <mxCell id="hsDdO6fQhVXFPxeYiTVl-35" value="IdEmail" style="shape=partialRectangle;connectable=0;fillColor=none;top=0;left=0;bottom=0;right=0;align=left;spacingLeft=6;fontStyle=5;overflow=hidden;html=1;whiteSpace=wrap;" vertex="1" parent="hsDdO6fQhVXFPxeYiTVl-33">
          <mxGeometry x="60" width="120" height="30" as="geometry">
            <mxRectangle width="120" height="30" as="alternateBounds" />
          </mxGeometry>
        </mxCell>
        <mxCell id="hsDdO6fQhVXFPxeYiTVl-36" value="" style="shape=tableRow;horizontal=0;startSize=0;swimlaneHead=0;swimlaneBody=0;fillColor=none;collapsible=0;dropTarget=0;points=[[0,0.5],[1,0.5]];portConstraint=eastwest;top=0;left=0;right=0;bottom=1;html=1;" vertex="1" parent="hsDdO6fQhVXFPxeYiTVl-32">
          <mxGeometry y="60" width="180" height="30" as="geometry" />
        </mxCell>
        <mxCell id="hsDdO6fQhVXFPxeYiTVl-37" value="FK" style="shape=partialRectangle;connectable=0;fillColor=none;top=0;left=0;bottom=0;right=0;fontStyle=1;overflow=hidden;html=1;whiteSpace=wrap;" vertex="1" parent="hsDdO6fQhVXFPxeYiTVl-36">
          <mxGeometry width="60" height="30" as="geometry">
            <mxRectangle width="60" height="30" as="alternateBounds" />
          </mxGeometry>
        </mxCell>
        <mxCell id="hsDdO6fQhVXFPxeYiTVl-38" value="IdPessoa" style="shape=partialRectangle;connectable=0;fillColor=none;top=0;left=0;bottom=0;right=0;align=left;spacingLeft=6;fontStyle=5;overflow=hidden;html=1;whiteSpace=wrap;" vertex="1" parent="hsDdO6fQhVXFPxeYiTVl-36">
          <mxGeometry x="60" width="120" height="30" as="geometry">
            <mxRectangle width="120" height="30" as="alternateBounds" />
          </mxGeometry>
        </mxCell>
        <mxCell id="hsDdO6fQhVXFPxeYiTVl-39" value="" style="shape=tableRow;horizontal=0;startSize=0;swimlaneHead=0;swimlaneBody=0;fillColor=none;collapsible=0;dropTarget=0;points=[[0,0.5],[1,0.5]];portConstraint=eastwest;top=0;left=0;right=0;bottom=0;html=1;" vertex="1" parent="hsDdO6fQhVXFPxeYiTVl-32">
          <mxGeometry y="90" width="180" height="30" as="geometry" />
        </mxCell>
        <mxCell id="hsDdO6fQhVXFPxeYiTVl-40" value="" style="shape=partialRectangle;connectable=0;fillColor=none;top=0;left=0;bottom=0;right=0;editable=1;overflow=hidden;html=1;whiteSpace=wrap;" vertex="1" parent="hsDdO6fQhVXFPxeYiTVl-39">
          <mxGeometry width="60" height="30" as="geometry">
            <mxRectangle width="60" height="30" as="alternateBounds" />
          </mxGeometry>
        </mxCell>
        <mxCell id="hsDdO6fQhVXFPxeYiTVl-41" value="ExemploEmail" style="shape=partialRectangle;connectable=0;fillColor=none;top=0;left=0;bottom=0;right=0;align=left;spacingLeft=6;overflow=hidden;html=1;whiteSpace=wrap;" vertex="1" parent="hsDdO6fQhVXFPxeYiTVl-39">
          <mxGeometry x="60" width="120" height="30" as="geometry">
            <mxRectangle width="120" height="30" as="alternateBounds" />
          </mxGeometry>
        </mxCell>
        <mxCell id="hsDdO6fQhVXFPxeYiTVl-58" value="Telefone" style="shape=table;startSize=30;container=1;collapsible=1;childLayout=tableLayout;fixedRows=1;rowLines=0;fontStyle=1;align=center;resizeLast=1;html=1;whiteSpace=wrap;" vertex="1" parent="1">
          <mxGeometry x="360" y="810" width="180" height="120" as="geometry" />
        </mxCell>
        <mxCell id="hsDdO6fQhVXFPxeYiTVl-59" value="" style="shape=tableRow;horizontal=0;startSize=0;swimlaneHead=0;swimlaneBody=0;fillColor=none;collapsible=0;dropTarget=0;points=[[0,0.5],[1,0.5]];portConstraint=eastwest;top=0;left=0;right=0;bottom=0;html=1;" vertex="1" parent="hsDdO6fQhVXFPxeYiTVl-58">
          <mxGeometry y="30" width="180" height="30" as="geometry" />
        </mxCell>
        <mxCell id="hsDdO6fQhVXFPxeYiTVl-60" value="PK" style="shape=partialRectangle;connectable=0;fillColor=none;top=0;left=0;bottom=0;right=0;fontStyle=1;overflow=hidden;html=1;whiteSpace=wrap;" vertex="1" parent="hsDdO6fQhVXFPxeYiTVl-59">
          <mxGeometry width="60" height="30" as="geometry">
            <mxRectangle width="60" height="30" as="alternateBounds" />
          </mxGeometry>
        </mxCell>
        <mxCell id="hsDdO6fQhVXFPxeYiTVl-61" value="IdTelefone" style="shape=partialRectangle;connectable=0;fillColor=none;top=0;left=0;bottom=0;right=0;align=left;spacingLeft=6;fontStyle=5;overflow=hidden;html=1;whiteSpace=wrap;" vertex="1" parent="hsDdO6fQhVXFPxeYiTVl-59">
          <mxGeometry x="60" width="120" height="30" as="geometry">
            <mxRectangle width="120" height="30" as="alternateBounds" />
          </mxGeometry>
        </mxCell>
        <mxCell id="hsDdO6fQhVXFPxeYiTVl-62" value="" style="shape=tableRow;horizontal=0;startSize=0;swimlaneHead=0;swimlaneBody=0;fillColor=none;collapsible=0;dropTarget=0;points=[[0,0.5],[1,0.5]];portConstraint=eastwest;top=0;left=0;right=0;bottom=1;html=1;" vertex="1" parent="hsDdO6fQhVXFPxeYiTVl-58">
          <mxGeometry y="60" width="180" height="30" as="geometry" />
        </mxCell>
        <mxCell id="hsDdO6fQhVXFPxeYiTVl-63" value="FK" style="shape=partialRectangle;connectable=0;fillColor=none;top=0;left=0;bottom=0;right=0;fontStyle=1;overflow=hidden;html=1;whiteSpace=wrap;" vertex="1" parent="hsDdO6fQhVXFPxeYiTVl-62">
          <mxGeometry width="60" height="30" as="geometry">
            <mxRectangle width="60" height="30" as="alternateBounds" />
          </mxGeometry>
        </mxCell>
        <mxCell id="hsDdO6fQhVXFPxeYiTVl-64" value="IdPessa" style="shape=partialRectangle;connectable=0;fillColor=none;top=0;left=0;bottom=0;right=0;align=left;spacingLeft=6;fontStyle=5;overflow=hidden;html=1;whiteSpace=wrap;" vertex="1" parent="hsDdO6fQhVXFPxeYiTVl-62">
          <mxGeometry x="60" width="120" height="30" as="geometry">
            <mxRectangle width="120" height="30" as="alternateBounds" />
          </mxGeometry>
        </mxCell>
        <mxCell id="hsDdO6fQhVXFPxeYiTVl-65" value="" style="shape=tableRow;horizontal=0;startSize=0;swimlaneHead=0;swimlaneBody=0;fillColor=none;collapsible=0;dropTarget=0;points=[[0,0.5],[1,0.5]];portConstraint=eastwest;top=0;left=0;right=0;bottom=0;html=1;" vertex="1" parent="hsDdO6fQhVXFPxeYiTVl-58">
          <mxGeometry y="90" width="180" height="30" as="geometry" />
        </mxCell>
        <mxCell id="hsDdO6fQhVXFPxeYiTVl-66" value="" style="shape=partialRectangle;connectable=0;fillColor=none;top=0;left=0;bottom=0;right=0;editable=1;overflow=hidden;html=1;whiteSpace=wrap;" vertex="1" parent="hsDdO6fQhVXFPxeYiTVl-65">
          <mxGeometry width="60" height="30" as="geometry">
            <mxRectangle width="60" height="30" as="alternateBounds" />
          </mxGeometry>
        </mxCell>
        <mxCell id="hsDdO6fQhVXFPxeYiTVl-67" value="ExemploTelefone" style="shape=partialRectangle;connectable=0;fillColor=none;top=0;left=0;bottom=0;right=0;align=left;spacingLeft=6;overflow=hidden;html=1;whiteSpace=wrap;" vertex="1" parent="hsDdO6fQhVXFPxeYiTVl-65">
          <mxGeometry x="60" width="120" height="30" as="geometry">
            <mxRectangle width="120" height="30" as="alternateBounds" />
          </mxGeometry>
        </mxCell>
        <mxCell id="hsDdO6fQhVXFPxeYiTVl-72" value="" style="edgeStyle=entityRelationEdgeStyle;fontSize=12;html=1;endArrow=ERoneToMany;rounded=0;entryX=0;entryY=0.5;entryDx=0;entryDy=0;" edge="1" parent="1" target="hsDdO6fQhVXFPxeYiTVl-36">
          <mxGeometry width="100" height="100" relative="1" as="geometry">
            <mxPoint x="220" y="730" as="sourcePoint" />
            <mxPoint x="320" y="630" as="targetPoint" />
          </mxGeometry>
        </mxCell>
        <mxCell id="hsDdO6fQhVXFPxeYiTVl-73" value="" style="edgeStyle=entityRelationEdgeStyle;fontSize=12;html=1;endArrow=ERoneToMany;rounded=0;entryX=0;entryY=0.5;entryDx=0;entryDy=0;" edge="1" parent="1" target="hsDdO6fQhVXFPxeYiTVl-62">
          <mxGeometry width="100" height="100" relative="1" as="geometry">
            <mxPoint x="220" y="730" as="sourcePoint" />
            <mxPoint x="360" y="755" as="targetPoint" />
          </mxGeometry>
        </mxCell>
        <mxCell id="hsDdO6fQhVXFPxeYiTVl-74" value="Fisico" style="text;html=1;align=center;verticalAlign=middle;resizable=0;points=[];autosize=1;strokeColor=#b85450;fillColor=#f8cecc;" vertex="1" parent="1">
          <mxGeometry x="40" y="968" width="50" height="30" as="geometry" />
        </mxCell>
        <mxCell id="2NFmpz2IkNpPmHDiFVNE-1" value="" style="shape=image;verticalLabelPosition=bottom;labelBackgroundColor=default;verticalAlign=top;aspect=fixed;imageAspect=0;image=data:image/png,iVBORw0KGgoAAAANSUhEUgAABBIAAAB1CAYAAADz5sI3AAAAAXNSR0IArs4c6QAAAARnQU1BAACxjwv8YQUAAAAJcEhZcwAAEnQAABJ0Ad5mH3gAACcfSURBVHhe7d1PiNvWvsDxnx/tW6TbBtJb0mZhBzKdTWl5LZ7SdcflltBFtrm8BM+Fwp2BNruB9sLs0gt2IXDHTS8321mUoSWeblvumOY1aTbTCcRepC33pZBsk8Xrwu8c6UiWZNk+luR/8vcDSsayJEs/SUc6R+ccFbqKjOmnn36SV155xXzCuIjfcmA/p0P80iF+6RA/LBqO2XSI33QR73SIHybN5hj7D/M/AAAAAADASBQkAAAAAAAAaxQkAAAAAAAAaxQkAAAAAAAAaxQkAAAAAAAAaxQkAAAAAAAAaxQkAAAAAAAAaxQkAAAAAAAAaxQkAAAAAAAAa4Wjo6Ou+dva6uqq+QvAMOr8Mn9hXKQzADAerjnJcc0BgLBR15RCVzF/WysUCpJgNmCpcJ6kQ/wAwB5pZjrEDwB6bNJEmjYAAAAAAABrFCQAAAAAAABrFCQAAAAAAABrFCQAAAAAAABrFCQAAAAAAABrFCQAADARHamvFaSwVld/uQ42wp8BAPmVOM3v1GWtoObVA9cMzCkKEqakU19zE4PgsHFgvgUATEJs2qsHbswAAH1MAXDcdcMbJn7/rtbh4pa0qk3n9Xvdw00pmm+AeUJBwjSVa9LWCYIzNKXaqHAzCwATV5Wmn/aaYSo3ZkXZPJzWbwEA0jPptnetaFbVuLLU2oFxu+vupBPTluOW+tWVkvkMzCcKEmZmXa7UyiKtPblJSQIAAAAAYEFQkDBDxbOr5q+Ag41w9alojYVgmyk1hGpXDftOi3wfO43itOcKTkcTDAA55qR5Kp0LNYPw0t5gmhxTg2xUekmfCACQY6Pu2+MMm8f5riIN9Wdrq+R8v1YPLNHiXn7oNS0oyboDARQkzFDn/pH5y+Wc8BUJVMFtS022pOSf2AeyUdoSqbX971d2NtTYUd8pOrFQ3682vWWroVmVRiWcQOnEZ2fFW4Ya2jUpNyqxBQ4AkBsqnSsdb5u0rynVlkp79Y3V/vnQuIuklwAAZfR9e7+R86zvqnHqeqP+LJt7+sNN0zjO8l7eEXNNC16/kqw7EEVBwqx06nJxqyVS3RY3fTiQq+pztbkrvZZXRdncVknJwOYPuh1XcPqg4Hcdqe801G81JdSsSyVWuulXa+uqX+CwvhtIsLTiu3KhrNKjfe6MASyqhlSCT10KaxK953L6sPETyHU5797F9Y1r7d30b7JILwFgWSW5b08yj8f+Xt6hO2oceP1Ksx5ADwUJ0+Q94dKDV3vAO8k790XXT9Clir2bXTVUdOUmj9uvglvVKXojPOw7t9OW6vlgyuNad+6Wj+S+P320t9qS6PIOAFhc0c4WD00BblqklwCwlKzu2yOSzOMb515+hFTrAfRQkDBNobc2RJ5kGdVgdSV/6N30FjcPnXHNaku2SvrE7zVfGPidSTAGW5WzzvL1TbG6EZbgerZF9wkJAAgivQSAZTfqvj1Oknns7+XtJVoPIICChHlRPKuSAJEjy+JEXaXWaY8rDYnWou37ziw7rrrtwX5Dv19GnBfMdG7KntPagleVAcBQpJcAsLzGvG93JJnHY3svbyPNegABFCTMDa9pwsVwswTdsYrX8Yn+O9iLV/tYWlIW5zWzw74zy9Ydr4Q6AVPz6FpM/o1wTCJ1sEFVXQDoQ3oJAEvM4r69T5J5PJb38lbSrAfQQ0HCHNFNE9o1Mc0SzLCzIu1DkzjoDlWk0vtOpRzVpqmCNOw7xWn2YHp27U1zJLV2N9Bpy7rsml7HvWkqaqm6ExcAWFzRzhbVkPpmifQSAJbZyPv2GEnm8djdy9tJsx6Ap9DVDWLGpA+2BLMBS4XzJB3iBwD2SDPTIX4A0GOTJlIjAQAAAAAAWKMgAQAAAAAAWKMgAQAAAAAAWKMgAQAAAAAAWCscHR2N3bPM6qp+6RWAUdT5Zf7CuEhnAGA8XHOS45oDAGGjrim8tWEGiN9yYD+nQ/zSIX7pED8sGo7ZdIjfdBHvdIgfJs3mGKNpAwAAAAAAsEZBAgAAAAAAsEZBAgAAAAAAsEZBAgAAAAAAsEZBAgAAAAAAsDbzgoSDjYIU1urSMZ8BYFrmK/3pSH0tvD7zsn6k00grH8fQ/J6jmB+TOiYSL7dTl7WCmlcPOT1WOQ+Xw7ztZ87JSRYkHGyoAK1JfczodOprbmCDw8aB+RZzIXgCmGEtuKOdfa/Hb0j/njuQjcj07j63mxawkmX6o4e83qCQTi+EpTsuhyAWmJmx00tT8BR3vHrDxNNNtQ4Xt6RVbTqvcesebkrRfLMQuEZlhrRT45zM2nw2bSjXpK2D6wxNqTYq3CTMCaf0rbQlq01v/+ihLRf2Sn6Gv3P/yPlfpCEVMhdYOFVp+se2GaaS0Bdl83Bav5UB0ukpm9VxOY84R7EIzPHiHaPNqhpXllo7MG533Z10Ytpy3FK/ulIyn5cI16gYy34d4ZzM2gL0kbAuV2plkdae3OQOdbYONqTSUMlQsyvh88w9MQ83g0lRVWp6vzV2xi5JBrBoSKcBAPOKaxQwCVMvSHCeaI9ZfaR4dtX8FeBUdwosK1rKGKl+H/qpYd9pMVX341Y1tC16yPXT947UdxpOCe8Vy8K6s5s3pFZuydZFnlJiPiRJf6KcZah5Q9UEvfQnmC7FPPkYlWY438/BE5MkcSKdniETi7gmZqHNHbE/kh7bej792+Gqs3HN1SIs9+G4km6HNup4cb6PmQ/LK3TMpDmAR6WXcYbN43xXEXXnJq2tkvN9KI2wOP+GnktBSdY9hSQx5xo1gllfriMBSY7rYfM43+XrnJxqQYLe+EqjV62mvbLjPOEepVdV3uUEryKB6jltqcmWlPwgHchGaUuk1va/X9nxDsZh3yk68NGq+82qNCrhna23ZWfFW4Ya2jUpNyrZHbxzx62KI6tnx6gCVZTN7ao+W+RqbuOCRZE0/YmlzvXS8bY5/5tSVcd4SSfU++dD4y4uYJpBOr2Aiptyo1ZWSe1FUwNMxc+tPubXHhu9P4wEx7amb4p686lllxtSGXbjYrkPE8vxOYr5kdV1xfr8DBg5z/quGqeOc/Vn2aSlfs3Rcc6/mHMpeN4kWfc0uEZNCNeREM5JS+oHxmY1W7Oqpit3a23zudvsqsB1VeDMZ5eKUVdFs+uNbdfKoc9qRLes5tP16V3ucvyPntDvxf+Wa9h37a46hwK/1eOsp1TV3IMMnjcqYdhnbFjcwpx9GIhVOHb9y3Gn19PEDza/OY/0uiO5VPFLk/6Y4643BJfTP49mOy6sP82IzjN6GYNZxY90eiCr+E2JzXHpxUzvl1pfHGz2h4lf5HizGRc3zfBlJ9+HeTpHs6ZjgeRGxi9heunrm9+T5Py0m8ebLryO9uef8zkyXbL16Gd1vCaMOdeoflxHYgw8TpNsq9083nTzeE5G2Rxj06uR0Lkvuixw9azF82yv5EoPXomfXxzmLkeX0ISqbISKI922UG61kWhvr8O+c5+6V8/3191fP692i/rl+/700Z4/S7Kln9jnXOu4bf6yt36lJmVpyM7Q0sFe6XJvcEvtgNTGSX/6jsVDCXX/kdgCpBmk03Ns1HG5LrvqbkLvly3nIdKuGmNY7Y+UorXVSisq3W9J/CVjnH0YZ4nPUcyPsa4rQyQ5P1Od02nPv4BppC1B48Sca1QMriNWkmxrqvgs7jm5AG9tiHbi56oGq374Q++EKG4eOuOa1ZZslXQQe1WOBn5ngj/Yqrhplz7x1ckuwfXUVXCciXKqJCt6+47uq60fU191KWDZ5DDNIJ2ea0cxdx2j9sfUWO/DaVru4wWzl+T8THROT+D8m5u0JYhrVGrLfh3hnBxtegUJxbMqDPEH5VjGXM76rgqcbnMkDdn3zn6j7zuz7EZ0QuVgv6ESpRWVnVY6N2VPlxxtL9crU969oFK3VrL+Doqb21IVldhe3TdjgCnKKv1JalHSDNLpBea2Zy3X2urGVifVgYLbaRz/0ULm9rFK8csS+4Yr2304TUt5XUcqM0ovHWl+O8vzL6sY2JpRzJfnGsV1xJFkW9PEJ8ttmcZ+CphijYR10bUzWltX/dI8t8MU88GaV50o8nRbd1LhdSKh/w72VBI8EId9Z5Yt0Y5O1Dx6Pf2TPWaHH2yUcl8Fsui8hUGHJ74X0eEdm5jqUo2GSmqBacsq/UloYdIM0ulFdbBRkUa5Jjc2i+rGVjcLawXemGOxP9LS1Yj9HeJ10rU94OmH5T6cpiW9riONKaaXfdKc01mef1NIW0K4Rk0S1xFPkm1NE58st2UK+ylgqk0b1nd1lZ2GVEx7Dd1TaVsHbky6OlG7JqYqkRl2VqR9aAK9vitNqfS+U3uh2jTVOYZ9pzhVlVSGN9S2pHIktXbX77VU76RdXfqodrg3TUUtVeeT860om4ddZ59F297ofRlXbSxEx97EKHWbQmBM9ulPbxp/SJ34Lk6aQTo9r4Ycl87NRllqN7ybjV47V68n55H7I61q0+k93V22ezPa7u2MPnb7cJDlPkcxP6aWXsZIc06nO//CJp62RHCNSoPriK0k25omPlluy8T3U0ChqxtNjEmvUILZYBC/5cB+Tof4pUP80iF+9pwnguoG2O/IDDPBMZsO8Zsu4p1O3uLHdWT+2Bxj89nZIgAAAAAAmEsUJAAAAAAAAGs0bZgB4rcc2M/pEL90iF86xA+LhmM2HeI3XcQ7HeKHSbM5xqiRAAAAAAAArBWOjo7GLs5aXdUvLAEwijq/zF8YF+kMAIyHa05yXHMAIGzUNYWmDTNA/JYD+zkd4pcO8UuH+GHRcMymQ/ymi3inQ/wwaTbHGE0bAAAAAACANQoSAAAAAACANQoSAAAAAACANQoSAAAAAACANQoSAAAAAACANQoSMDUHGwUprNWlYz4DAObDN9e/k2f/+ssSpc9P5bO/hrd5+WIAAIMcyEahIBsH5mMmOlJfK8hanVQ2L3JTkOBkUtUBHx2yPQFmp1Nfi92+pc6Yd+qyFolHKHE62DDjN1RyGOUmkMHp3RjbTYsl5x1beUlgpiTv6TSU336Rty5/J/8ZGcigAxPAtShTXKN6OvUdaZRrcmXdjFD68iIxgRk+TVE2t6vS2roac68dlv63XFlNM8iirOek5KtGgjrg292u885Lb9gNnACLryrNyPZ1DzfVabl8nMS+tCWrzWA82nJhr+Rn+Dv3j5z/RRpSmYOTDXnglqYXKg3zGWPLfTq9rMwT/u1HcmHnbfm/6+Hh6xcfyMrl7+TPd83kM3dC/vLx2/L7xy8t5TUUi45r0cRwjVI6cnOvJeUL7/rpo87EqttuqbW9uDSl2qiEMrM208j6eZWbacj+kNvyrH4rs3UeYFHWc6LUyowt4WwT1axKV538XXXyz70k8WvXymq+ardpPi+izPZRs+rEsDoiGF7Mas7/5a46+QKa3apaRjkwcnCM+6e1MY/nySKZx/i5x4g+ltrdWlkdz6MOwhkinU5n2c7fg8+/7T7zyc8J982Tbv0TNf/nj8zneO2bt7vPXLrdrT80I+ZMuhjMHtecdBYpfot0LRqEa1Q6E41fu9Yth+6b4++Dw/fNNtO4nDgPPGaz+q1s17nfoqxncjbHGH0k5IWp5h9XtT9UWOVX9zdDpGmE86RfzaBLvvqmCc4bM5/+7dB8sc0EImKaJwwvXOtIfafhlBgHq1sNc3bzhtTKLdm6SP8MSKe4eahS1UPZ5BEmou7eG1yV31T3f6v51IxQzPShJ/TDlqE4bfivP5ZO807/NIF54+bTvx2a7/I9+cZ8P1BMM4W4GgWd5j35UM7IvcvPO5/177m/cUc+u6uX4f5WsfKyXJInsvdjIA6mJkPwN9x53XmSbrPmrYc/jVpOkLPsmPlGCa6LHkL7VbOIW5rtArgWYZI6N/ekJaty1q+OcF90Hd9Vf4SreHZV/WtqF9hMY5RWymrUfnweIavfynid+yzKek5YvgoSWltSCmRIl6pNe3FTbtTKKgQXxd3sA9nQVd6qTb9KlpPJr0igeURbaqJiFu1noVGR0vG2maYpVS+u++dD4y5G4tvaKgXmU8suN6QyrA8HXTBRijRPaFbVzw/bd205bqn/Vs+OUR3VbZOlj4+rMzzZACg5TKd1ZvDZayJf+VX5X5e/yQM552UCT70k/3z/Obn15T357Dc94rH8+doj6b65In9/VX+2WIZR+P5Yzv3vy2aaFbn0q9tk4Nk7J0Pj/hTJ3P7Pl7cD86lln34kfxyWSdWZ2e0HsvqBtz5q+OCk/ONaNOP8WD798olces9tIqAzyH/8/qSzHb/vnJS9aw/k1unnTHp9QlZOO38YuhDhtnz44or/G1+9KdKVk/L19XPyjpkqyTbr9dj5w+vmezXsnJE31HLSNq3Q++nclyKf+s03XpcLP3j7VbGOW/J9CWCCljkvYbT1jXZ5RUrmsxohLSnLij/CKK2osYbNNIabAT6S+3Ghzeq3Ml7nPouynhOWm4KE9d1AZlQNbSdT3Wsvnw8qYx5I3AqFNVNo4CpubktVHWr6yXt9o6KmrkrTb9h1IFe3WlJt7krvQb6Xwd6Tm8Ew6fZh/nzrcl5NEjeutXczfBMammbAsn2mZkGgoMOxvitNJ88/vCOWct/ZNIJZbqMyqpZENMZ60LEEkFY+02mTkf6gl/F12t+/d1Lk10fSNBlM72n8h7u/yGfXj+ULnVk2T/Btl6F1T/ee/Is8L+d1xjtm3K0fHofS5/A08cvuURn8r8IFHY5XzzkZ/Vtf/tyrzfDbU3U7+JysvKA/PJb976W3Hadekm01vbx4whQkRD2V41/V9K956yXyzmtqvdT4+ym3+Z3Lb8u/KifMJ+XU83LhtMgXd8K1EsbzVJo/PJE33j8nfzllRjl9LbxmPo8RNyXpvgQwGcuRlxilI04XY2M9sBuTkwFuyXHbfMbCym3TBl3ty8mQRjO7Cy3a2WK0Wtu67Lq5cNly8uiBQgNTLUY/7Q9lkrPsqCea6AxNKNyaBdXzwVIE17pTcjGgpNJoJUh91q/U1Po0ZGfoBSGmQ0tdA8N8CyA7uUinnYy0OE+cveroznDtkfu973n5+wcnpfDrA/komNnWrJeRQjQz/8Jz8oY8keOH5nNIfwbf05fRf/hEbqnM9Fmdkb77SL7wCxU0Nd2/Rd74g5ehd5e7+oL32a2hEMzcf3NHb7NZXirRJhO35SP126n89lj2QusfNUbcAMy9fOYlMJZok3CbZttLJP99JLSOVZZ1OR3F5MSrobcceMMM2tmZgo3BAm2zQkqim1apjRs/Ue9r/gFgLuQgnf7vYFV2M/x+3XtS3e/oYX919XGXMTGmYGOwXka/o7fDb7qgBQsBIgUHodoLPbqKv5fh180igs0akjFNJuSMHPuxfF0+DTWrmIAx4gZggSxjXiJ4nz3owWCwyr3NNDay+q2splnfjeSZzEPaeVvPGclxQYKpmhNs45N7br8I5VrbNA8IZJiLZ1XWPL5wITPRzP2wA9ysTyOmh5CD/caQ/VaUdy+U9cYl6u/Ab/5xdd+MATA7OUinT51w09aYgoEwt1+E/3r/dVPNPdCu3noZKfz7aTh9dmoS9GfqHWZ94poBODUGQgUHUd5Td7W9l4/lH844TWXudx/IrTdf7hWMOE/4nwv0N6ALTtIWIiim5oDXb0NmRu2nVHEDMH+WMS9RFKcLg6ABeQj3NevmwZ/NNB6L/EHq38p6naMWZT0nLB8FCbrn/0infp36RdnSVee3N5fmwn2g+0Uo1+TGZlHWd3V1/OCbCtblStzTeF1lZ1iHiOPQHdT4r1zwOnvcHlDbwV0f3bFj9K0S7myD91vReQuD20wj+oYH7+0Rg5nmH40G/R4A05TbdPp5+SjUkaJx916ox/1vdL8Ip8/IPysn5J3LK35/Ce73dstIQzepOOe/tcAt1JBgpj7EXR9dUyD6Von3dLOMQAa9qGsb/PrEXcdXX5a/nX4iH21/J89e/llWdt6WY7Uct8mG26ni7377f8XJeLvT95ogZPCmgpgM/TfXx2/a4LxZQb95wt8ncftJ137wprGPG4A5Q17C57xVIVQLw/SNFsxDqHhdVMEp1664T+itpnENzwBn9VvZrnO/RVnPCesmkHC2CTLv0VXr1Rsm917NtJLEz31XaHQb1eC977ZZVZ+D73xVnHHh9472LSfyvlyVx040zvlcbYaXb7EcNTK8PtFtGCIuJv3bGn8cOOuipg++xnbw9PHvbx1FLx/JzWP84o45d5i/9Eav13zJdzrdvnm7++ylb/3hmU9+7qV1Px53n7l0u1t/aD5rapyebu3mEzNixDKUg8+TjXM+f/4otHyb5Xjr6M8T3QbHo+6G+i64HfaedOuffNvd+NF8dLjjvHVJus3dhz9314Lrrrbfi4MnOk/s55htju6nvm23iFvf+iq24waZv3N+sSxS/BbpWjSIXt/5kv+8hLW4PIXi3Tt7Q9x9sfU00fxARKa/lcE0gyzKeiahf2OUgv5HTTgW3dlEgtlg5DF+uiZARZrSDb2CYblxnqRD/NIhfunkKX7OKxklUhsgS7/9Im9t69c8npF7H9s/dXdfpXiir0+EQeMxHOd8OsRvuoh3OpON34FsFCpyVGvLYeadqE1y2ciSzTGW4z4SAADAxJ16Sf51/W35+sUHshJoomDTVKEgj2Q/2AzAvApT3jxJIQIAzIRpDj2Jt1Uc7Duvp9+mECEXqJEwA3mMHzUS+nGepEP80iF+6djGT2eUgWnQnVEOwzmfDvGbLuKdzuTj59YckGZXsru170h9rSR7F6iNsAhsjjEKEmaA+C0H9nM6xC8d4pcO8cOi4ZhNh/hNF/FOh/hh0myOMZo2AAAAAAAAa4Wjo6Oxi7NWV/WLlQCMos4v8xfGRToDAOPhmpMc1xwACBt1TaFpwwwQv+XAfk6H+KVD/NIhflg0HLPpEL/pIt7pED9Mms0xRtMGAAAAAABgjYIEAAAAAABgjYIEAAAAAABgjYIEAAAAAABgjYIEAAAAAABgjYIETM3BRkEKa3XpmM8AgPnwzfXv5Nm//rJE6fNT+eyv4W1evhgAwCAHslEoyMaB+ZiJjtTXCrJWJ5XNi1wVJDgZVXXQ+0OOMq2d+lp423K4jWPr1GUtEo9Q4nSwYcZvqOQwyk0gg9O7MbabFsvKPRaCx1y2F9n8y3M6DeW3X+Sty9/Jf0YGMuhAlrgWTQrXKFenviONck2urJsRSl9eJOagGz5NUTa3q9Lauhpzrx2W/rdcWU0zyKKs56TkpiBBn/iVRlWa3a7zzstutynV1paUcpUABLfPDIeb6rRcPk5CX9qS1WYwHm25sFfyM/yd+0fO/yINqczByYZFp0vSK6JOQv+Ya1bV0VXhBs7WcqTTy8o84d9+JBd23pb/ux4evn7xgaxc/k7+fNdMPnMn5C8fvy2/f/zSUl5Dsci4Fk0K1yhPR27utaR84V0/fdSZWHXbLbV2IDaNSigzazONrJ9XuZmG7A85VrP6rczWeYBFWc+JUisztoSzTVC7WytLV6rq1A9o18pqXavd8NjZSxK/ed2WcagLXVfKNbW3UmpWnRhGdncfL2Y15/9yV518Ac2uuu52y4GRg2PcP62N+TtPFstCxK9d65YTHBvTQDqdzrKdvweff9t95pOfE6bPT7r1T9T8nz8yn+O1b97uPnPpdrf+0IyYM+liMHtcc9JZ6PjN8bVoEK5R6Uw0fs7xFLxvjr8PDsfGZhqXkx8YeBOf1W9lu879FmU9k7M5xnJSI6EoZ1fVf0f3AyWGbmmaVM9LoFZOfplq/nFV+0OFVX51fzNESlmdJ/1qBl3y1TdNcN6Y+fRvh+aLbSYQEdM8YXjhWkfqOw2RSHWrYc5u3pBauSVbF3nqCcxOztPpu/cGV+U31f3faj41IxQzfegJ/bBlKE4b/uuPpdO80z9NYN64+fRvh+a7fE++Md8PFNNMIa5GQad5Tz6UM3Lv8vPOZ/177m/ckc/u6mW4v1WsvCyX5Ins/RiIg6nJEPwNd153nqTbrHnr4U+jlhPkLDtmvlGC66KH0H7VLOKWZrsATAJ5CU/n5p60ZFXO+tUR7ouu47vqj3AVnYCZ2gU20xillbIatR+fR8jqtzJe5z6Lsp4TlpumDeu7Tbf6UWFN6h3ddqwkW62qNHeX5NQvbsqNWllaWxfV9usRKgYVleGuNsULgZPJd2rDedVi2lKTmCpbjYqUjrfNNF5cVSZ//3xo3MVInwGtrVJgPrXsckMqw6qD6YKJUqR5QrPqVM8b3B9BW45Vmq7OpjGqo7ptstQKytUZnmzIofaxutj2J+6Il9d0WmcGn70m8pVflf91+Zs8kHNeJvDUS/LP95+TW1/ek89+0yMey5+vPZLumyvy91f1Z4tlGIXvj+Xc/75splmRS7+6TQaevXMyNO5Pkczt/3x5OzCfWvbpR/LHYZlUnZndfiCrH3jro4YPTso/rkUzzo/l0y+fyKX33CYCOoP8x+9POtvx+85J2bv2QG6dfs6k1ydk5bTzh6ELEW7Lhy+u+L/x1ZsiXTkpX18/J++YqZJss16PnT+8br5Xw84ZeUMtJ23TCr2fzn0p8qnffON1ufCDt18V67gl35dAH65FmVj6vITR1jfa5RUpmc/u8VWWFX+EUVpRYw2baQw3A3wk9+MuQFn9Vsbr3GdR1nPCctTZ4rrs6gyuCvVWqSIqC63y0Ls5K0FUGfPQ03ud0JmvlOLmtrv9F+tS39AxCCZ+B3J1qxWJiZfB3pObwZO5XJO2P9+6nFeTxI1r7d0M34SGphmwbJ+pWRAo6HCs7zpt/UZ1xFLuO5tGMMttVEbVkojGWA/u8QSEmcK6MWrHII/ptMlIf9DL+Drt7987KfLrI2maDKb3NP7D3V/ks+vH8oXOLJsn+LbL0Lqne0/+RZ6X8zrjHTPu1g+PQ+lzeJr4ZfeoDP5X4YIOx6vnnIz+rS9/7tVm+O2puh18TlZe0B8ey/730tuOUy/JtppeXjxhChKinsrxr2r617z1EnnnNbVeavz9lNv8zuW35V+VE+aTcup5uXBa5Is74VoJ43kqzR+eyBvvn5O/nDKjnL4WXjOfx4ibknRfAmFci7KzDHmJUTridDE21gO7MTkZ4JYct81nLKzcFCS4Vep7nc+0a2XnyfbMO6HIVLADGD0cymboLFcJoJsLly2V+oUSP1MtxolJMJOsLz5ZiSY6QxMKt2ZB9Xx/8rzulFwMKKk0WglSn/UrNbU+DdkZWNtBi8ZYD/qiAoQdOIV1ZandWM4OT5PIZTrtZKTFeeLsVUd3hmuP3O99z8vfPzgphV8fyEfBzLZmvYwUopn5F56TN+SJHD80n0P6M/ievoz+wydyS2Wmz+qM9N1H8oVfqKCp6f4t8sYfvAy9u9zVF7zPbg2FYOb+mzt6m83yUok2mbgtH6nfTuW3x7IXWv+oMeIGZIRrUXaWIy+BsUSbhNs0214i+ShI6NTl4lZLyrW2/3S7uHnoVJNXKcDS9mJ7FJMTrwabEfhDtEBiCkzBxmCBtlkhJdFNq8Jt2Cz1Nf8AknF7dlY3bu0ZnDuLKufp9H8Hq7Kb4ffr3pPqfkcP+6urj7uMiTEFG4P1MvodvR1+0wUtWAgQKTgI1V7o0VX8vQy/bhYRbNaQjGkyIWfk2I/l6/JpqFnFBIwRNyALXIsyRF4iLHifPejBYLDKvc00NrL6raymWd+N5JnMQ9p5W88ZyUdBghNI/UA8koo6gV8mbvU2nQi6FRMCGebiWZU1jy9cyEw0cz/sADfr04jpIeRgX1fRC7TNCinKuxfUXk3Y34Hf/OPqvhkDjMe9cdOFcty4jSWv6fSpE27aGlMwEOb2i/Bf779uqrkH2tVbLyOFfz8Np89OTYL+TL3DrE9cMwCnxkCo4CDKe+qutvfysfzDGaepzP3uA7n15su9ghHnCf9zgf4GdMFJ2kIExdQc8PptyMyo/ZQqbsB4uBZljLyEYTqdDBqQh3Bfs24e/NlM47HIH6T+razXOWpR1nPC8lGQ4LyTVGVKdyJvEri6pQ7UqsTUns8lp3pbuSY31BXF6TBGZ5j9NxWsy5W4p/G6ys6wDhHHoTuo8YtsTZu96vaAC5y7Pn2lvGp93NkGV9ErOm9h0LP2v+HBe3vEYKb5R6PhtH0DxqGrPbo3bt1w3x4YLbfp9PPyUagjRePuvVCP+9/ofhFOn5F/Vk7IO5dX/P4S3O/tlpGGblJxzn9rgVuoIcFMfYi7PrqmQPStEu/pZhmBDHpR1zb49Ym7jq++LH87/UQ+2v5Onr38s6zsvC3Hajlukw23U8Xf/fb/ipPxdqfvNUHI4E0FMRn6b66P37TBebOCfvOEv0/i9pOu/eBNYx83IA2uRRNAXsLnvFWhdSy9B+Cmb7RgHsKvwXHFfUJvNY1reAY4q9/Kdp37Lcp6Tlg3gYSzTZj7jk29br1hcu/WTCNJ/Nx3hUa3Tw3lmvvO62ZVfQ6+81VxxoXfO9q3HG9+Q+WxE41zPqsrWmj5FstRI8PrE92GIeJi0r+t8ceAsy5q+uBrbAdPH//+1lH08pHc/MUvLo3xBvvjdlr0es2f/KbT7Zu3u89e+tYfnvnk515a9+Nx95lLt7v1h+azpsbp6dZuPjEjRixDOfg82Tjn8+ePQsu3WY63jv480W1wPOpuqO+C22HvSbf+ybfdjR/NR4c7zluXpNvcffhzdy247mr7vTh4ovPEfo7Z5uh+6tt2i7j1ra9iO26Q+TznF8fixG+xrkWD6PWdP/nOS1iLy1Mo3r2zN8TdF1tPE80PRGT6WxlMM8iirGcS+jdGKeh/1IRj0Z1NJJgNRh7j51Sxk6Z0KRr3cZ6kQ/zSIX7p5Cl+zisZJVIbIEu//SJvbevXPJ6Rex/bP3V3X6V4oq9PhEHjMRznfDrEb7qIdzqTjZ9+9WVFjmptOcy83cwkl40s2Rxj+WjaAAAAZuPUS/Kv62/L1y8+kJVAEwWbpgoFeST7wWYA5lWY8uZJChEAYCZMc+joa96zcLAv+vX02xQi5AI1EmYgj/GjRkI/zpN0iF86xC8d2/jpjDIwDbozymE459MhftNFvNOZfPzcmgP6VZjZ3dp3pL5Wkr0L1EZYBDbHGAUJM0D8lgP7OR3ilw7xS4f4YdFwzKZD/KaLeKdD/DBpNscYTRsAAAAAAIC1wtHR0djFWaur+sVKAEZR55f5C+MinQGA8XDNSY5rDgCEjbqmJGra8NNPP8krr7xiPmFcxG85sJ/TIX7pEL90iB8WDcdsOsRvuoh3OsQPk2ZzjNG0AQAAAAAAWKMgAQAAAAAAWKMgAQAAAAAAWKMgAQAAAAAAWKMgAQAAAAAAWKMgAQAAAAAAWKMgAQAAAAAAWKMgAQAAAAAAWKMgAQAAAAAAWBL5f/lNsXkjxfpTAAAAAElFTkSuQmCC;" vertex="1" parent="1">
          <mxGeometry x="30" y="1020" width="712.48" height="80" as="geometry" />
        </mxCell>
      </root>
    </mxGraphModel>
  </diagram>
  <diagram id="c81_uixwv7pDdwEkA7s6" name="Exercício 1.2 ">
    <mxGraphModel dx="1400" dy="689" grid="1" gridSize="10" guides="1" tooltips="1" connect="1" arrows="1" fold="1" page="1" pageScale="1" pageWidth="827" pageHeight="1169" math="0" shadow="0">
      <root>
        <mxCell id="0" />
        <mxCell id="1" parent="0" />
        <mxCell id="ZP-LaagBrDPjH0wxboex-1" value="Construa o Modelo Entidade Relacionamento considerando o seguinte cenário:&#xa;&#xa;&#xa;- uma empresa possui vários veículos&#xa;- um veículo possui marca(gm, ford, fiat), modelo(onix, fiesta, argo) e placa&#xa;- um cliente (cpf, nome) aluga um ou mais veículos" style="text;whiteSpace=wrap;" parent="1" vertex="1">
          <mxGeometry x="10" y="20" width="450" height="110" as="geometry" />
        </mxCell>
        <mxCell id="-k5jXAy_fNaahpjlZTcm-10" style="edgeStyle=orthogonalEdgeStyle;rounded=0;orthogonalLoop=1;jettySize=auto;html=1;entryX=0.5;entryY=0;entryDx=0;entryDy=0;endArrow=none;endFill=0;" parent="1" source="-k5jXAy_fNaahpjlZTcm-1" target="-k5jXAy_fNaahpjlZTcm-9" edge="1">
          <mxGeometry relative="1" as="geometry" />
        </mxCell>
        <mxCell id="-k5jXAy_fNaahpjlZTcm-1" value="Empresa" style="rounded=0;whiteSpace=wrap;html=1;" parent="1" vertex="1">
          <mxGeometry x="364" y="190" width="120" height="60" as="geometry" />
        </mxCell>
        <mxCell id="-k5jXAy_fNaahpjlZTcm-2" value="Marca" style="rounded=0;whiteSpace=wrap;html=1;" parent="1" vertex="1">
          <mxGeometry x="684" y="480" width="120" height="60" as="geometry" />
        </mxCell>
        <mxCell id="-k5jXAy_fNaahpjlZTcm-3" value="Modelo" style="rounded=0;whiteSpace=wrap;html=1;" parent="1" vertex="1">
          <mxGeometry x="24" y="480" width="120" height="60" as="geometry" />
        </mxCell>
        <mxCell id="-k5jXAy_fNaahpjlZTcm-13" style="edgeStyle=orthogonalEdgeStyle;rounded=0;orthogonalLoop=1;jettySize=auto;html=1;endArrow=none;endFill=0;" parent="1" source="-k5jXAy_fNaahpjlZTcm-4" target="-k5jXAy_fNaahpjlZTcm-12" edge="1">
          <mxGeometry relative="1" as="geometry" />
        </mxCell>
        <mxCell id="-k5jXAy_fNaahpjlZTcm-16" style="edgeStyle=orthogonalEdgeStyle;rounded=0;orthogonalLoop=1;jettySize=auto;html=1;entryX=1;entryY=0.5;entryDx=0;entryDy=0;endArrow=none;endFill=0;" parent="1" source="-k5jXAy_fNaahpjlZTcm-4" target="-k5jXAy_fNaahpjlZTcm-15" edge="1">
          <mxGeometry relative="1" as="geometry" />
        </mxCell>
        <mxCell id="-k5jXAy_fNaahpjlZTcm-21" style="edgeStyle=orthogonalEdgeStyle;rounded=0;orthogonalLoop=1;jettySize=auto;html=1;entryX=0.5;entryY=0;entryDx=0;entryDy=0;endArrow=none;endFill=0;" parent="1" source="-k5jXAy_fNaahpjlZTcm-4" target="-k5jXAy_fNaahpjlZTcm-20" edge="1">
          <mxGeometry relative="1" as="geometry" />
        </mxCell>
        <mxCell id="-k5jXAy_fNaahpjlZTcm-4" value="Veiculo" style="rounded=0;whiteSpace=wrap;html=1;" parent="1" vertex="1">
          <mxGeometry x="364" y="480" width="120" height="60" as="geometry" />
        </mxCell>
        <mxCell id="-k5jXAy_fNaahpjlZTcm-5" value="Aluguel" style="rounded=0;whiteSpace=wrap;html=1;" parent="1" vertex="1">
          <mxGeometry x="364" y="730" width="120" height="60" as="geometry" />
        </mxCell>
        <mxCell id="-k5jXAy_fNaahpjlZTcm-19" style="edgeStyle=orthogonalEdgeStyle;rounded=0;orthogonalLoop=1;jettySize=auto;html=1;entryX=1;entryY=0;entryDx=0;entryDy=0;endArrow=none;endFill=0;" parent="1" source="-k5jXAy_fNaahpjlZTcm-6" target="-k5jXAy_fNaahpjlZTcm-4" edge="1">
          <mxGeometry relative="1" as="geometry" />
        </mxCell>
        <mxCell id="-k5jXAy_fNaahpjlZTcm-6" value="Placa" style="ellipse;whiteSpace=wrap;html=1;" parent="1" vertex="1">
          <mxGeometry x="444" y="420" width="80" height="30" as="geometry" />
        </mxCell>
        <mxCell id="-k5jXAy_fNaahpjlZTcm-34" style="edgeStyle=orthogonalEdgeStyle;rounded=0;orthogonalLoop=1;jettySize=auto;html=1;entryX=0.5;entryY=1;entryDx=0;entryDy=0;endArrow=none;endFill=0;" parent="1" source="-k5jXAy_fNaahpjlZTcm-7" target="-k5jXAy_fNaahpjlZTcm-27" edge="1">
          <mxGeometry relative="1" as="geometry" />
        </mxCell>
        <mxCell id="-k5jXAy_fNaahpjlZTcm-7" value="CPF" style="ellipse;whiteSpace=wrap;html=1;" parent="1" vertex="1">
          <mxGeometry x="334" y="1050" width="80" height="30" as="geometry" />
        </mxCell>
        <mxCell id="-k5jXAy_fNaahpjlZTcm-33" style="edgeStyle=orthogonalEdgeStyle;rounded=0;orthogonalLoop=1;jettySize=auto;html=1;entryX=0.5;entryY=1;entryDx=0;entryDy=0;endArrow=none;endFill=0;" parent="1" source="-k5jXAy_fNaahpjlZTcm-8" target="-k5jXAy_fNaahpjlZTcm-27" edge="1">
          <mxGeometry relative="1" as="geometry" />
        </mxCell>
        <mxCell id="-k5jXAy_fNaahpjlZTcm-8" value="Nome" style="ellipse;whiteSpace=wrap;html=1;" parent="1" vertex="1">
          <mxGeometry x="434" y="1050" width="80" height="30" as="geometry" />
        </mxCell>
        <mxCell id="-k5jXAy_fNaahpjlZTcm-11" style="edgeStyle=orthogonalEdgeStyle;rounded=0;orthogonalLoop=1;jettySize=auto;html=1;entryX=0.5;entryY=0;entryDx=0;entryDy=0;endArrow=none;endFill=0;" parent="1" source="-k5jXAy_fNaahpjlZTcm-9" target="-k5jXAy_fNaahpjlZTcm-4" edge="1">
          <mxGeometry relative="1" as="geometry" />
        </mxCell>
        <mxCell id="-k5jXAy_fNaahpjlZTcm-9" value="Possui" style="rhombus;whiteSpace=wrap;html=1;" parent="1" vertex="1">
          <mxGeometry x="384" y="320" width="80" height="80" as="geometry" />
        </mxCell>
        <mxCell id="-k5jXAy_fNaahpjlZTcm-14" style="edgeStyle=orthogonalEdgeStyle;rounded=0;orthogonalLoop=1;jettySize=auto;html=1;entryX=0;entryY=0.5;entryDx=0;entryDy=0;endArrow=none;endFill=0;" parent="1" source="-k5jXAy_fNaahpjlZTcm-12" target="-k5jXAy_fNaahpjlZTcm-2" edge="1">
          <mxGeometry relative="1" as="geometry" />
        </mxCell>
        <mxCell id="-k5jXAy_fNaahpjlZTcm-12" value="Possui" style="rhombus;whiteSpace=wrap;html=1;" parent="1" vertex="1">
          <mxGeometry x="544" y="470" width="80" height="80" as="geometry" />
        </mxCell>
        <mxCell id="-k5jXAy_fNaahpjlZTcm-17" style="edgeStyle=orthogonalEdgeStyle;rounded=0;orthogonalLoop=1;jettySize=auto;html=1;endArrow=none;endFill=0;" parent="1" source="-k5jXAy_fNaahpjlZTcm-15" target="-k5jXAy_fNaahpjlZTcm-3" edge="1">
          <mxGeometry relative="1" as="geometry" />
        </mxCell>
        <mxCell id="-k5jXAy_fNaahpjlZTcm-15" value="Possui" style="rhombus;whiteSpace=wrap;html=1;" parent="1" vertex="1">
          <mxGeometry x="214" y="470" width="80" height="80" as="geometry" />
        </mxCell>
        <mxCell id="-k5jXAy_fNaahpjlZTcm-22" style="edgeStyle=orthogonalEdgeStyle;rounded=0;orthogonalLoop=1;jettySize=auto;html=1;entryX=0.5;entryY=0;entryDx=0;entryDy=0;endArrow=none;endFill=0;" parent="1" source="-k5jXAy_fNaahpjlZTcm-20" target="-k5jXAy_fNaahpjlZTcm-5" edge="1">
          <mxGeometry relative="1" as="geometry" />
        </mxCell>
        <mxCell id="-k5jXAy_fNaahpjlZTcm-20" value="Possui" style="rhombus;whiteSpace=wrap;html=1;" parent="1" vertex="1">
          <mxGeometry x="384" y="595" width="80" height="80" as="geometry" />
        </mxCell>
        <mxCell id="-k5jXAy_fNaahpjlZTcm-32" style="edgeStyle=orthogonalEdgeStyle;rounded=0;orthogonalLoop=1;jettySize=auto;html=1;entryX=0.5;entryY=1;entryDx=0;entryDy=0;endArrow=none;endFill=0;" parent="1" source="-k5jXAy_fNaahpjlZTcm-27" target="-k5jXAy_fNaahpjlZTcm-28" edge="1">
          <mxGeometry relative="1" as="geometry" />
        </mxCell>
        <mxCell id="-k5jXAy_fNaahpjlZTcm-27" value="Cliente" style="rounded=0;whiteSpace=wrap;html=1;" parent="1" vertex="1">
          <mxGeometry x="364" y="950" width="120" height="60" as="geometry" />
        </mxCell>
        <mxCell id="-k5jXAy_fNaahpjlZTcm-30" style="edgeStyle=orthogonalEdgeStyle;rounded=0;orthogonalLoop=1;jettySize=auto;html=1;endArrow=none;endFill=0;" parent="1" source="-k5jXAy_fNaahpjlZTcm-28" target="-k5jXAy_fNaahpjlZTcm-5" edge="1">
          <mxGeometry relative="1" as="geometry" />
        </mxCell>
        <mxCell id="-k5jXAy_fNaahpjlZTcm-28" value="Possui" style="rhombus;whiteSpace=wrap;html=1;" parent="1" vertex="1">
          <mxGeometry x="384" y="830" width="80" height="80" as="geometry" />
        </mxCell>
        <mxCell id="-k5jXAy_fNaahpjlZTcm-35" value="1" style="text;html=1;align=center;verticalAlign=middle;resizable=0;points=[];autosize=1;strokeColor=none;fillColor=none;" parent="1" vertex="1">
          <mxGeometry x="414" y="250" width="30" height="30" as="geometry" />
        </mxCell>
        <mxCell id="-k5jXAy_fNaahpjlZTcm-36" value="N" style="text;html=1;align=center;verticalAlign=middle;resizable=0;points=[];autosize=1;strokeColor=none;fillColor=none;" parent="1" vertex="1">
          <mxGeometry x="394" y="455" width="30" height="30" as="geometry" />
        </mxCell>
        <mxCell id="-k5jXAy_fNaahpjlZTcm-37" value="1" style="text;html=1;align=center;verticalAlign=middle;resizable=0;points=[];autosize=1;strokeColor=none;fillColor=none;" parent="1" vertex="1">
          <mxGeometry x="144" y="470" width="30" height="30" as="geometry" />
        </mxCell>
        <mxCell id="-k5jXAy_fNaahpjlZTcm-38" value="N" style="text;html=1;align=center;verticalAlign=middle;resizable=0;points=[];autosize=1;strokeColor=none;fillColor=none;" parent="1" vertex="1">
          <mxGeometry x="334" y="470" width="30" height="30" as="geometry" />
        </mxCell>
        <mxCell id="-k5jXAy_fNaahpjlZTcm-39" value="1" style="text;html=1;align=center;verticalAlign=middle;resizable=0;points=[];autosize=1;strokeColor=none;fillColor=none;" parent="1" vertex="1">
          <mxGeometry x="654" y="470" width="30" height="30" as="geometry" />
        </mxCell>
        <mxCell id="-k5jXAy_fNaahpjlZTcm-40" value="N" style="text;html=1;align=center;verticalAlign=middle;resizable=0;points=[];autosize=1;strokeColor=none;fillColor=none;" parent="1" vertex="1">
          <mxGeometry x="479" y="470" width="30" height="30" as="geometry" />
        </mxCell>
        <mxCell id="-k5jXAy_fNaahpjlZTcm-42" value="1" style="text;html=1;align=center;verticalAlign=middle;resizable=0;points=[];autosize=1;strokeColor=none;fillColor=none;" parent="1" vertex="1">
          <mxGeometry x="424" y="538" width="30" height="30" as="geometry" />
        </mxCell>
        <mxCell id="-k5jXAy_fNaahpjlZTcm-43" value="N" style="text;html=1;align=center;verticalAlign=middle;resizable=0;points=[];autosize=1;strokeColor=none;fillColor=none;" parent="1" vertex="1">
          <mxGeometry x="424" y="700" width="30" height="30" as="geometry" />
        </mxCell>
        <mxCell id="-k5jXAy_fNaahpjlZTcm-44" value="N" style="text;html=1;align=center;verticalAlign=middle;resizable=0;points=[];autosize=1;strokeColor=none;fillColor=none;" parent="1" vertex="1">
          <mxGeometry x="424" y="788" width="30" height="30" as="geometry" />
        </mxCell>
        <mxCell id="-k5jXAy_fNaahpjlZTcm-45" value="1" style="text;html=1;align=center;verticalAlign=middle;resizable=0;points=[];autosize=1;strokeColor=none;fillColor=none;" parent="1" vertex="1">
          <mxGeometry x="424" y="920" width="30" height="30" as="geometry" />
        </mxCell>
        <mxCell id="sbRBTaSkcSphxhnLber6-1" value="Conceitual" style="text;html=1;align=center;verticalAlign=middle;resizable=0;points=[];autosize=1;strokeColor=#b85450;fillColor=#f8cecc;" vertex="1" parent="1">
          <mxGeometry x="40" y="160" width="80" height="30" as="geometry" />
        </mxCell>
        <mxCell id="Ca_Z7HcwyfFRU8U31jQb-1" value="Logico" style="text;html=1;align=center;verticalAlign=middle;resizable=0;points=[];autosize=1;strokeColor=#b85450;fillColor=#f8cecc;" vertex="1" parent="1">
          <mxGeometry x="870" y="30" width="60" height="30" as="geometry" />
        </mxCell>
        <mxCell id="Ca_Z7HcwyfFRU8U31jQb-15" value="Empresa" style="shape=table;startSize=30;container=1;collapsible=1;childLayout=tableLayout;fixedRows=1;rowLines=0;fontStyle=1;align=center;resizeLast=1;html=1;whiteSpace=wrap;" vertex="1" parent="1">
          <mxGeometry x="870" y="110" width="180" height="110" as="geometry" />
        </mxCell>
        <mxCell id="Ca_Z7HcwyfFRU8U31jQb-16" value="" style="shape=tableRow;horizontal=0;startSize=0;swimlaneHead=0;swimlaneBody=0;fillColor=none;collapsible=0;dropTarget=0;points=[[0,0.5],[1,0.5]];portConstraint=eastwest;top=0;left=0;right=0;bottom=0;html=1;" vertex="1" parent="Ca_Z7HcwyfFRU8U31jQb-15">
          <mxGeometry y="30" width="180" height="30" as="geometry" />
        </mxCell>
        <mxCell id="Ca_Z7HcwyfFRU8U31jQb-17" value="PK" style="shape=partialRectangle;connectable=0;fillColor=none;top=0;left=0;bottom=0;right=0;fontStyle=1;overflow=hidden;html=1;whiteSpace=wrap;" vertex="1" parent="Ca_Z7HcwyfFRU8U31jQb-16">
          <mxGeometry width="60" height="30" as="geometry">
            <mxRectangle width="60" height="30" as="alternateBounds" />
          </mxGeometry>
        </mxCell>
        <mxCell id="Ca_Z7HcwyfFRU8U31jQb-18" value="IdEmpresa" style="shape=partialRectangle;connectable=0;fillColor=none;top=0;left=0;bottom=0;right=0;align=left;spacingLeft=6;fontStyle=5;overflow=hidden;html=1;whiteSpace=wrap;" vertex="1" parent="Ca_Z7HcwyfFRU8U31jQb-16">
          <mxGeometry x="60" width="120" height="30" as="geometry">
            <mxRectangle width="120" height="30" as="alternateBounds" />
          </mxGeometry>
        </mxCell>
        <mxCell id="Ca_Z7HcwyfFRU8U31jQb-19" value="" style="shape=tableRow;horizontal=0;startSize=0;swimlaneHead=0;swimlaneBody=0;fillColor=none;collapsible=0;dropTarget=0;points=[[0,0.5],[1,0.5]];portConstraint=eastwest;top=0;left=0;right=0;bottom=1;html=1;" vertex="1" parent="Ca_Z7HcwyfFRU8U31jQb-15">
          <mxGeometry y="60" width="180" height="20" as="geometry" />
        </mxCell>
        <mxCell id="Ca_Z7HcwyfFRU8U31jQb-20" value="" style="shape=partialRectangle;connectable=0;fillColor=none;top=0;left=0;bottom=0;right=0;fontStyle=1;overflow=hidden;html=1;whiteSpace=wrap;" vertex="1" parent="Ca_Z7HcwyfFRU8U31jQb-19">
          <mxGeometry width="60" height="20" as="geometry">
            <mxRectangle width="60" height="20" as="alternateBounds" />
          </mxGeometry>
        </mxCell>
        <mxCell id="Ca_Z7HcwyfFRU8U31jQb-21" value="" style="shape=partialRectangle;connectable=0;fillColor=none;top=0;left=0;bottom=0;right=0;align=left;spacingLeft=6;fontStyle=5;overflow=hidden;html=1;whiteSpace=wrap;" vertex="1" parent="Ca_Z7HcwyfFRU8U31jQb-19">
          <mxGeometry x="60" width="120" height="20" as="geometry">
            <mxRectangle width="120" height="20" as="alternateBounds" />
          </mxGeometry>
        </mxCell>
        <mxCell id="Ca_Z7HcwyfFRU8U31jQb-22" value="" style="shape=tableRow;horizontal=0;startSize=0;swimlaneHead=0;swimlaneBody=0;fillColor=none;collapsible=0;dropTarget=0;points=[[0,0.5],[1,0.5]];portConstraint=eastwest;top=0;left=0;right=0;bottom=0;html=1;" vertex="1" parent="Ca_Z7HcwyfFRU8U31jQb-15">
          <mxGeometry y="80" width="180" height="30" as="geometry" />
        </mxCell>
        <mxCell id="Ca_Z7HcwyfFRU8U31jQb-23" value="" style="shape=partialRectangle;connectable=0;fillColor=none;top=0;left=0;bottom=0;right=0;editable=1;overflow=hidden;html=1;whiteSpace=wrap;" vertex="1" parent="Ca_Z7HcwyfFRU8U31jQb-22">
          <mxGeometry width="60" height="30" as="geometry">
            <mxRectangle width="60" height="30" as="alternateBounds" />
          </mxGeometry>
        </mxCell>
        <mxCell id="Ca_Z7HcwyfFRU8U31jQb-24" value="Nome" style="shape=partialRectangle;connectable=0;fillColor=none;top=0;left=0;bottom=0;right=0;align=left;spacingLeft=6;overflow=hidden;html=1;whiteSpace=wrap;" vertex="1" parent="Ca_Z7HcwyfFRU8U31jQb-22">
          <mxGeometry x="60" width="120" height="30" as="geometry">
            <mxRectangle width="120" height="30" as="alternateBounds" />
          </mxGeometry>
        </mxCell>
        <mxCell id="Ca_Z7HcwyfFRU8U31jQb-28" value="Marca" style="shape=table;startSize=30;container=1;collapsible=1;childLayout=tableLayout;fixedRows=1;rowLines=0;fontStyle=1;align=center;resizeLast=1;html=1;whiteSpace=wrap;" vertex="1" parent="1">
          <mxGeometry x="870" y="450" width="180" height="110" as="geometry" />
        </mxCell>
        <mxCell id="Ca_Z7HcwyfFRU8U31jQb-29" value="" style="shape=tableRow;horizontal=0;startSize=0;swimlaneHead=0;swimlaneBody=0;fillColor=none;collapsible=0;dropTarget=0;points=[[0,0.5],[1,0.5]];portConstraint=eastwest;top=0;left=0;right=0;bottom=0;html=1;" vertex="1" parent="Ca_Z7HcwyfFRU8U31jQb-28">
          <mxGeometry y="30" width="180" height="30" as="geometry" />
        </mxCell>
        <mxCell id="Ca_Z7HcwyfFRU8U31jQb-30" value="PK" style="shape=partialRectangle;connectable=0;fillColor=none;top=0;left=0;bottom=0;right=0;fontStyle=1;overflow=hidden;html=1;whiteSpace=wrap;" vertex="1" parent="Ca_Z7HcwyfFRU8U31jQb-29">
          <mxGeometry width="60" height="30" as="geometry">
            <mxRectangle width="60" height="30" as="alternateBounds" />
          </mxGeometry>
        </mxCell>
        <mxCell id="Ca_Z7HcwyfFRU8U31jQb-31" value="IdMarca" style="shape=partialRectangle;connectable=0;fillColor=none;top=0;left=0;bottom=0;right=0;align=left;spacingLeft=6;fontStyle=5;overflow=hidden;html=1;whiteSpace=wrap;" vertex="1" parent="Ca_Z7HcwyfFRU8U31jQb-29">
          <mxGeometry x="60" width="120" height="30" as="geometry">
            <mxRectangle width="120" height="30" as="alternateBounds" />
          </mxGeometry>
        </mxCell>
        <mxCell id="Ca_Z7HcwyfFRU8U31jQb-32" value="" style="shape=tableRow;horizontal=0;startSize=0;swimlaneHead=0;swimlaneBody=0;fillColor=none;collapsible=0;dropTarget=0;points=[[0,0.5],[1,0.5]];portConstraint=eastwest;top=0;left=0;right=0;bottom=1;html=1;" vertex="1" parent="Ca_Z7HcwyfFRU8U31jQb-28">
          <mxGeometry y="60" width="180" height="20" as="geometry" />
        </mxCell>
        <mxCell id="Ca_Z7HcwyfFRU8U31jQb-33" value="" style="shape=partialRectangle;connectable=0;fillColor=none;top=0;left=0;bottom=0;right=0;fontStyle=1;overflow=hidden;html=1;whiteSpace=wrap;" vertex="1" parent="Ca_Z7HcwyfFRU8U31jQb-32">
          <mxGeometry width="60" height="20" as="geometry">
            <mxRectangle width="60" height="20" as="alternateBounds" />
          </mxGeometry>
        </mxCell>
        <mxCell id="Ca_Z7HcwyfFRU8U31jQb-34" value="" style="shape=partialRectangle;connectable=0;fillColor=none;top=0;left=0;bottom=0;right=0;align=left;spacingLeft=6;fontStyle=5;overflow=hidden;html=1;whiteSpace=wrap;" vertex="1" parent="Ca_Z7HcwyfFRU8U31jQb-32">
          <mxGeometry x="60" width="120" height="20" as="geometry">
            <mxRectangle width="120" height="20" as="alternateBounds" />
          </mxGeometry>
        </mxCell>
        <mxCell id="Ca_Z7HcwyfFRU8U31jQb-35" value="" style="shape=tableRow;horizontal=0;startSize=0;swimlaneHead=0;swimlaneBody=0;fillColor=none;collapsible=0;dropTarget=0;points=[[0,0.5],[1,0.5]];portConstraint=eastwest;top=0;left=0;right=0;bottom=0;html=1;" vertex="1" parent="Ca_Z7HcwyfFRU8U31jQb-28">
          <mxGeometry y="80" width="180" height="30" as="geometry" />
        </mxCell>
        <mxCell id="Ca_Z7HcwyfFRU8U31jQb-36" value="" style="shape=partialRectangle;connectable=0;fillColor=none;top=0;left=0;bottom=0;right=0;editable=1;overflow=hidden;html=1;whiteSpace=wrap;" vertex="1" parent="Ca_Z7HcwyfFRU8U31jQb-35">
          <mxGeometry width="60" height="30" as="geometry">
            <mxRectangle width="60" height="30" as="alternateBounds" />
          </mxGeometry>
        </mxCell>
        <mxCell id="Ca_Z7HcwyfFRU8U31jQb-37" value="Nome" style="shape=partialRectangle;connectable=0;fillColor=none;top=0;left=0;bottom=0;right=0;align=left;spacingLeft=6;overflow=hidden;html=1;whiteSpace=wrap;" vertex="1" parent="Ca_Z7HcwyfFRU8U31jQb-35">
          <mxGeometry x="60" width="120" height="30" as="geometry">
            <mxRectangle width="120" height="30" as="alternateBounds" />
          </mxGeometry>
        </mxCell>
        <mxCell id="Ca_Z7HcwyfFRU8U31jQb-41" value="Modelo" style="shape=table;startSize=30;container=1;collapsible=1;childLayout=tableLayout;fixedRows=1;rowLines=0;fontStyle=1;align=center;resizeLast=1;html=1;whiteSpace=wrap;" vertex="1" parent="1">
          <mxGeometry x="870" y="270" width="180" height="110" as="geometry" />
        </mxCell>
        <mxCell id="Ca_Z7HcwyfFRU8U31jQb-42" value="" style="shape=tableRow;horizontal=0;startSize=0;swimlaneHead=0;swimlaneBody=0;fillColor=none;collapsible=0;dropTarget=0;points=[[0,0.5],[1,0.5]];portConstraint=eastwest;top=0;left=0;right=0;bottom=0;html=1;" vertex="1" parent="Ca_Z7HcwyfFRU8U31jQb-41">
          <mxGeometry y="30" width="180" height="30" as="geometry" />
        </mxCell>
        <mxCell id="Ca_Z7HcwyfFRU8U31jQb-43" value="PK" style="shape=partialRectangle;connectable=0;fillColor=none;top=0;left=0;bottom=0;right=0;fontStyle=1;overflow=hidden;html=1;whiteSpace=wrap;" vertex="1" parent="Ca_Z7HcwyfFRU8U31jQb-42">
          <mxGeometry width="60" height="30" as="geometry">
            <mxRectangle width="60" height="30" as="alternateBounds" />
          </mxGeometry>
        </mxCell>
        <mxCell id="Ca_Z7HcwyfFRU8U31jQb-44" value="IdModelo" style="shape=partialRectangle;connectable=0;fillColor=none;top=0;left=0;bottom=0;right=0;align=left;spacingLeft=6;fontStyle=5;overflow=hidden;html=1;whiteSpace=wrap;" vertex="1" parent="Ca_Z7HcwyfFRU8U31jQb-42">
          <mxGeometry x="60" width="120" height="30" as="geometry">
            <mxRectangle width="120" height="30" as="alternateBounds" />
          </mxGeometry>
        </mxCell>
        <mxCell id="Ca_Z7HcwyfFRU8U31jQb-45" value="" style="shape=tableRow;horizontal=0;startSize=0;swimlaneHead=0;swimlaneBody=0;fillColor=none;collapsible=0;dropTarget=0;points=[[0,0.5],[1,0.5]];portConstraint=eastwest;top=0;left=0;right=0;bottom=1;html=1;" vertex="1" parent="Ca_Z7HcwyfFRU8U31jQb-41">
          <mxGeometry y="60" width="180" height="20" as="geometry" />
        </mxCell>
        <mxCell id="Ca_Z7HcwyfFRU8U31jQb-46" value="" style="shape=partialRectangle;connectable=0;fillColor=none;top=0;left=0;bottom=0;right=0;fontStyle=1;overflow=hidden;html=1;whiteSpace=wrap;" vertex="1" parent="Ca_Z7HcwyfFRU8U31jQb-45">
          <mxGeometry width="60" height="20" as="geometry">
            <mxRectangle width="60" height="20" as="alternateBounds" />
          </mxGeometry>
        </mxCell>
        <mxCell id="Ca_Z7HcwyfFRU8U31jQb-47" value="" style="shape=partialRectangle;connectable=0;fillColor=none;top=0;left=0;bottom=0;right=0;align=left;spacingLeft=6;fontStyle=5;overflow=hidden;html=1;whiteSpace=wrap;" vertex="1" parent="Ca_Z7HcwyfFRU8U31jQb-45">
          <mxGeometry x="60" width="120" height="20" as="geometry">
            <mxRectangle width="120" height="20" as="alternateBounds" />
          </mxGeometry>
        </mxCell>
        <mxCell id="Ca_Z7HcwyfFRU8U31jQb-48" value="" style="shape=tableRow;horizontal=0;startSize=0;swimlaneHead=0;swimlaneBody=0;fillColor=none;collapsible=0;dropTarget=0;points=[[0,0.5],[1,0.5]];portConstraint=eastwest;top=0;left=0;right=0;bottom=0;html=1;" vertex="1" parent="Ca_Z7HcwyfFRU8U31jQb-41">
          <mxGeometry y="80" width="180" height="30" as="geometry" />
        </mxCell>
        <mxCell id="Ca_Z7HcwyfFRU8U31jQb-49" value="" style="shape=partialRectangle;connectable=0;fillColor=none;top=0;left=0;bottom=0;right=0;editable=1;overflow=hidden;html=1;whiteSpace=wrap;" vertex="1" parent="Ca_Z7HcwyfFRU8U31jQb-48">
          <mxGeometry width="60" height="30" as="geometry">
            <mxRectangle width="60" height="30" as="alternateBounds" />
          </mxGeometry>
        </mxCell>
        <mxCell id="Ca_Z7HcwyfFRU8U31jQb-50" value="Nome" style="shape=partialRectangle;connectable=0;fillColor=none;top=0;left=0;bottom=0;right=0;align=left;spacingLeft=6;overflow=hidden;html=1;whiteSpace=wrap;" vertex="1" parent="Ca_Z7HcwyfFRU8U31jQb-48">
          <mxGeometry x="60" width="120" height="30" as="geometry">
            <mxRectangle width="120" height="30" as="alternateBounds" />
          </mxGeometry>
        </mxCell>
        <mxCell id="Ca_Z7HcwyfFRU8U31jQb-67" value="Cliente" style="shape=table;startSize=30;container=1;collapsible=1;childLayout=tableLayout;fixedRows=1;rowLines=0;fontStyle=1;align=center;resizeLast=1;html=1;whiteSpace=wrap;" vertex="1" parent="1">
          <mxGeometry x="1280" y="640" width="180" height="120" as="geometry" />
        </mxCell>
        <mxCell id="Ca_Z7HcwyfFRU8U31jQb-68" value="" style="shape=tableRow;horizontal=0;startSize=0;swimlaneHead=0;swimlaneBody=0;fillColor=none;collapsible=0;dropTarget=0;points=[[0,0.5],[1,0.5]];portConstraint=eastwest;top=0;left=0;right=0;bottom=0;html=1;" vertex="1" parent="Ca_Z7HcwyfFRU8U31jQb-67">
          <mxGeometry y="30" width="180" height="30" as="geometry" />
        </mxCell>
        <mxCell id="Ca_Z7HcwyfFRU8U31jQb-69" value="PK" style="shape=partialRectangle;connectable=0;fillColor=none;top=0;left=0;bottom=0;right=0;fontStyle=1;overflow=hidden;html=1;whiteSpace=wrap;" vertex="1" parent="Ca_Z7HcwyfFRU8U31jQb-68">
          <mxGeometry width="60" height="30" as="geometry">
            <mxRectangle width="60" height="30" as="alternateBounds" />
          </mxGeometry>
        </mxCell>
        <mxCell id="Ca_Z7HcwyfFRU8U31jQb-70" value="IdCliente" style="shape=partialRectangle;connectable=0;fillColor=none;top=0;left=0;bottom=0;right=0;align=left;spacingLeft=6;fontStyle=5;overflow=hidden;html=1;whiteSpace=wrap;" vertex="1" parent="Ca_Z7HcwyfFRU8U31jQb-68">
          <mxGeometry x="60" width="120" height="30" as="geometry">
            <mxRectangle width="120" height="30" as="alternateBounds" />
          </mxGeometry>
        </mxCell>
        <mxCell id="Ca_Z7HcwyfFRU8U31jQb-71" value="" style="shape=tableRow;horizontal=0;startSize=0;swimlaneHead=0;swimlaneBody=0;fillColor=none;collapsible=0;dropTarget=0;points=[[0,0.5],[1,0.5]];portConstraint=eastwest;top=0;left=0;right=0;bottom=1;html=1;" vertex="1" parent="Ca_Z7HcwyfFRU8U31jQb-67">
          <mxGeometry y="60" width="180" height="30" as="geometry" />
        </mxCell>
        <mxCell id="Ca_Z7HcwyfFRU8U31jQb-72" value="FK" style="shape=partialRectangle;connectable=0;fillColor=none;top=0;left=0;bottom=0;right=0;fontStyle=1;overflow=hidden;html=1;whiteSpace=wrap;" vertex="1" parent="Ca_Z7HcwyfFRU8U31jQb-71">
          <mxGeometry width="60" height="30" as="geometry">
            <mxRectangle width="60" height="30" as="alternateBounds" />
          </mxGeometry>
        </mxCell>
        <mxCell id="Ca_Z7HcwyfFRU8U31jQb-73" value="IdAluguel" style="shape=partialRectangle;connectable=0;fillColor=none;top=0;left=0;bottom=0;right=0;align=left;spacingLeft=6;fontStyle=5;overflow=hidden;html=1;whiteSpace=wrap;" vertex="1" parent="Ca_Z7HcwyfFRU8U31jQb-71">
          <mxGeometry x="60" width="120" height="30" as="geometry">
            <mxRectangle width="120" height="30" as="alternateBounds" />
          </mxGeometry>
        </mxCell>
        <mxCell id="Ca_Z7HcwyfFRU8U31jQb-74" value="" style="shape=tableRow;horizontal=0;startSize=0;swimlaneHead=0;swimlaneBody=0;fillColor=none;collapsible=0;dropTarget=0;points=[[0,0.5],[1,0.5]];portConstraint=eastwest;top=0;left=0;right=0;bottom=0;html=1;" vertex="1" parent="Ca_Z7HcwyfFRU8U31jQb-67">
          <mxGeometry y="90" width="180" height="30" as="geometry" />
        </mxCell>
        <mxCell id="Ca_Z7HcwyfFRU8U31jQb-75" value="" style="shape=partialRectangle;connectable=0;fillColor=none;top=0;left=0;bottom=0;right=0;editable=1;overflow=hidden;html=1;whiteSpace=wrap;" vertex="1" parent="Ca_Z7HcwyfFRU8U31jQb-74">
          <mxGeometry width="60" height="30" as="geometry">
            <mxRectangle width="60" height="30" as="alternateBounds" />
          </mxGeometry>
        </mxCell>
        <mxCell id="Ca_Z7HcwyfFRU8U31jQb-76" value="Nome" style="shape=partialRectangle;connectable=0;fillColor=none;top=0;left=0;bottom=0;right=0;align=left;spacingLeft=6;overflow=hidden;html=1;whiteSpace=wrap;" vertex="1" parent="Ca_Z7HcwyfFRU8U31jQb-74">
          <mxGeometry x="60" width="120" height="30" as="geometry">
            <mxRectangle width="120" height="30" as="alternateBounds" />
          </mxGeometry>
        </mxCell>
        <mxCell id="FQjo2s0X6JeUjKH1tn3a-2" value="Aluguel" style="shape=table;startSize=30;container=1;collapsible=1;childLayout=tableLayout;fixedRows=1;rowLines=0;fontStyle=1;align=center;resizeLast=1;html=1;whiteSpace=wrap;" vertex="1" parent="1">
          <mxGeometry x="1280" y="470" width="180" height="120" as="geometry" />
        </mxCell>
        <mxCell id="FQjo2s0X6JeUjKH1tn3a-3" value="" style="shape=tableRow;horizontal=0;startSize=0;swimlaneHead=0;swimlaneBody=0;fillColor=none;collapsible=0;dropTarget=0;points=[[0,0.5],[1,0.5]];portConstraint=eastwest;top=0;left=0;right=0;bottom=0;html=1;" vertex="1" parent="FQjo2s0X6JeUjKH1tn3a-2">
          <mxGeometry y="30" width="180" height="30" as="geometry" />
        </mxCell>
        <mxCell id="FQjo2s0X6JeUjKH1tn3a-4" value="PK" style="shape=partialRectangle;connectable=0;fillColor=none;top=0;left=0;bottom=0;right=0;fontStyle=1;overflow=hidden;html=1;whiteSpace=wrap;" vertex="1" parent="FQjo2s0X6JeUjKH1tn3a-3">
          <mxGeometry width="60" height="30" as="geometry">
            <mxRectangle width="60" height="30" as="alternateBounds" />
          </mxGeometry>
        </mxCell>
        <mxCell id="FQjo2s0X6JeUjKH1tn3a-5" value="IdAluguel" style="shape=partialRectangle;connectable=0;fillColor=none;top=0;left=0;bottom=0;right=0;align=left;spacingLeft=6;fontStyle=5;overflow=hidden;html=1;whiteSpace=wrap;" vertex="1" parent="FQjo2s0X6JeUjKH1tn3a-3">
          <mxGeometry x="60" width="120" height="30" as="geometry">
            <mxRectangle width="120" height="30" as="alternateBounds" />
          </mxGeometry>
        </mxCell>
        <mxCell id="FQjo2s0X6JeUjKH1tn3a-6" value="" style="shape=tableRow;horizontal=0;startSize=0;swimlaneHead=0;swimlaneBody=0;fillColor=none;collapsible=0;dropTarget=0;points=[[0,0.5],[1,0.5]];portConstraint=eastwest;top=0;left=0;right=0;bottom=1;html=1;" vertex="1" parent="FQjo2s0X6JeUjKH1tn3a-2">
          <mxGeometry y="60" width="180" height="30" as="geometry" />
        </mxCell>
        <mxCell id="FQjo2s0X6JeUjKH1tn3a-7" value="FK" style="shape=partialRectangle;connectable=0;fillColor=none;top=0;left=0;bottom=0;right=0;fontStyle=1;overflow=hidden;html=1;whiteSpace=wrap;" vertex="1" parent="FQjo2s0X6JeUjKH1tn3a-6">
          <mxGeometry width="60" height="30" as="geometry">
            <mxRectangle width="60" height="30" as="alternateBounds" />
          </mxGeometry>
        </mxCell>
        <mxCell id="FQjo2s0X6JeUjKH1tn3a-8" value="IdVeiculo" style="shape=partialRectangle;connectable=0;fillColor=none;top=0;left=0;bottom=0;right=0;align=left;spacingLeft=6;fontStyle=5;overflow=hidden;html=1;whiteSpace=wrap;" vertex="1" parent="FQjo2s0X6JeUjKH1tn3a-6">
          <mxGeometry x="60" width="120" height="30" as="geometry">
            <mxRectangle width="120" height="30" as="alternateBounds" />
          </mxGeometry>
        </mxCell>
        <mxCell id="FQjo2s0X6JeUjKH1tn3a-9" value="" style="shape=tableRow;horizontal=0;startSize=0;swimlaneHead=0;swimlaneBody=0;fillColor=none;collapsible=0;dropTarget=0;points=[[0,0.5],[1,0.5]];portConstraint=eastwest;top=0;left=0;right=0;bottom=0;html=1;" vertex="1" parent="FQjo2s0X6JeUjKH1tn3a-2">
          <mxGeometry y="90" width="180" height="30" as="geometry" />
        </mxCell>
        <mxCell id="FQjo2s0X6JeUjKH1tn3a-10" value="" style="shape=partialRectangle;connectable=0;fillColor=none;top=0;left=0;bottom=0;right=0;editable=1;overflow=hidden;html=1;whiteSpace=wrap;" vertex="1" parent="FQjo2s0X6JeUjKH1tn3a-9">
          <mxGeometry width="60" height="30" as="geometry">
            <mxRectangle width="60" height="30" as="alternateBounds" />
          </mxGeometry>
        </mxCell>
        <mxCell id="FQjo2s0X6JeUjKH1tn3a-11" value="Nome" style="shape=partialRectangle;connectable=0;fillColor=none;top=0;left=0;bottom=0;right=0;align=left;spacingLeft=6;overflow=hidden;html=1;whiteSpace=wrap;" vertex="1" parent="FQjo2s0X6JeUjKH1tn3a-9">
          <mxGeometry x="60" width="120" height="30" as="geometry">
            <mxRectangle width="120" height="30" as="alternateBounds" />
          </mxGeometry>
        </mxCell>
        <mxCell id="FQjo2s0X6JeUjKH1tn3a-35" value="Veiculo" style="shape=table;startSize=30;container=1;collapsible=1;childLayout=tableLayout;fixedRows=1;rowLines=0;fontStyle=1;align=center;resizeLast=1;html=1;whiteSpace=wrap;" vertex="1" parent="1">
          <mxGeometry x="1320" y="210" width="180" height="180" as="geometry" />
        </mxCell>
        <mxCell id="FQjo2s0X6JeUjKH1tn3a-53" style="shape=tableRow;horizontal=0;startSize=0;swimlaneHead=0;swimlaneBody=0;fillColor=none;collapsible=0;dropTarget=0;points=[[0,0.5],[1,0.5]];portConstraint=eastwest;top=0;left=0;right=0;bottom=0;html=1;" vertex="1" parent="FQjo2s0X6JeUjKH1tn3a-35">
          <mxGeometry y="30" width="180" height="30" as="geometry" />
        </mxCell>
        <mxCell id="FQjo2s0X6JeUjKH1tn3a-54" value="PK" style="shape=partialRectangle;connectable=0;fillColor=none;top=0;left=0;bottom=0;right=0;fontStyle=1;overflow=hidden;html=1;whiteSpace=wrap;" vertex="1" parent="FQjo2s0X6JeUjKH1tn3a-53">
          <mxGeometry width="60" height="30" as="geometry">
            <mxRectangle width="60" height="30" as="alternateBounds" />
          </mxGeometry>
        </mxCell>
        <mxCell id="FQjo2s0X6JeUjKH1tn3a-55" value="IdVeiculo" style="shape=partialRectangle;connectable=0;fillColor=none;top=0;left=0;bottom=0;right=0;align=left;spacingLeft=6;fontStyle=5;overflow=hidden;html=1;whiteSpace=wrap;" vertex="1" parent="FQjo2s0X6JeUjKH1tn3a-53">
          <mxGeometry x="60" width="120" height="30" as="geometry">
            <mxRectangle width="120" height="30" as="alternateBounds" />
          </mxGeometry>
        </mxCell>
        <mxCell id="FQjo2s0X6JeUjKH1tn3a-50" style="shape=tableRow;horizontal=0;startSize=0;swimlaneHead=0;swimlaneBody=0;fillColor=none;collapsible=0;dropTarget=0;points=[[0,0.5],[1,0.5]];portConstraint=eastwest;top=0;left=0;right=0;bottom=0;html=1;" vertex="1" parent="FQjo2s0X6JeUjKH1tn3a-35">
          <mxGeometry y="60" width="180" height="30" as="geometry" />
        </mxCell>
        <mxCell id="FQjo2s0X6JeUjKH1tn3a-51" value="FK" style="shape=partialRectangle;connectable=0;fillColor=none;top=0;left=0;bottom=0;right=0;fontStyle=1;overflow=hidden;html=1;whiteSpace=wrap;" vertex="1" parent="FQjo2s0X6JeUjKH1tn3a-50">
          <mxGeometry width="60" height="30" as="geometry">
            <mxRectangle width="60" height="30" as="alternateBounds" />
          </mxGeometry>
        </mxCell>
        <mxCell id="FQjo2s0X6JeUjKH1tn3a-52" value="IdEmpresa" style="shape=partialRectangle;connectable=0;fillColor=none;top=0;left=0;bottom=0;right=0;align=left;spacingLeft=6;fontStyle=5;overflow=hidden;html=1;whiteSpace=wrap;" vertex="1" parent="FQjo2s0X6JeUjKH1tn3a-50">
          <mxGeometry x="60" width="120" height="30" as="geometry">
            <mxRectangle width="120" height="30" as="alternateBounds" />
          </mxGeometry>
        </mxCell>
        <mxCell id="FQjo2s0X6JeUjKH1tn3a-36" value="" style="shape=tableRow;horizontal=0;startSize=0;swimlaneHead=0;swimlaneBody=0;fillColor=none;collapsible=0;dropTarget=0;points=[[0,0.5],[1,0.5]];portConstraint=eastwest;top=0;left=0;right=0;bottom=0;html=1;" vertex="1" parent="FQjo2s0X6JeUjKH1tn3a-35">
          <mxGeometry y="90" width="180" height="30" as="geometry" />
        </mxCell>
        <mxCell id="FQjo2s0X6JeUjKH1tn3a-37" value="FK" style="shape=partialRectangle;connectable=0;fillColor=none;top=0;left=0;bottom=0;right=0;fontStyle=1;overflow=hidden;html=1;whiteSpace=wrap;" vertex="1" parent="FQjo2s0X6JeUjKH1tn3a-36">
          <mxGeometry width="60" height="30" as="geometry">
            <mxRectangle width="60" height="30" as="alternateBounds" />
          </mxGeometry>
        </mxCell>
        <mxCell id="FQjo2s0X6JeUjKH1tn3a-38" value="IdModelo" style="shape=partialRectangle;connectable=0;fillColor=none;top=0;left=0;bottom=0;right=0;align=left;spacingLeft=6;fontStyle=5;overflow=hidden;html=1;whiteSpace=wrap;" vertex="1" parent="FQjo2s0X6JeUjKH1tn3a-36">
          <mxGeometry x="60" width="120" height="30" as="geometry">
            <mxRectangle width="120" height="30" as="alternateBounds" />
          </mxGeometry>
        </mxCell>
        <mxCell id="FQjo2s0X6JeUjKH1tn3a-39" value="" style="shape=tableRow;horizontal=0;startSize=0;swimlaneHead=0;swimlaneBody=0;fillColor=none;collapsible=0;dropTarget=0;points=[[0,0.5],[1,0.5]];portConstraint=eastwest;top=0;left=0;right=0;bottom=1;html=1;" vertex="1" parent="FQjo2s0X6JeUjKH1tn3a-35">
          <mxGeometry y="120" width="180" height="30" as="geometry" />
        </mxCell>
        <mxCell id="FQjo2s0X6JeUjKH1tn3a-40" value="FK" style="shape=partialRectangle;connectable=0;fillColor=none;top=0;left=0;bottom=0;right=0;fontStyle=1;overflow=hidden;html=1;whiteSpace=wrap;" vertex="1" parent="FQjo2s0X6JeUjKH1tn3a-39">
          <mxGeometry width="60" height="30" as="geometry">
            <mxRectangle width="60" height="30" as="alternateBounds" />
          </mxGeometry>
        </mxCell>
        <mxCell id="FQjo2s0X6JeUjKH1tn3a-41" value="IdMarca" style="shape=partialRectangle;connectable=0;fillColor=none;top=0;left=0;bottom=0;right=0;align=left;spacingLeft=6;fontStyle=5;overflow=hidden;html=1;whiteSpace=wrap;" vertex="1" parent="FQjo2s0X6JeUjKH1tn3a-39">
          <mxGeometry x="60" width="120" height="30" as="geometry">
            <mxRectangle width="120" height="30" as="alternateBounds" />
          </mxGeometry>
        </mxCell>
        <mxCell id="FQjo2s0X6JeUjKH1tn3a-42" value="" style="shape=tableRow;horizontal=0;startSize=0;swimlaneHead=0;swimlaneBody=0;fillColor=none;collapsible=0;dropTarget=0;points=[[0,0.5],[1,0.5]];portConstraint=eastwest;top=0;left=0;right=0;bottom=0;html=1;" vertex="1" parent="FQjo2s0X6JeUjKH1tn3a-35">
          <mxGeometry y="150" width="180" height="30" as="geometry" />
        </mxCell>
        <mxCell id="FQjo2s0X6JeUjKH1tn3a-43" value="" style="shape=partialRectangle;connectable=0;fillColor=none;top=0;left=0;bottom=0;right=0;editable=1;overflow=hidden;html=1;whiteSpace=wrap;" vertex="1" parent="FQjo2s0X6JeUjKH1tn3a-42">
          <mxGeometry width="60" height="30" as="geometry">
            <mxRectangle width="60" height="30" as="alternateBounds" />
          </mxGeometry>
        </mxCell>
        <mxCell id="FQjo2s0X6JeUjKH1tn3a-44" value="Placa" style="shape=partialRectangle;connectable=0;fillColor=none;top=0;left=0;bottom=0;right=0;align=left;spacingLeft=6;overflow=hidden;html=1;whiteSpace=wrap;" vertex="1" parent="FQjo2s0X6JeUjKH1tn3a-42">
          <mxGeometry x="60" width="120" height="30" as="geometry">
            <mxRectangle width="120" height="30" as="alternateBounds" />
          </mxGeometry>
        </mxCell>
        <mxCell id="FXmQjU46flbJbsANuTEq-4" value="" style="edgeStyle=entityRelationEdgeStyle;fontSize=12;html=1;endArrow=ERmany;rounded=0;entryX=0;entryY=0.5;entryDx=0;entryDy=0;" edge="1" parent="1" target="FQjo2s0X6JeUjKH1tn3a-50">
          <mxGeometry width="100" height="100" relative="1" as="geometry">
            <mxPoint x="1050" y="160" as="sourcePoint" />
            <mxPoint x="1150" y="60" as="targetPoint" />
          </mxGeometry>
        </mxCell>
        <mxCell id="FXmQjU46flbJbsANuTEq-6" value="" style="edgeStyle=entityRelationEdgeStyle;fontSize=12;html=1;endArrow=ERoneToMany;rounded=0;entryX=0;entryY=0.5;entryDx=0;entryDy=0;" edge="1" parent="1" target="FQjo2s0X6JeUjKH1tn3a-36">
          <mxGeometry width="100" height="100" relative="1" as="geometry">
            <mxPoint x="1050" y="325" as="sourcePoint" />
            <mxPoint x="1240" y="210" as="targetPoint" />
          </mxGeometry>
        </mxCell>
        <mxCell id="FXmQjU46flbJbsANuTEq-7" value="" style="edgeStyle=entityRelationEdgeStyle;fontSize=12;html=1;endArrow=ERoneToMany;rounded=0;entryX=0;entryY=0.5;entryDx=0;entryDy=0;" edge="1" parent="1" target="FQjo2s0X6JeUjKH1tn3a-39">
          <mxGeometry width="100" height="100" relative="1" as="geometry">
            <mxPoint x="1050" y="500" as="sourcePoint" />
            <mxPoint x="1150" y="400" as="targetPoint" />
          </mxGeometry>
        </mxCell>
        <mxCell id="uLwbddYJTDiGPQ-lFFqS-1" value="" style="edgeStyle=entityRelationEdgeStyle;fontSize=12;html=1;endArrow=ERoneToMany;rounded=0;entryX=1;entryY=0.5;entryDx=0;entryDy=0;" edge="1" parent="1" target="FQjo2s0X6JeUjKH1tn3a-6">
          <mxGeometry width="100" height="100" relative="1" as="geometry">
            <mxPoint x="1500" y="260" as="sourcePoint" />
            <mxPoint x="1600" y="160" as="targetPoint" />
          </mxGeometry>
        </mxCell>
        <mxCell id="ShWV6Jgtytza0EP4etCL-2" value="" style="edgeStyle=entityRelationEdgeStyle;fontSize=12;html=1;endArrow=ERoneToMany;rounded=0;exitX=1;exitY=0.5;exitDx=0;exitDy=0;entryX=1;entryY=0.333;entryDx=0;entryDy=0;entryPerimeter=0;" edge="1" parent="1" source="FQjo2s0X6JeUjKH1tn3a-3" target="Ca_Z7HcwyfFRU8U31jQb-71">
          <mxGeometry width="100" height="100" relative="1" as="geometry">
            <mxPoint x="1500" y="500" as="sourcePoint" />
            <mxPoint x="1530" y="745" as="targetPoint" />
          </mxGeometry>
        </mxCell>
        <mxCell id="gs1z8mfnN5weOsrDs8Wu-1" value="Fisico" style="text;html=1;align=center;verticalAlign=middle;resizable=0;points=[];autosize=1;strokeColor=#b85450;fillColor=#f8cecc;" vertex="1" parent="1">
          <mxGeometry x="900" y="810" width="50" height="30" as="geometry" />
        </mxCell>
        <mxCell id="gs1z8mfnN5weOsrDs8Wu-2" value="" style="shape=image;verticalLabelPosition=bottom;labelBackgroundColor=default;verticalAlign=top;aspect=fixed;imageAspect=0;image=data:image/png,iVBORw0KGgoAAAANSUhEUgAAA5sAAAFqCAYAAACUOk6FAAAAAXNSR0IArs4c6QAAAARnQU1BAACxjwv8YQUAAAAJcEhZcwAAEnQAABJ0Ad5mH3gAAE+dSURBVHhe7d07duI8GIDhj38tkIJhBWYFkCZV2umghCZdynRpTBm6tKnSBFYQVsCkiNkLvyTLYBsDvpHY+H3OYSZcLIxlJH2yJFpbRQr49++f/Pnzx97DbyIvUGWcn8Vw/OqHPKs28qeayJf6Iu+aI0te/2f/BwAAAACgNASbAAAAAIDSEWwCAAAAAEpHsAkAAAAAKB3BJgAAAACgdASbAAAAAIDSEWwCAAAAAErXWq/XhX5ns9fr2b8A4DRV3ti/kBVlLQAAqIq0bbrWVrF/59JqtaRgEgAagLKiGI4fAACogixtEobRAgAAAABKR7AJAAAAACgdwSYAAAAAoHQEmwAAAACA0hFsAgAAAABKR7AJAABwNTYy67ek1Z+pv8qzHJefJoDrR7B55Tazvlme+OBGhQEAQCWcDuRs8Dhe2vsAUB8Em40wksV2a34PZ3f7nEjbPgsAAH7P4G4ksprKc1I8ufmQt5Wqye8G9oFz2jL5pJ4HUA0EmwAAAL9pcCcq3JT5+2G0ufl4k5V6NnWsCQAVQrAJf/jOeBkdchsM51mOjw691dv1Z5vYUN2xhKvKIG3zfzyNcNrx57TNTPqh5+MjiHZpBjeGGAEAamkg+uKmijYjdageQvvhX9ZUrwg5U3+a+jH2WHxaja6/7TOJw3ST0jgQq6f1jaoYQBjBJnzzoXS+Hu0w24WMVlPp6Irj/S7y2N9d5eRbTTuh7TxxnbkM45WTSnsoC/81dliPqfSGEhreq7YV9Z67bZcy7kxFXG/3fPdpH8jqSvCpGzynbp4rjnofKjkAQB2ZobQyl8jFzYQhtOfrz0N6G79K3W9z//ZXYlV6NjrgVYn2FkGa6rYYqSo/HMgCaDqCzUZQAWCk57F/WME4rngvQWVme1gTHlu9fUQrs8hr2jJ5NC+Sj8iLRrLYvUZbyvN0JaPFS6in9ti2AT0HZf/6wctWPieh2SjtW7l3dKcw0SYAoIYGD+LG6jEzhFbVsw+7yjJP/elfHXXcV9lXm7pO/Qzdz2ojs6e5qt4XEqneBy+i4k1ZTZ9jV2gBNBXBZiPEFwgqUsHE9G5UlRXS6YojK/ny7H0tPvxn8y1r9Z/u/dwHwOo2VBXXzkAeVK2rr5wmBse6otPDfnbbd0TVvwAA1FRbbv1eUxuo2SDx/nZfz6aqP2Ps1dHeTVkVv+bJ15FFi/wrtGv5Tgx8ATQNwSZ+zSg89CYhEG5PPs1ji9FKph1doQbDaHWgqYJLccXbbaeH8JonAQCopfbtvTjBUFoTJDpyf3sYJJ6rPy/OBr3H9aTU2BZAbRFsopj1twr9QrwvWamqstux95O0b1Q1pDdN1+2ph8yaOZmRClhVto8s6w4AuCKhKSHL56msnHuJxJoZ60/j7DZtudEvyMKmmTR1Zfk+F3G6cqoZAKA5CDZRjF5IaLcqz1LGeijP6PFM72owRDa2OIFebCBY4ED/HV7tJxzEJlRyyzHDaAEAdRcMpR2Krk4jQ2iNFPXngaRt9Aih/RSVTle/59Puvl6E79TI3CBNvZ+RhfnUfvjNADqDAfgINhshvkCQup1YtS6T0UK87pNNdyjzyIJBx+khsp4rdnisvT11xQt+hFovMiDD/XOq9hotgiFCA3mxq88Gz+vVbvWiBAAA1Fl78mh+c1NVsPKY0HN7tv5McLhNR97u9wsGtSev4jrBlBV/tXfvzNwUM9XFrj6724/h2qx4m6IZAKAhWls90L8AXbgUTAI1ZXo+9U+aUKsgBcqKYjh+AACgCrK0SbiyCQAAAAAoHcEmAAAAAKB0DKMF8CMoK4rh+AEAgCpgGC0AAAAA4Fe11ut1oa7yXi/rjzMBaCpV3ti/kBVlLQAAqIq0bTqG0V4R8gJVxvlZDMevfsizaiN/qol8qS/yrjmy5DXDaAEAAAAApSPYBAAAAACUjmATAAAAAFA6gk0AAAAAQOkINgEAAAAApat0sLkct6TVn8nG3gcA/I7LlccbmfXLT7sp9Qf1ZD1UJZ/y7AfnGMcAKOJ3gs3lWFqtvswyfms3s75ZavfgRgEAc07p82EsS/vQ3lLG6rl+1hMOaIIc5fHphpcNHseH30RkQD1ZD4Xz6dS2ft2lX0f9dSHkX/PQXvxxNRxGO5LFdmt+22V3+5xI2z6LZtp8Bz8sO5chjVzgogZ3I5HVVJ6TvmqbD3lbqZL6bmAfOKctk0/K8XJRT9bHSt4+khu2m9mTqtFQbeRf3dBe/HnM2cQVGYnrOqr8eMrcSwkgg8Gd+rapr9r7YUW9+XhTza+RpI41gcby66zV9DnhCstGPt5W4riu+a6hisi/+qK9+JMqFWyaoVl2yEHeIVgmDbVtZChRMHxod+k89Jilt9OXzaNDkKKX2IO0d/sZTiOcdvw5bTOTfuj5+MeLfHZ9o7cll5vJq7jOSqZ/UwwZi+WJviXmS47zyTh3TgAVFimTDsqjgeiLmyrajDWy/AaWjO7UK0LOfBfMe8Uei5bF4WFNycN0k9I4kOI7X3Wn8yWdvOWa3o56Mp3Ivp7Yz5vbe3FkLgf9Nstnma4cub+9sQ/EpDyXU+1HnrrqCr5Lp1w6/86dy+Z59djudaE8OV42+s6lDR/txZ9TmWBTZ9Jwvh/643Wf1H37ZFbzoXS+Hu3woYWMVlPp6Mx7v4s89jf2BV1NO6HtPHUSzmUYz3CV9lAW/mvssCRzYg0lNGxJbSvqPXfbLmXcmYq43u757tO+gtaf/akbPKduniuOeh/KhzzaMnk8McQvoL/YKk96iyDP1G0xUtmbMFY/x/l0/pwAqitNeWyG0sYbWQlDaPN8F/Q2fpG53+b+7W+xHugs3/mKop6sRz2ZKZ/at3KvL7DEopXlu9pg9CiTpLHPKc/lNPuRq666gu/SKZfOv9Tn8pHv0amysU7fk99He/HHqA9WSK4kFiO1nbNVXxZrsVXZvXX2DxgqL7fiuNvgUc91zPtFb+F0DrfR0jyW9Br1YCR98xoZqb0N8/d9FH0wtm3y5zvO27qOeq+DRE/LlRdXwj839nkTzav48T9+fON5nHRenH8szTnRPE0+P8twseOXszxO+h6Z72HkNem+C9G0/XSPl5fJ39/4/iWlmeY7X6ZCeZYzX6gn0yuUP4FC+WSPUzwNz92q+MUer3h6ac/lNPuRJl/i21z+u1RKvqT14/mX5PCYJh9L/3Wn04or/j3J4kfzLifai+XIktfVuLK5+RY9Xbd3k9SFF7fvbfJvn8k9f3n0bkzP0U6nK46s5Muz97X48DC777qHI3IJPNINNpAHdbbqHuHklcvssLDd9h2ZruxTyGXw4JqhLU+JvayefB1ZwMS/WrOW7yLdSanOCaCiUpfHbbn1u/Tt1Sc7R+n+dl+O5vku2Kuj6eqDtC78nf8J1JP1qCcz5ZNl5kDvF5ox854dVx4OT1cl5bmcZj/yfD+v4bt0ysXzT0t5Lh98j9KUjbQns6K9eHksEFSSUfjyekIF3558mscWo5VMO/pkCoYH6YJBFQbiirfbTg9NMk8ir/ZEXk3DJWHonf1yH9eTLPXMMefOCaDu2uH5SqYhpOcoHZ7gv/5d+KHvPE6jnjzGnwPtLzSzlGcVHUQ6bcIucC5n+n7yXUqQIf8uei7TnsyF9uLFVSPYbN+o7BJZ/3Z32PpbfVVDvC9RRYZ0O/Z+koz7PnhRJ5AeQx9poKkT7ZFl6cvWnjya3sbp87t9xLJ5lrSSppln4XTlVJafVZXzGcgjy/kbmq+0fJ7KyrmXSKyZ57twdpu23OgXZHHp7/xPqEq5Qj15Ws58Cq6uvI/f1b8jeTzWykx7LqfZjzz7mvb96+rS+VfkXD63b7Qnc6O9eFkVubIZ7hXy+RO07Z2foify7mZRL2Wsd+DYBP2dYOhPrEdETygOJvfqv8Ozs8OVc8KJvBwz7KEcA3lZqBNrPleFf5ifZxKfNK/yyc/yogV1inMCqKws5XEwlHZonj/szc/zXUjaRvfY74dWdrr6PfdL1p+vLy79nf8J1JP1qCdz5lPQcaPqq4PhkxFpz+U0+5H/+1nv79IpF86/QudyUn6FykbakwXQXrykygyjHbzoS/1zGdrxyno1LU9n8IH9a3a3sjJktDCrjvnpDmXuuOK9HC/yA3roj+eKHfZjb09d8YIf0R68yEKG++fUGTpaBJfH1QluVwsLnterj+lzHiXQx94ey/A8BzNcSz0RGSc/XJsV3lJk+VlnzwmgwtKXx/pc1z3CWnJvfp7vwuE2HXm7f90FNO1gyXr7/Kn9C1z6O/8TqCfrUU9m+f7s2Y4bJWl+WFjacznNfuT9ftb9u3TKZfOv2Ll8mF/hspH2ZCG0Fy+mtdUDgwvQB6VgEpVgeq7Ul3Jb45LyWvIC14nzsxiOX/1cW55dQz0ZxneqmsiX+iLvmiNLXrNAEAAAAACgdASbAAAAAIDSMYz2ipAXqDLOz2I4fvVDnlUb+VNN5Et9kXfNkSWvubIJAAAAAChda71eF+qC6PX0QssAcJ4qb+xfyIqyFgAAVEXaNh3DaK8IeYEq4/wshuNXP+RZtZE/1US+1Bd51xxZ8pphtAAAAACA0hFsAgAAAABKR7AJAAAAACgdwSYAAAAAoHQEmwAAAACA0hFs4uotxy1p9WeysfcBAACA6tjIrF9+e7UKbWCCTW05Nkv4tsZL+wACm1nfPzbxWwODN44FcAGUv/VAPlUXeVMf5FVUcDxaYzk8IksZq+f6s+q2sE4HcjZ4JK+bHmzaE2E4t/eRbCSL7db8ns7u9jmRtn22WTgWQDkof+uBfKou8qY+yKskm++1/WsuwxoGZYO7kchqKs9Ju775kLeVajXeDewD57Rl8nmdbcpGB5ub2V+ZrhxxPU9cxz4IALg4yt96IJ+qi7ypD/LqlJG4+qDMn6TCFzGTDe7U3qtdfz+MNjcfb7JSz6aONa9Yo4PN9uRTtttPmXBZKr/NTPrxYQ52WESkk2o3VMLeYsMOzFAEtUFkqGrwmvC2Cdvp944OcU0ajhFj93u/TWx/c7rk5wjSNv/H0zhzfOOfN/5Zd2kGtzIOBnAC5W89kE/VRd7UB3l12s3kVQXhK5n+jbVdkqRov+Vtixnn2lMRA9EXN1W0GWt3buTDv6ypXhFyJm2z37HHou3CcHvbXi2PffikNA5cqA18DHM2UUx7Iq+uI6vpX9sjtZSxHiYyWsiL/YaZL8pQQsNPPXFlKp34l2E+lM7Xo33NQkYr9Rr9JXi/izz2NxzYKqtpJ7Sd7jWcy/DUF01/2TtT6S2C/VG3xUi9fUlzAy75OVTaQ1n4r7FDLc4fX5Un6vOK6+2e7z7tA1ldMD11g+fUzXPFUe9DvAkAAC6vLZPHE0NSA1nabznaYqnbqyFmKK3MJXJxM2EIbZ609TZ+822/zf1b0N7O6dJt4CTqTQopIYkK8LYqXtqqAMner6dL5IXnOibd6M3ZqhM/ZLFVX7WtOO7WHennR+qRgP/cwaFdjCLpqPPcbB9ONs1jSa85nfbxvDavi+x7VJpjkWaftfhjSa9RD0bST96/NMfXf40T3tGTLvN90McL+V3v8buO8jfJdeXZ9eXT9eTPdeXNddcV11veaVnzzm9X7ds10XZOvO1y/NjF20dJbarzj6Vrrx463C/zuSLvlact7Kd7vO2WfDzinzMpzTTH8Jwsec2VTaQQXxQnPhRkIC/qLNU9UlNzUfNlP2xg8y16+rfuMQlfri91knzvJjqZutMVR1by5dn7EZ58HZmw7fdOreX7ZMfOuWNRQJrPER+Sker4DuRBlS76ymmr1U/oEbNDMXbbd2SqjhEAAMBPGTy4qt0zl6fEK2xF229n5G6vtuX2Xs85DYbS+kNonfvbfZsuT9r26mjvpqxGpnbhY3gEwSZKt044U0fhy/WXCNTSsl/443pS6vf6h5w7vv58ka0sRiuZdnQhFwyj1YGmCi7FFW+3nR7Ca54EAAD4GQdTs0J+qP2Wp73avr03QbIZSmuCREfubw83+PW28C+1gQk2UQJ/nqbjeiqY0Rc4Q4VE+0aduskBaGnW39Hx7t6XrNTXvtux98Ps/iStHLZ8n4s4XUna7Edk+RyBjMd38KIKNj0nM1IoqgLwkZ9vAQAAv6s9eZSRav1Mn9/tI9al229F2qvtW/Evbi5l+TyVlXMvkVgzT9pnt2nLjX5BFpc+hkcQbKKw5Xgoc8eV10lbBTMLv5DYrSgWDOGM9VLpCcqnFvHJQk/63q1mEyxQ9Hikp8jfH4kvgKP2x9/sF4OuTJ8jkOL46r/DHzYcxCYUPMsxw2gBAMBvsFOz5nNRraCQS7ffirRXg6G0Q7MvkSG0Rp60k7bRo9H206E6Xf2e+5+M0Qs+6vc/7tLH8IhtQSUk8WuSF3zJNkG2SvS+l+3oMQomGydNnDaPRSc1H6QTmTh9OKFZS/OYuT9aRNNPkY56MLo/Jyd/+84eC+Xin0O9Jkmq4xt6PpKM525V0bN/Xj156r3y0mkjv2s7fke/TzUtf5Poz1N315xP+nPU2bXmjf4M16YJ5Z2mP1MW/nFJPgZBu+WgKZKi/Wa2zdEW0w7yKvb8cf4iQKfy9FzaafYnumCQXfAn9Jx5fSiNpDTVg5E007SB4/R2abX0P2qD3PQE14JJoCRNzAvTi6N/CiT4nZWaupbPcQplRTEcv/ohz6qN/Kkm8qW+yLvmyJLXDKMFAAAAAJSOYBMAAAAAUDqG0V4R8gJVxvlZDMevfsizaiN/qol8qS/yrjmy5DVXNgEAAAAApWut1+tCXRC9XtYfeQHQVKq8sX8hK8paAABQFWnbdAyjvSLkBaqM87MYjl/9kGfVRv5UE/lSX+Rdc2TJa4bRAgAAAABKR7AJAAAAACgdwSYAAAAAoHQEmwAAAACA0hFsAgAAAABKR7CJq7cct6TVn8nG3gcAAACqYyOzfvnt1Sq0gRsebC5l3FKZELqNl/YpGJtZP3J8drcGBm8cC6BMlL/1QD5VF3lTH+RVouXYHo+xOkJx/jHrz6rbwjodyNngkYxucrCpT4KhyGJrfidG3xYjkfmQAuDQSB2m/XEyt8+JtO2zzcKxAIqj/K0H8qm6yJv6IK+O2Xyv7V9zGdbwYAzuVEaupvKctOubD3lbqVbj3cA+cE5bJp/q/LjCNmWDg00/U19C58DgwRVH/b/+5joVAFwO5W89kE/VRd7UB3l12khcVx2N+ZNU+CJmssGd2nu16++H0ebm401W6tnUseYVY84mitnMpB8f5mCHRUQ6qXZDJewtNuzADEVQG0SGqgavCW+bsJ1+7+gQ16ThGDF2v/fblNPDeMnPEaRt/o+nceb4xj9v/LPu0gxuZRwMAACAM24mr+I6K5n+jbVdkqRov+Vtixnn2lMRA9EXN1W0GWt3buTDv6ypXhFyJm2z37HHou3CcHtbXzFXj8U+fFIaBy7UBj6GYDPM+xJ1akjvhkGRqbUn8uo6spr+tT1SSxkP5+oLttj14pkvihlBEgwh8cSVqXTiX4b5UDpfj/Y1Cxmt1Gv0l+D9LvLY33Bgq6ymndB2Km1nLsNTXzT9Ze9MpRca0rJdjMyQllLmBlzyc6i0h7LwX2OHWpw/vipP1OcV19s9333aB7K6YHrqBs+pm+eKo96HeBM/ivK3Hsin6iJv6oO8imnL5PHEkNRAlvZbjrZY6vZqiBlKK3OJXNxMGEKbJ229jd98229z/xa0t3O6dBs4iXqTQkpIoiIWW3W6bMVxt559pG4ukRee65h0ozdnq078kP2xc0f6+ZF6JOA/N9o/4FuMIumo8/zg2Kd5LOk1p9P2tio23qpg2NwLM6+L7HtUmmORZp+1+GNJr1EPRtJP3r80x9d/jRPe0ZOOH6Mi9PFCftd9/Opf/ia5vjy7rny6rvy5nry5/rriOss7LWve+e2qfbsm2s6Jt13St9+S2lTnH/Pf71x79dDhfpnPFXmvdGlH98dP93jbLfl4xD9nUpp52sBxWfKaK5vWcjyUuTjivrLYy6H4ojifMokcpIG8qLNU90hNzUXNl/2wgc236OnfusckfLm+pa9+lqV3E82zTlfl5Eq+PHs/wpOvWG9TwO+dWsvpKRTnjkUBaT5HfEhGquM7kAdVuugrp61WP6FHzA7F2G3fkanucgV+COVvPZBP1UXe1Ad5dZw/l3UuT4lX2Iq2387I3V5ty+29nnMaDKX1h9A697f7/M2Ttr06Wu7V7wsfwyMINhU9jHA4V198r8TAocGSJryPwpfrLxGopWW/8Mf1pI6jWs4d3/bk0zy2GK1k2tGFXDCMVgeaKrgUV7zddnoIr3kSuDjK33ogn6qLvKkP8uqMg6lZIT/UfsvTXm3f3psg2QylNUGiI/e3hxv8elv4l9rAjQ82/S++PgH44ufnz9N0XM8s5x0pJNo36tS98Ipr6+/oeHczF8KRbsfeD7P7k7Ry2PJdnQhOV5I2+xFZPkcg4/EdvKiCTc/JjBSK6vx/pIcVP4/ytx7Ip+oib+qDvEqnPXmUkWr9TJ/f7SPWpdtvRdqr7VvxL24uZfk8lZVzL5FYM0/aZ7dpy41+QRaXPoZHNDrY1BNv/S9+dElqZGOGhDiuvKrSc/Cy8AuJ3YpiwRDOWC+VnqB8ahGfLPSk791qNsECRY9HCnN/fyS+AI7aH3+zXwy6Mn2OQIrjq/8Of9hwEJtQ8CzHDKPF5VH+1gP5VF3kTX2QV1nYqVnzuahDFnLp9luR9mowlHZo9iUyhNbIk3bSNno02n46VKer33P/kzFBh8Zxlz6GR2wLKiGJX2InaCfeTk0Eri6972VLXhRH3YLJxkkTp81j0UnNB+lEJk7HJzD70jxm7qvSO5J+inTUg9H9SZHnZ4+FcvHPoV6TJNXxDT0fScZzt6ro2T+vnjz1XnnptJHfdR2/6yt/k+jPU2/XnU/6c9TX9eaN/gzXpRnlnaY/UxZ+2yV5UZqg3XLQFEnRfjPb5miLaefaU8cF+Xx8kZ1UbbUz+xNdMMgu+BN6zrw+lEZSmurBSJp5zkO9XVot/Y/aIDc9wbVgEihJE/PC9OLonwKpeVfhtXyOUygriuH41Q95Vm3kTzWRL/VF3jVHlrxmgSAAAAAAQOkINgEAAAAApWMY7RUhL1BlnJ/FcPzqhzyrNvKnmsiX+iLvmiNLXnNlEwAAAABQutZ6vS7UBdHrZf2RFwBNpcob+xeyoqwFAABVkbZNV3gY7b9//+TPnz/2Hn4TeYEq4/wshuNXP+RZtZE/1US+1Bd51xxZ8pphtAAAAACA0hFsAgAAAABKR7AJAAAAACgdwSYAAAAAoHQEmwAAAACA0hFsAgAAAABKR7AJAAAAACgdwSYAAAAAoHQEmwAAAACA0hFsAgAAAABKR7AJAAAAACgdwSYAAAAAoHQEmwAAAACA0hFsAgAAAABKR7AJAAAAACgdwSYAAAAAoHQEmwAAAACA0hFsAgAAAABKR7AJAAAAACgdwSYAAAAAoHQEmwAAAACA0hFsAgAAAABK11qv11v7dy69Xs/+BQCnqfLG/gVcP+pHAE1DPY+41laxf+fSarWkYBIAGoCyoph///7Jnz9/7D3UAec8gCahzGuOLG0ShtECAAAAAEpHsAkAAAAAKB3BJgAAAACgdASbAAAAAIDSEWwCAAAAAEpHsImLW45b0urPZGPvp5FnGwAArkWV60HqaABpEWw2yGbWN8tSt1p9mR2tIZYyNq9pSf/4iwAAQCEbmfX9+na8tA8BwJUh2Gyklbx9JAeSm9mTzO3fAADgQpbPMl2NZDQSmb8TbQK4TgSbjTMS13VkNX2Ww6ptIx9vK3FcV70KAABcyvJ9rqrkO3m5M9FmQp0MAPVHsNlAN7f34shcDjpSTS+rI/e3N/aBmM1M+naIbXBLGvpj5nIErzk2Nmg5jqSTau5HyvcHAKDaluLHmgORwZ2MVJ38dHLqih1yG6v0DudO7ofmRm9j9Y5p01Dy1NEAkIBgs4nat3LvHA7b8XtZH2XStg+E6YqnM5XeYivbrb0tVPU4jM7t1JXWcD6ShX2N131S9+2Tlpk7OpTda7ZbT1yZSudUZZby/QEAqLzluwovR6JjTRVtir64uXr7KBjQ6WCyI9PeYldPqmpS0XXyi3qXdHLV0QBwBMFmI7Vl8qiH7TztFwrazOQp6GU9oCow8+RCXsJPD15MRbYfkuv31Druw65Sa08+bWUXWMrzdKWSCld8dn9Wb5I8lTTt+wMAUHVBnXa3qwcHfrR5pA5My5OvVbQeN+nKWr5Tp5unjgaA4wg2m8oM29kvFLT5eJOV48pDOJjbOazAApGKbPOt/hLp3SRdGrXsa/QVycgQnfjlz4iU7w8AQNVtPuQtXqfF6uR8OtKNjVoyI5akJ6eq5YhcdTQAHEew2Vh22I65Kuj3ZDr3t5JYH9nK57gMFZk1Cg+H3d0+k4fwXuD9AQD4DaZzV/0fDeiGZiX4UkbqzIe7dP1pLemH0AYy1dEAcALBZoMNHlx/oaCxP3fk8Vgt0r5R4Vy0tzRgek2drnT0Hfu69anLjGleE5f2/QEAqDR/1Xc9LeQgmDNzThIW7zPacqMrwlPMFVNHXC+cbnQ47Nk08tTRAHACwWaTBQsFzVXAFpo7cmggD65+4TC6+utybBb/GT1O7BXR8NVSn79gkL1j+Gmtpn/380U1vQDQ0cUH0r4/AAAVZlZ911VuQo1rhtImd6xqHTNGdr/WwkH9agLFlUw74Sum6haqW8+mkauOBoDjCDYbrS23OtpUEiu+EL3QT7D6664CG65ND2p40Z7BiyeuM5ehfc1T1xNPB4ohOi3PlWiF+NQV7/N40Jj2/QEAqCp/DmWwCm2c32Gros3EobTtyauqX/fB5GH96s/ZjA6Bja4kez6NfHU0ABzTUoXR1v6diy6ECiYBoAEoK4r59++f/Pnzx95DHXDO4yfpnyzpTHsHczSPPQ6UjTKvObK0SbiyCQAAcBXicz79BQBPT5UBgMsh2AQAAKg5f/irE51u0hrK2vVky3wTAL+EYBMAAOAKmPUNtuE5m1v55PdKAPwigk0AAAAAQOla6/W60EzeXu/cjzYBgE+VN/Yv4PpRPwJoGup5xLEa7RUhL1BlnJ/FsBpt/XDOVxv5U03kS32Rd83BarQAAAAAgF9FsAkAAAAAKB3BJgAAAACgdASbAAAAAIDSEWwCAAAAAEpXm2BzOW5Jqz+Tjb3/W/LsR1X2HQBw/fLWOVWuq66lHr3c59jIrF9+2rRfABT1+8HmciytVl9mGUuyzaxvllg+ve1SxuY1LelnfQPUizmPdF6PVa7H+ecB5wCAWstZX+7ZgESVh+PDghJF5Mib04GczSsy6nfRtgAKu4JhtCt5+zhSVM+eZG7/xnXbfAc/IjyXIZUzABxaPst0NZLRSJWU75STv21wpzJiNZXnpKzYfMjbSmR0N7APnNOWyedWtp8T9RfKQtsCKK7mweZIXNdRZfVzQo/TRj5USe24rnoVmsE/H2T+VKDnHwCu0/J9rqMXedFBzvw9od7EjxrcmfZJUuC/+XiTlXo2dayJC6JtARRR2WDTDC8xQxdODyO5ub0XR+ZyUFabHlxH7m9v7AMxm5n0g/TtLeltUu3HbpiFvaWZ35Dy/ZHNzeRVXGcl07/l5IHJf/Xgfti2ugX5G873pDzPc14AQEbp6sul+LGmil5MkDOXp5Mt5+RhnIdDP/dDc6M3PewwbRrKlZaXp/NmIDruPwz8/c5y3TEQiTXPHKOk4xqpu9RtP+QzQ97ENbD9QtsCyK+Swab+Eg7nI1lst7JVN6/7pO7bJ+Pat3KvO5xi0abfg/sok6TxJPqL2plKb+Gnb24LVfUOo2Pv0+yHKSiGsnvNduuJK1PpnPryp3x/5NGWyeOJoUmBLHkwH0rn69G+biEjlXZHF/Dvd5HH/oa2y3VeAEBGqevL5bsKL4MrZX6Qs3r7KFge6YClI9PewpZzW1HFqKL35yUaKJ1wreVlmrwxQ2njHeYJQ2jzHCO9jarmxPX229y//S12da6x7RfaFkBeFQw2/d5Xx33YVVTtyaetwJLYAiA8vGEzkycdayaOP1GVo3lyIS/hpwcv5j32Q3LT7MdSnqcrlVS4Ug0KpDdJnkqa9v2Rmz2W82HShH4tYx44rni7F9qe6ITH9g23POcFAGSVtr4Myrz9lTJ/vmDR8siTr1hQ5AdPa/lOne61lpcp82bwIGaEZijaNENoVR3zsDsg+doa/lSi11Cnu9rm8zO5Ez6VhrdfaFsAuVQv2Nx8q2pKpHeToTQ0Q4L2CwUdFtRhh5VjIFJJptkP+xrdYxUZ0nD0MqyW8v1RyODBNcOrk4eJXTgPcp0XAJBR2voyabGZWL2ZT0e6sUDJjCqSnqSuwq+1vEybNypYuPWHZ9lAxAaJ97fqGSvPMbJ5nqktdRbtF9oWQHY1XyAoYHt/TK+R3/MTKajD7Jf1uAyVpDUKD5fY3Y70Hl7g/ZGgPZFXs3hUwpChH8qDTOcFAFyIv9hMvJE6VE3mkq5GzYe7dP1ho+ErL+k0ubxsh9eeMEGiXm/i8IP/+jGi/ULbAsihesFm+0Z9HUXWGbt/gt6m97E/L+Xx2LfOpp+0+pvpkXW60tF30uxHnn1N+/4orD15ND330+d3+4h16TzIc14AQFapyppgsZn9vMrdzYzpTFhgz2jLjU78FBsY7ecE6lt0iN/ZNK61vMzyuUJrTyyfp7Jy7iUSa+Y5Rme3SZE3cTbNprdfaFsA2VTwymb4KqXPn2Rv7xwTFNZz9cL4Cm4RA3kwEySG0dXBlmPzHqPH4Deq0uyHn9ZBD5eeIH50snba90dxA3kxEyzmpgd/79J5kOe8AICsUtRTZmV2XS0m1IonfnpD65gxsvv1EA7SNo1f1ejuhK+YqluonDubxtWWl1naMsFQ2qF5/nBkVv62RnSbjcz6/d3983kTd+m6sy5oWwBZVHIY7eDFE9eZy9BWXE9dTzz9BT7JFtZKYqUaoifpB6uD7SrH4dr0zoYndafZD52W50q0sn3qinfih5XTvj9KYCfma+G5K5fOgzznBQBkda6eMldUVEiZXC36AZGKNhOH0raDn3uw5dhhHejP2YwO64uujnk+jestL7O0ZfyrZVryyKy8bY3oNh15u98vGJQmb+IuXXfWBm0LILWWqhy29u9c9IleMAmUhLxAlXF+FvPv3z/58+ePvYc6uPZz3v9pjd7BHM1jj1cNZVI1kS/1Rd41R5Y2yZUsEAQAAH5efM6nv0jf6eksAICmINgEAACZ+UP6nOiQwdZQ1q4nW+aEAAAUgk0AAJCLmaO2Dc/Z3Monv8EAALAINgEAAAAApWut1+tCM3l7vaw/1ASgqVR5Y/8Crh/1I4CmoZ5HHKvRXhHyAlXG+VkMq9HWD+d8tZE/1US+1Bd51xysRgsAAAAA+FUEmwAAAACA0hFsAgAAAABKR7AJAAAAACgdwSYAAAAAoHQEm2i85bglrf5MNvY+AADAb6lyu4Q2E7Ii2NSWY7Ncc2u8tA8grc2s7x+7+K2BBdH+WPRldvTDL2Vsj1H/+IsAoFqoJ6urKXkTfM7WWNWkcX7dWp96dSOzvt8W4CuFa9fwYNN+2Ydzex/5jGSx3ZrfVtrdPifSts82z0rePpIrvM3sSTjbANQH9WR1NStvNt9r+9dchnWP0JbPMl2NZDRSn+adaBPXrdHB5mb2V33ZHXE9T1zHPggUMhJXnUyr6XNCz+tGPt5W4riuehUAVB/1ZHU1M2/8OlbmTydGEFXf8n2uPsqdvNyZaDOhvQBcj0YHm+3Jp2y3nzJp7iW4y9vMpB8f2mKHwkQ6JnfDY+wtNgzXzBFQG0SG7QavCW+bsJ1+7+hw36QhODF2v/fbpB/qcnN7L47M5aCz0vRkOnJ/e2MfiDKfMfyesTcMjsHudaHPGh/OHB9KdC5tAEhCPVldTc2bm8mrCq5XMv2bYrpOiro8qFuzti+MM22XZEvxY82ByOBOhc9zeToZOdsr2Eltgsj77YfmRm+6zZM2DSXXZwKOY84mLqs9kVdzpe+v7YVcylgP+Rkt5EWVs5op4IcSGorriStT6cQLuPlQOl+P9jULGa3Ua3RB+H4XeexvrNBeTTuh7XQP8FyGpwpPXdB2ptJbBPujbgtVHQxTzgdp38q97niNRZt+T+ZjYsNAF/hPXW//fp4rjvq8BzGhemwoC/81dqiyPn5qd8X17LbqM96/Bcc7Q9oAAFReWyaPI125y/OpeixLXZ6jfZG67RK3fFfh5Uh0rKmiTdEXN1dvHwUDOh1MdmTas+0DdVMfVdHTnF7Uu6ST+zMBJxBsogQqeAv3gsUWyGlPHlVx5/dCzsZDU8gugkhTBZ/P05WKPcOFYVCRvElk6qPjirfbzi+gkx47KLQjrzmS9o4qsJ+iwbAxeDEFd/Lw2Dj7HuFhPpuZmGT92uXA4GUrn+Eo9EjAaiqOyI4FQ3NfQ0Gsev/PfW93+rQBAKgBWyfPh8dGKmWsyzO3LzK0XSKC/brbbTfwEz6xTRqefK2ibQyTrqzlO3W6eT8TcBrBJkoQXyAoPqxnIC9+6S5TU/aHCrLNtyoKdYURDlbVrcwFD3o3qrgM6XTFUcHvl2fvRxwW2IFMBbcZGrNfKGjz8SYrVXE9HCZr2SEuu2PQEVXmHwpVUMbmQ1SsqT5i5BPGpEwbAICaGDy4ZspK8hDUkuryY/K2XWydHdmvWHshn450Y53IZjSV9ORk8yDsJ9pjaCSCTfy4dUIJPwoPczkatP4AW9gel7bgtr2gpvfU7y107m+jQe+ODgZVACiueLvPXtaCD5dMGwCAX3IwTSektLr8tKxtF9PxrP6PBnR6xFfQXihoPtylO5xnG0IbqEx7DFeDYBM/wJ+n6bieHb4SqhjaN6rITw5AS7P+ViFXiPelCntHuh17P8zuT9IQU9NL6HQlabMkQa/r+9ifn/F4vPbxezofc/xczLnjVyRtAAAqbDdN5/ndPmKVWJcnytV28ae9qGjuMJjTjSPdXkiMNttyo9/sFFPX65WJw+lGh8OeTeMn2mNoJIJNXNxSz9N0XHlVwdbgZeFXDLtV5AbykNQzqSf2lzUhXU/0362GEyxQlLxQT7A/uncwsoCO2h9/swxBWzA3cq43jA1/DUuoFJfjtENdk46fvppp580WShsAgCqz03RUPatq2pAS6/JEOdouZkV63RxIaA2YobTRujqsY8bI7teB0Av/RUa3mrpeta064Sum6hbal7Np5PlMQAqNDjb3y1zbxvdu+EGKn8ZASHyBIHULCiZTsDvivgYF+37+ZrCqm16+3XMlWkg+dcWzq60WNlqI132yafuB737S/yGznLzax8gwl+Ha9Bie2CxBW251tKkkVi476pjYFWKD99MrzpqOzhQOj19H3u6DBYOKpQ2g2agnq4u8seyiP1p4/YLy6vJkWdsu/hzKYBXaOLso0ZHf3GwHP/di30uvMO/pYHrHn7MZHQIbXUn2fBrZPxOQRkudkFv7dy76RCyYBEpCXhwyPXf6p0LKqFlQCOdnMf/+/ZM/f/7Ye6gDzvlqI3+qiXzJTnc8dKa9gzmaxx6/FPKuObK0SRhGCwAAANRafM6nvzjhyWk8wA8g2AQAAABqyh/+6kSHDLeGsnY9Rnbh1zGM9oqQF6gyzs9iGEZbP5zz1Ub+VBP5Ul/kXXMwjBYAAAAA8Kta6/W6UBdEr3fuh3sAwKfKG/sXcP2oHwE0DfU84hhGe0XIC1QZ52cxDKOtH875aiN/qol8qS/yrjkYRgsAAAAA+FUEmwAAAACA0hFsAgAAAABKR7AJAAAAACgdwSYAAAAAoHQEm2i85bglrf5MNvY+AADAb6lyu4Q2E7JqeLC5lHFLfWlCt/HSPoVUNrN+5Pjtbg0siPbHoi+zox9+f871j78IACqCerK6GpY3y7H9nGP1yeP8Y1GfenUjsz7fJzRDg4NN/UUfiiy25jeB9G0xEpkP+eJnN1KHcX8cze1zIm37bPOs5O0jucLbzJ5kbv8GgGqjnqyu5uXN5ntt/5rLsO4fcvks09VIRjrP3vky4bo1ONhsy+RzKy8De1cZPLjiqP/X31xxQl4jcV1HVtPnhJ7XjXy8rcRxXfUqAKg66snqamre+HWszJ9OjCCqvuX7XH2UO3m5M9FmQnsBuB7M2cRlbWbSjw9tsUNhIh2Tu+Ex9hYbhmvmCKgNIsN2g9eEt03YTr93dLhv0hCcGLvf+23S9xbf3N6rCn8uB52VpifTkfvbG/tAlPmM4feMvWFwDHavC33W+HDm+FCic2kDAFAHN5NXcZ2VTP+mmK6Toi4P6tas7QvjTNsl2VL8WHMgMrhT4fNcnk5GznbIbVKbIPJ++6G50Ztu86RNQ8n1mYDjCDbDvC9Zqf96N80dAFq69kRezZW+v7YXcinjoS5lF7seWVPAm9FAwXAgT1yZSidewM2H0vl6tK9ZyGilXqMLwve7yGN/Y4X2atoJbafSduYyPFV46oK2M5VeaHjSdqGqg2HK+SDtW7nXHa+xaNPvyXyUScLppQv8p663fz/PFUd93oOYUD02lIX/GjtUWR8/tbvienZb9Rnv34LjnSFtADiHerK6GpM3bZk8jnTlLs+n6rEsdXmO9kXqtkvc8l2FlyPRsaaKNkVf3Fy9fRQM6HQw2ZFpz7YP1E0Pq9ZXghfbF/Uu6eT+TMAp6mQqpIQkKmKxVd/LrTju1rOP1M1v5IXnOuZ9ozdnqwKfkP2xdUf6+ZF6JOA/N9o/4FuMIumoQvMgb9I8lvSa02l7WxUbb1UwbO6FmddF9j3KPxb2+dh7qCe3Kv60n9P/zE70IMUc7kfy+/uvO51W3PHPeEm/cX5ek/V6bf9CXVzfOV//ejLsuvLnevLmWL5E6lglWifG69X0dXm0DeA7/1i6tsuhhP1K2Cb6Xsmf5ez+RNLNmYZ2ss0URT3fHFnaJFzZtJbjoczFEfe1yQvb5BVfIOgzdvVuIC+qdNK9kFNzUTPUy7b5Fj3lX/c0RoZt6KufZendRPO001U5vZIvz96P8ORrpfbR73KMGOjuR7W3qabDmKEx+4WCNh9vsnJceTjavRgf/tKRqe6ijhvdRXsoNx/ypl53uic7ZdoAcAL1ZHU1MW/8OarHhqCWVJcfk7ftYuvsyH7F2gv5dKQbG1FlRlNJT1Jf6P6J9hgaiWBT0cMMh3NVSHvxIAmXkLR4wSg8zOVo0PoDbGF7XNqC2w6NMQsFLeVZRXfO/e2RRoAd/iKueLvProf72qcLuWTaAJqCerK6Gps3B9N0Qkqry0/L2nYxHc/q/2hApzsKgvZCQfPhLt3hPNsQ2kBl2mO4Go0PNv1CWn+5+CJdjj9P03E9M4cgUjG0b1SRf+HV89bf0bkGZl6LI92OvR9m9ydpKXLTS+h0JWmzJEGv6/vYn5/xeLz28Xs6H3P0SJ87fkXSBgCFerK6mp437cmjuSo4fX63j1gl1uWJcrVd/BXpVWYdBnO6caTbC4nRZltu9JudYup63eEQTjccaKZI4yfaY2ikRgebeiK0X0hHlw9HuczwHseVV1UTDl4WfsWwW0VuIA9JPZN6Yn9ZE9L1RP/dajjBAkXJC/UE+6N7ByML6Kj98TfLELQFCwXN9Yax4a9hCZXicpx2qGvS8dNXM/v+/UJpA2g66snqIm80O01H1bPqUISUWJcnytF2MSvS6+ZAQmaZobTRujqsY8bI7n/uJehk2DF1vWpbdcJXTNUttC9n08jzmYAUGhxs+kMbtYPx6S3bUEdKcxlGjp+6BQWTKdjD80j28zeDVd3ak0/xXIkWkk9d8exqq4WNFuJ1n2zafuDrnaiZ9f7oXsbIeTFcmx7DbBV6W251tKkkVi476pjYFWKD99MrzpqOzhQOj19H3u5fbTBdLG0ATUY9WV3kzc7gZVenhdcvKK8uT5a17eLPoQxWoY3zp96oaFPl7KF28HMv9r30CvOeDqZ3/Dmb0SGw0ZVkz6eR/TMBabTUCalXj8pNn4gFk0BJyItDpudO/1QIXfK/jvOzmH///smfP3/sPdQB53y1kT/VRL5kp69yd6a9gzmaxx6/FPKuObK0SVggCAAAAKi1+JxPe/X71DQe4AcQbAIAAAA15Q9/dWJDqoeydj1GduHXMYz2ipAXqDLOz2IYRls/nPPVRv5UE/lSX+RdczCMFgAAAADwq1rr9bpQF0Svd+6HewDAp8ob+xdw/agfATQN9TziCg+jZWhXdZAXqDLOz2I4fvVDnlUb+VNN5Et9kXfNkSWvGUYLAAAAACgdwSYAAAAAoHQEmwAAAACA0hFsAgAAAABKR7AJAAAAACgdwSYAAAAAoHQEmwAAAACA0hFsAgAAAABKR7AJAAAAACgdwSYAAAAAoHQEmwAAAACA0hFsAgAAAABKR7AJAAAAACgdwSYAAAAAoHQEmwAAAACA0hFsAgAAAABKR7AJAAAAACgdwSYAAAAAoHQEmwAAAACA0hFsAgAAAABKR7AJAAAAACgdwSYAAAAAoHSt9Xq9tX/n0uv17F8AcJoqb+xfwPWjfgTQNNTziGttFft3Lq1WSwomAaABKCuK+ffvn/z588feQx1wzgNoEsq85sjSJmEYLQAAAACgdASbAAAAAIDSEWwCAAAAAEpHsAkAAAAAKB3BJgAAAACgdASbAAAAFbQct6TVn8nG3NvIrB++DwDVR7DZcJtZ3yxV3Wr1ZXa09lrK2LymJf3jLwIAAFlsZtK39Wtwo54FcE0INmGt5O0juYLbzJ5kbv8GAADFmauWnan0Flvz24T+zZP7t86RgLMtk0/1ms+J+qtky/GZTmcAyIdgE8pIXNeR1fRZlvaRvY18vK3EcV31KgAAUJgK7oZzVfuqQPNlYB8z/IDyc1J6OAkAv4JgE8bN7b04Mpf3eLS5fJbpypH72xv7QJTpmQ0PARpHEzDPq8d2rwvNNdkP4fVv8Z7cc2kDAFA/G5k9qUjTceUhEmieZ+rF+JxNc1UyVFfGng/q4UidG3qNeV5HvrKSacd/PlIfn0kfAE4h2ISvfSv3jsg8Fm0u33XX66MkdbLqCuqp6+2H/3iuOPOhHMSE6rGhLPzX2OE/utLrTEVcz25rhg793Q3hSZ02AAC14snXSv3Xuyk8HNYEkEORRVBXqrrUlal04gGhqj87X4/2NQsZraby11a4gxf12EKPXXJ2dXJwZTV1+gBwBMEmrLZMHlVlM3/az9nYzER3vo7ukrtedQUVGepzJGDVw3QXkXFCwdDc11AQq4cOfe7up08bAID6cbod+1deS3mermS0eJF9DWvr8tWbRJZhGC1ku6uHB3JnXvJxJmDMkD4AHEGwib3BnQoL9wsFbT7eZHVymI9dhn03vKYjql46NLoLVVTK5kNUrCm9m1AweSBl2gAA1NDqy7N/5bT5lrX6bz4M15XqZobEluDS6QNoBIJNhNjeTrNQkN+j6dzfHhnmo4NBFQCKK154eI1jny7kkmkDAPCbOtLV9dn6+8yVxXT0IkN+PRm+7UcKFXXp9AFcN4JNRAweXH+hoPG7+nckj8dqE3t1cvSYYwn29o301H/r7yPVbJG0AQCotLbc6nkhq6k8F5kZcq4uLerS6QNoBIJNRAVzI+dmsmZ0+GuYrYTCcyiX47RDXQfyYH5qZb8gkH810/7GV6G0AQCotvbk1YzW0UNU4wvf6QXykn9nMy6pLlX06rFZF/DpdEWlJNGRvSWmD6CxCDYRY3tclWMLA/kG8mJXiA3mcegVZ82Cdim0J5+iNt8ts67nZL7dBwsGFUsbAIBq839P01PBXHxOpF6JPe3vbB7Wper21BXPrvyeWnsiZo1Auy9BAFxa+gAaq7XVg+8L0AVPwSQANABlRTH//v2TP3/+2HuoA855AE1CmdccWdokXNkEAAAAAJSOYBMAAAAAUDqCTQAAAABA6Qg2AQAAAACla63X60IzeXs9/SMVAHCeKm/sX8D1o34E0DTU84hjNdorQl6gyjg/i2E12vrhnK828qeayJf6Iu+ag9VoAQAAAAC/imATAAAAAFA6gk0AAAAAQOkINgEAAAAApSPYBAAAAACUrtbB5nLcklZ/Jht7HwAA5K8fo9ttZNanni1TOflSLbTFAJxSzWBzOZZWqy+zjCXXZtY3yy6f3nYpY/OalvSzvgGqy5wzOl/HKofj/DwnvwHUXs76cWczk76tA4MbZWMJiuZLENir/BgfVmL4LbQtgMKudBjtSt4+kr/8m9mTzO3fuB6b7+BHhOcypKYGgAPmClRnKr3F1vwWnn/z5P6tc6TB3JbJp3rN50T9VbLCwdmVWT7LdDWS0UjVYu/UYVVB2wIo7gqDzZG4riOr6XNCL9RGPt5W4riuehWuj5/3Mn+iAQMAYSq4G85VKakCzZeBfczwA8rPSenhJDJYvuvMuZOXOxNtJrRf8HtoWwBF1CrYNL2ydthP60QP083tvTgyl4POQdNz6Mj97Y19ICqSfsJ7mOfVY7vXheYo7Ifw+rd4L/G5tFGOm8mruM5Kpn9TzB9JGE4Wz5YgzyP5G+T7bnhN6LGw8PPHXgMAJYjUMQf1y0ZmTyqYcVx5iASa55l042XXmbLtZLkZPK8jX1Fldcd/PlJnXlHZeTpfAkvxY02VOYM7FdrM5elkVGOH3MbSO8yr/dDc6E0PCU2bhkJdRtsCKKA2wab+Yg7nI1nYoT9e98n00iZq38q97oSKRZt+z+GjJHXg6vSfut5+aJHnijMfHs6dUI8NZeG/xg4t0oVFZyrienZbMyzp764HLHXaKEFbJo8j1YaZyvOp46sL6/hwsoWq4ocJ8y9UXnW+Hu3rFjJSaXd0Af9+F3nsb2g7U4EMZXe+6nPCFbUdlQKAkp2vHz35Wqn/ejeFh8OmLtsSys2gjBy8qMdUeaui3129GVxZvaayM3W7ZfmuwsuR6FhTHR3RFzdXbx8FP68OJjsy7dn2irqZQ67eZ7F9Ue+SDnVZgLYFkFdNgk2/189xH3YFZHvyaQvOJLZQCA952MxEd+yansMEuvKLDCM6ErCagjoyBikYmvsaCmL1sKTP3f30aaMUgxdzbsyHSRP6NdvLP1pEh5PZ7Q6GYDuueLsX+g2BpMf2jYOlPE9XKvlwhR5UVG9yZDoxAOSQvn50uh37V14ZyjZVvm6PlpHHXFPZmTZfgvrobve6gX+wCn5ev4Mh3OYx6cpavlOnS10WQdsCyKUewebmWxWPulM2FLCdY4ai7BcK2ny8yerkECI7pGQ3NKEj6jt9KFQhGJsPUbHmmX1LmTZKM3hwzVDq5KFIh5VwIHtlnMCer7onc5/n6nb0UjwA5JShflx9efavnC5dtl1T2Zk2X2wbIlIfxdov+XSkG+vUNqO7pCepm1LUZQdoWwDZXeECQQHbI2R6kvzeIOf+VpLLWB0MqgBQXPHCQxNUQV3cJdPGUe2JvJqFovbDmXdsgX1chsr4BL0Qh5/f4dv+ijcA/Aw/8JD1t71CUsyly7YmlZ2mI1z9Hw0ghiqcSbgSlsd8uEvXH9IbviqWDnVZCG0LILN6BJvtG/UV1fVktmoy6IF6H/vzIR6PfRODnsXHHMu7n9u3ImmjkPbk0fQOT5/f7SOWzbOkYcym59fpqqZZATnPVwDILFV505ZbPXfj3Hyzcy5dtl1T2Znqs/jTcFT0cBg8mPG2CQsdGm250YmfYtoe+zmx/i06/PJsGtRliWhbANnU5Mpm+Cqlz594b+8cE8yNnKsXxoe/hiUUEMtx2qGuA3k46OXSVzPt74cVShvFDOTFTLCYm17iPT/PdI9vZJGmpf1pgMIdA0nnhKIXDmASP4BSpasf22Y1TV3sJa+Mmfw7m3Ellm2drqiUJDqy95rKzhT5YlbI182ThNaJGUobbTuEdcwY2f26FAdpm7bHfrXf3S10HM+mQV12BG0LIIvaDKMdvOihp3MZ2gJTr+7q6S/1SbY3V0kszHdUwWFXiA0KZL3irOlYTEFP+lebhwr1jrzdBwsGFUsbBdmJ+Vp47ozOs2CFuCBfWsO16QWOTOzP6fCcULenrniX+HF0AI2Wrn5sm9/T1I/H53zp16f9nc3Syrb2RPS6JsG+BI3zayo7z+WLP4cyWIU2zg9WVbSZOJTW7zzYB5OHee4PnY4OuVT7E1q59Hwa15UfpaJtAaTWUgXQ1v6diz7RCyaBkpAXqDLOz2L+/fsnf/78sfdQB5zz1XbN+aN/IqMz7R3M0Tz2eJXwvakv8q45srRJrniBIAAAgKaKz/n0F0s8Oa0IAEpGsAkAAHBF/OGW8SHTQ1m7Xuj3TwHg8gg2AQAAroyZP7gNz9ncpp6bCwBlIdgEAAAAAJSutV6vC83k7fX0D3sAwHmqvLF/AdeP+hFA01DPI47VaK8IeYEq4/wshtVo64dzvtrIn2oiX+qLvGsOVqMFAAAAAPwqgk0AAAAAQOkINgEAAAAApSPYBAAAAACUjmATAAAAAFA6gk003nLcklZ/Jht7HwAA4DdF2yYbmfVpq6CeCDa15dgs19waL+0DSGsz6/vHLn5rYIG4PxZ9mR398EsZ22PUP/4iAKgW6snqalLeBJ+1NVa1aZxfv9ambt3MpG8+y/5GuwDXqOHBpu0pGs7tfeQzksV2a35baXf7nEjbPts8K3n7SK4wNrMn4WwDUB/Uk9XVvLzZfK/tX3MZ1ji4NlctO1PpLcJtJ0/u3zpHAs62TD4v1LYyAfypTnKgmEYHm5vZX5muHHE9T1zHPggUMhJXnUyr6XNCr+tGPt5W4riuehUAVB/1ZHU1N2/8elbmT/UMkFRwp/sHRirQfBnYxww/oPycNLerHtep0cFme/Ip2+2n8L2+IDtMJNJTZ4fBRDold0Nj7C02DNf0AqoNIsN2g9eEt03YTr93dLhv0vCbmIThLWk7UW9u78WRubzHX798Ng2D+9sb+0CU+Yzh94y9YXAMdq8Lfdb4cOZ4z+i5tAEgCfVkdTU5b24mryrAXsn0b4opOynq86B+zdrGMM60X6I2MntSkabjykMk0DzP7GM87SJtp+B5c2VcHcuO/3xSey1pWyAt5mzistoTeTVX+v7aHsiljP0uvV2PnikEhxIaiuuJK1PpxAu1+VA6X4/2NQsZrdRrdOH3fhd57G8s0FpNO6HtdA/wXIanCkxduMaHtyxG6u1Tzqdo38q97nSNRZvLd/25HxMbBrrAf+p6+/fzXHHU5z2ICdVjQ1n4r7HDafTxU7srrme3NUNxguOdIW0AAGqhLZPHka7g5flUXZalPs/Rxkjdftnx5Gul/uvdFB4OW6TtFHyGwYt6TB0PFf3u2hDBldXsnw04Qp1AhZSQRAV4WxUPbfWYhjr7jbzwXMe8b/TmbFWhFbLYqqJsK467dUf6+ZF6JOA/d3DoF6NIOqosNNuHk03zWNJrTqd9/Fwwr4vse5R/LOzzsfdQT25V/Gk/p/+ZnehBijncj+T39193Oq243znff+P8vCbr9dr+hbq4rnP+OurJsOvJn+vKm1P5EqlnlWi9GK9bjx+XeH0abQf4zj+Wrv0Slab+98XfP897m21iLzr4XIn7m+ezUc83SZY2CVc2UYL4AkHxYT0DeVGlm+6BnJqLmi/qEWvzLXq6v+5ljAzVKHPBg3gPYqcrjqzky7P3I/xex9Hd4fiWwZ36DGpvv9N06Q3u1FHZLxS0+XiT1clhM3ahh90x6MhU937Gje72x07bfMibel3v5lQfacq0AQCokcGDa6atPCWOOiqpPj+mQPtlldwASe/SbaefaJuhMQg28ePWCaX7KLIi27Gg9QfYAva4npyM63YGousyf6GgpTyr6M65vz0ybEYHgyoAFFe83WfXw33t04VcMm0AAH7RwVSdkNLq89OytV860tX17/q7lKGol247VaZthloj2MQP8OdpOq4n/gXOUKXQvlHFfXIAWpp4oe59iQr9pNux98Ps/sTnW2pmzqXTVVVFOkGP6/v4Xf07ksdjpbO9Ojl6zLGk+bnjVyRtAAAqrj15NCOJps/v9hGrxPo8Ua72S1tu9aIO5+aannPpttOl00ejEGzi4pbjocwdV15VsDV4WfiVwm4FuYE8JPVK6kn9ZU1C15P8d6vhBAsUJS/UE+yPnlAfWUBH7Y+/WYagLVgoaK43jA1/DUuoEJfjtENdk46fvpppfzOrUNoAAFSdnaqj6lpV24aUWJ8nytd+aZuVdPVuJa+Km2ohwpzvnShxalGJ6aPxGh1smpW2zDh02/hWBZJ/P8VPYyBkLsPwmH59CwojU6g74r4Ghfp+/mawGppevt1zZbfstrk9dcUr68eLRwvxuk82bT/w9aI/bhVhlpNX+xiZqzBcm5XaTmyWwPZgKklzRvbUMbErxAbvp1ec1YcpjcPj15G3+1cbTBdLG0CzUU9WF3kTMnjZ1WvhNQzKq8+T5Wu/+L+n6algLj4nUq8cn/Z3NktrO7Unohf2DfYlCIBLSx+N19rqAdgF6JOvYBIoCXlxSPcSmp8KKaNWQSGcn8X8+/dP/vz5Y++hDjjnq438qSbypb7Iu+bI0iZhGC0AAAAAoHQEmwAAAACA0hFs4qoNXrYMoQUAAAB+AcEmAAAAAKB0rfV6XWgmb6+nf1gBAM5T5Y39C7h+1I8AmoZ6HnGsRntFyAtUGednMaxGWz+c89VG/lQT+VJf5F1zsBotAAAAAOBXEWwCAAAAAEpHsAkAAAAAKB3BJgAAAACgdASbAAAAAIDSEWyi8ZbjlrT6M9nY+wAAANWzkVmfNgvqpeHB5lLGLfWlDd3GS/sUUtnM+pHjt7s1sCDcH4u+zI5++P051z/+IgCoCOrJyluO/by55owJPmNrrM7IOP8crU2duplJ336Xgltk381nPdWOAOqlwcGm7h0aiiy25jeB9G0xEpkPqUizG6nDuD+O5vY5kbZ9tnlW8vaRXEtsZk8yt38DQLVRT1abvco1vP5aZfO9tn/NZVjjk8+MpOpMpRf6Tm23nty/dVIGy22ZfKptLtHGIsjFhTQ42PS/sC8De1cZPLjiqP/X33zTkNdIXNeR1fQ5ofd1Ix9vK3FcV70KAKqOerLKNrO/Ml054nqeqGqnAfz6VeZP9QyIVDCn+wVGKtAMf6eC79nnpLld9LhuzNnEZdnhIodDRGI947shMvYWG4ZregPVBpFhu8FrwtsmbKffOzrcN2kYTkzCMJe0nak3t/eqMTaX9/jrl8+mYXB/e2MfiDKfMfyesTcMjsHudaHPGh/OHO8hPZc2AKBe2pNP2W4/pUkxys3kVQXWK5n+TTFVJ0U9HtSrWdsWxpl2S9RGZk8q0nRceYgEmtmZfY6/V5E2VPC8uUKujm3Hfz6p3Za0LXAOwWaY96W+ZiK9G3qXStOeyKu50vfX9kQuZex37e169kzhZ0Zq7YeUuDKVTrwwmw+l8/VoX7OQ0Uq9Rhd673eRx/7GAq3VtBPaTvcAz2V4qqDUhWp8mMtiZIaOpRrm0r6Ve935Gos2l+/6cz8mNgx0Qf/U9fbv57niqM97EBOqx4ay8F9jh9Ho46d2V1zPbmuG5ATHO0PaAHAO9SR+VVsmjyNdscvzqTosSz2eo22Rut2y48mX/8Ux9XaZirShgs80eFGP6THyoq+U++kEV1qzf1YgRp04hZSQREUstuprthXH3Xr2kbr5jbzwXMe8b/TmbFVhFbI/tu5IPz9SjwT850b7B3yLUSQdVQYe5E2ax5Jeczptb6ti460e5xJnXhfZ9yj/WNjnY++hntyq+NN+Tv8zO9GDFHO4H8nv77/udFpxxz/jJf3G+XlN1uu1/Qt1cX3nfP3rybDryZ/fKdMvJSlfIvWrEq0P43Vq+no8Wv/7zj+Wrt0Slabet06mk29fzDaxFx18zsT3zfZZqeebI0ubhCub1nI8lLnu0Xlt8sI2ecUXCIoP6xnIiyrVdE/k1FzUfFGPWJtv0dP+dW9jZIhGmQsexHsSO12V0yv58uz9CL/3cXR3OM5lcKc+g9rbVFOVBnfqqOwXCtp8vMnq5PAZu9DD7hh0ZKp7QeNGd/tjp20+5E297vRVhpRpA8AJ1JOoCn/u8FyeEkcblVSPH1Og3bJKbnjkd+k21E+00XD1CDYVPcxwONdDB5o19+G3JC0sMYqszHYsaP0BtmA9rifpRo8NRNdp/kJBS3lW0Z1zf3ukgaaDQRUAiive7rPr4b726UIumTaApqCeRKUcTNEJKa0ePy1bu6UjXV3vrr8vMvT00m2oyrTRUEuNDzb9ClR/kfjSXI4/T9NxPbNsfqRyaN+oYv/CKxvGC3cz58iRbsfeD7P7E59vqZk5l05XVRnpBD2v7+N39e9IHo+dYPbq5Ogxx9WCc8evSNoAoFBPoorak0czgmj6/G4fsUqsxxPlare05VYv5nBurmlWl25DXTp9NEKjg0096dmvQOPLUKNMZuiV48qraqUMXhZ+5bBbSW4gD0m9k3pyf1mTz/Vk/91qOMECRckL9QT7oyfSRxbQUfvjb5YhaAsWCprrDWPDX8MSKsblOO1Q16Tjp69m2t/KKpQ2gKajnkR12Sk6qo5Vp2hIifV4onztlrZZSVfvVvKquKkWIDxQYhsqcYpRiemjsRocbPpDG7WDsej8qG1GcxlGjp+6BYWQKdzDc3z28zeDVdD08u2eK7vlts3tqSteWT9aPFqI132yafuBr3ei1WSWk1f7GDkvhmuzQlu2xpbtyVSS5o7sqWNiV4gN3k+vOKsPUxqHx68jb/evNpguljaAJqOerDKzSqjJC9uBuCvnU/y817UYvOzqs/DaBeXV48nytVv839P0VPAW/z7pFeOjv7O5/wmS4HYsGC2tDdWeiF7oN9i3ICAuLX00VmurB14XoE+6gkmgJOTFITP8S/9UCF3yv47zs5h///7Jnz9/7D3UAed8tZE/1US+1Bd51xxZ2iQsEAQAAAAAKB3BJgAAAACgdASbuGqDly1DaAEAAIBfQLAJAAAAAChda71eF5rJ2+vpH1YAgPNUeWP/Aq4f9SOApqGeR1zh1WhZIbE6yAtUGednMRy/+iHPqo38qSbypb7Iu+bIktcMowUAAAAAlI5gEwAAAABQOoJNAAAAAEDpCDYBAAAAAKUj2AQAAAAAlI5gEwAAAABQOoJNAAAAAEDpCDYBAAAAAKUj2AQAAAAAlI5gEwAAAABQOoJNAAAAAEDpCDYBAAAAAKUj2AQAAAAAlI5gEwAAAABQOoJNAAAAAEDpCDYBAAAAACUT+R8JZoa8yISvHgAAAABJRU5ErkJggg==;" vertex="1" parent="1">
          <mxGeometry x="870" y="870" width="688.43" height="270" as="geometry" />
        </mxCell>
      </root>
    </mxGraphModel>
  </diagram>
  <diagram id="KoUexoSvWND89SvAtmVY" name="Exercício 1.3">
    <mxGraphModel dx="1909" dy="2109" grid="1" gridSize="10" guides="1" tooltips="1" connect="1" arrows="1" fold="1" page="1" pageScale="1" pageWidth="827" pageHeight="1169" math="0" shadow="0">
      <root>
        <mxCell id="0" />
        <mxCell id="1" parent="0" />
        <mxCell id="lJlTZO6aMbyamImWnHVL-1" value="Uma clínica veterinária deseja cadastrar os pets que são atendidos em seu local.&#xa;&#xa;&#xa;- a clínica contém um endereço;&#xa;- os pets deverão ter nome, data de nascimento, tipo de pet;&#xa;- os pets deverão ter raça;&#xa;- os pets deverão ter donos;&#xa;- a clínica deseja cadastrar seus veterinários e todo atendimento de pet será feito por um veterinário;" style="text;whiteSpace=wrap;" parent="1" vertex="1">
          <mxGeometry x="20" y="-1150" width="560" height="150" as="geometry" />
        </mxCell>
        <mxCell id="EUrLBF1vASvb_XzxsAEc-17" style="edgeStyle=orthogonalEdgeStyle;rounded=0;orthogonalLoop=1;jettySize=auto;html=1;endArrow=none;endFill=0;" parent="1" source="lJlTZO6aMbyamImWnHVL-3" target="EUrLBF1vASvb_XzxsAEc-16" edge="1">
          <mxGeometry relative="1" as="geometry" />
        </mxCell>
        <mxCell id="lJlTZO6aMbyamImWnHVL-3" value="Clinica" style="whiteSpace=wrap;html=1;" parent="1" vertex="1">
          <mxGeometry x="696" y="-940" width="120" height="60" as="geometry" />
        </mxCell>
        <mxCell id="EUrLBF1vASvb_XzxsAEc-34" style="edgeStyle=orthogonalEdgeStyle;rounded=0;orthogonalLoop=1;jettySize=auto;html=1;entryX=0.5;entryY=0;entryDx=0;entryDy=0;endArrow=none;endFill=0;" parent="1" source="lJlTZO6aMbyamImWnHVL-4" target="EUrLBF1vASvb_XzxsAEc-32" edge="1">
          <mxGeometry relative="1" as="geometry" />
        </mxCell>
        <mxCell id="EUrLBF1vASvb_XzxsAEc-44" style="edgeStyle=orthogonalEdgeStyle;rounded=0;orthogonalLoop=1;jettySize=auto;html=1;entryX=1;entryY=0.5;entryDx=0;entryDy=0;endArrow=none;endFill=0;" parent="1" source="lJlTZO6aMbyamImWnHVL-4" target="EUrLBF1vASvb_XzxsAEc-33" edge="1">
          <mxGeometry relative="1" as="geometry" />
        </mxCell>
        <mxCell id="lJlTZO6aMbyamImWnHVL-4" value="Pet" style="whiteSpace=wrap;html=1;" parent="1" vertex="1">
          <mxGeometry x="372" y="-440" width="120" height="60" as="geometry" />
        </mxCell>
        <mxCell id="EUrLBF1vASvb_XzxsAEc-20" style="edgeStyle=orthogonalEdgeStyle;rounded=0;orthogonalLoop=1;jettySize=auto;html=1;endArrow=none;endFill=0;" parent="1" source="lJlTZO6aMbyamImWnHVL-5" target="EUrLBF1vASvb_XzxsAEc-19" edge="1">
          <mxGeometry relative="1" as="geometry" />
        </mxCell>
        <mxCell id="lJlTZO6aMbyamImWnHVL-5" value="Veterinário&amp;nbsp;" style="whiteSpace=wrap;html=1;" parent="1" vertex="1">
          <mxGeometry x="696" y="-695" width="120" height="60" as="geometry" />
        </mxCell>
        <mxCell id="EUrLBF1vASvb_XzxsAEc-11" style="edgeStyle=orthogonalEdgeStyle;rounded=0;orthogonalLoop=1;jettySize=auto;html=1;entryX=0;entryY=0.5;entryDx=0;entryDy=0;endArrow=none;endFill=0;" parent="1" source="EUrLBF1vASvb_XzxsAEc-2" target="lJlTZO6aMbyamImWnHVL-3" edge="1">
          <mxGeometry relative="1" as="geometry" />
        </mxCell>
        <mxCell id="EUrLBF1vASvb_XzxsAEc-2" value="Endereço" style="ellipse;whiteSpace=wrap;html=1;" parent="1" vertex="1">
          <mxGeometry x="562" y="-925" width="80" height="30" as="geometry" />
        </mxCell>
        <mxCell id="EUrLBF1vASvb_XzxsAEc-24" style="edgeStyle=orthogonalEdgeStyle;rounded=0;orthogonalLoop=1;jettySize=auto;html=1;endArrow=none;endFill=0;" parent="1" source="EUrLBF1vASvb_XzxsAEc-3" target="EUrLBF1vASvb_XzxsAEc-4" edge="1">
          <mxGeometry relative="1" as="geometry" />
        </mxCell>
        <mxCell id="EUrLBF1vASvb_XzxsAEc-3" value="Nome" style="ellipse;whiteSpace=wrap;html=1;" parent="1" vertex="1">
          <mxGeometry x="392" y="-560" width="80" height="30" as="geometry" />
        </mxCell>
        <mxCell id="EUrLBF1vASvb_XzxsAEc-25" style="edgeStyle=orthogonalEdgeStyle;rounded=0;orthogonalLoop=1;jettySize=auto;html=1;endArrow=none;endFill=0;" parent="1" source="EUrLBF1vASvb_XzxsAEc-4" target="lJlTZO6aMbyamImWnHVL-4" edge="1">
          <mxGeometry relative="1" as="geometry" />
        </mxCell>
        <mxCell id="EUrLBF1vASvb_XzxsAEc-4" value="Data de nascimento" style="ellipse;whiteSpace=wrap;html=1;" parent="1" vertex="1">
          <mxGeometry x="382" y="-510" width="100" height="40" as="geometry" />
        </mxCell>
        <mxCell id="EUrLBF1vASvb_XzxsAEc-5" value="Tipo de Pet" style="whiteSpace=wrap;html=1;" parent="1" vertex="1">
          <mxGeometry x="372" y="-200" width="120" height="60" as="geometry" />
        </mxCell>
        <mxCell id="EUrLBF1vASvb_XzxsAEc-6" value="Raça" style="whiteSpace=wrap;html=1;" parent="1" vertex="1">
          <mxGeometry x="12" y="-440" width="120" height="60" as="geometry" />
        </mxCell>
        <mxCell id="EUrLBF1vASvb_XzxsAEc-23" style="edgeStyle=orthogonalEdgeStyle;rounded=0;orthogonalLoop=1;jettySize=auto;html=1;endArrow=none;endFill=0;" parent="1" source="EUrLBF1vASvb_XzxsAEc-9" target="EUrLBF1vASvb_XzxsAEc-3" edge="1">
          <mxGeometry relative="1" as="geometry" />
        </mxCell>
        <mxCell id="EUrLBF1vASvb_XzxsAEc-9" value="Dono" style="ellipse;whiteSpace=wrap;html=1;" parent="1" vertex="1">
          <mxGeometry x="392" y="-610" width="80" height="30" as="geometry" />
        </mxCell>
        <mxCell id="EUrLBF1vASvb_XzxsAEc-26" style="edgeStyle=orthogonalEdgeStyle;rounded=0;orthogonalLoop=1;jettySize=auto;html=1;entryX=1;entryY=0.5;entryDx=0;entryDy=0;endArrow=none;endFill=0;" parent="1" source="EUrLBF1vASvb_XzxsAEc-10" target="EUrLBF1vASvb_XzxsAEc-22" edge="1">
          <mxGeometry relative="1" as="geometry" />
        </mxCell>
        <mxCell id="EUrLBF1vASvb_XzxsAEc-10" value="Atendimento" style="whiteSpace=wrap;html=1;" parent="1" vertex="1">
          <mxGeometry x="696" y="-440" width="120" height="60" as="geometry" />
        </mxCell>
        <mxCell id="EUrLBF1vASvb_XzxsAEc-18" style="edgeStyle=orthogonalEdgeStyle;rounded=0;orthogonalLoop=1;jettySize=auto;html=1;endArrow=none;endFill=0;" parent="1" source="EUrLBF1vASvb_XzxsAEc-16" target="lJlTZO6aMbyamImWnHVL-5" edge="1">
          <mxGeometry relative="1" as="geometry" />
        </mxCell>
        <mxCell id="EUrLBF1vASvb_XzxsAEc-16" value="Possui" style="rhombus;whiteSpace=wrap;html=1;" parent="1" vertex="1">
          <mxGeometry x="716" y="-830" width="80" height="80" as="geometry" />
        </mxCell>
        <mxCell id="EUrLBF1vASvb_XzxsAEc-21" style="edgeStyle=orthogonalEdgeStyle;rounded=0;orthogonalLoop=1;jettySize=auto;html=1;entryX=0.5;entryY=0;entryDx=0;entryDy=0;endArrow=none;endFill=0;" parent="1" source="EUrLBF1vASvb_XzxsAEc-19" target="EUrLBF1vASvb_XzxsAEc-10" edge="1">
          <mxGeometry relative="1" as="geometry" />
        </mxCell>
        <mxCell id="EUrLBF1vASvb_XzxsAEc-19" value="Possui" style="rhombus;whiteSpace=wrap;html=1;" parent="1" vertex="1">
          <mxGeometry x="716" y="-580" width="80" height="80" as="geometry" />
        </mxCell>
        <mxCell id="EUrLBF1vASvb_XzxsAEc-27" style="edgeStyle=orthogonalEdgeStyle;rounded=0;orthogonalLoop=1;jettySize=auto;html=1;entryX=1;entryY=0.5;entryDx=0;entryDy=0;endArrow=none;endFill=0;" parent="1" source="EUrLBF1vASvb_XzxsAEc-22" target="lJlTZO6aMbyamImWnHVL-4" edge="1">
          <mxGeometry relative="1" as="geometry">
            <mxPoint x="512" y="-410" as="targetPoint" />
          </mxGeometry>
        </mxCell>
        <mxCell id="EUrLBF1vASvb_XzxsAEc-22" value="Possui" style="rhombus;whiteSpace=wrap;html=1;" parent="1" vertex="1">
          <mxGeometry x="552" y="-450" width="80" height="80" as="geometry" />
        </mxCell>
        <mxCell id="EUrLBF1vASvb_XzxsAEc-35" style="edgeStyle=orthogonalEdgeStyle;rounded=0;orthogonalLoop=1;jettySize=auto;html=1;entryX=0.5;entryY=0;entryDx=0;entryDy=0;endArrow=none;endFill=0;" parent="1" source="EUrLBF1vASvb_XzxsAEc-32" target="EUrLBF1vASvb_XzxsAEc-5" edge="1">
          <mxGeometry relative="1" as="geometry" />
        </mxCell>
        <mxCell id="EUrLBF1vASvb_XzxsAEc-32" value="Possui" style="rhombus;whiteSpace=wrap;html=1;" parent="1" vertex="1">
          <mxGeometry x="392" y="-330" width="80" height="80" as="geometry" />
        </mxCell>
        <mxCell id="EUrLBF1vASvb_XzxsAEc-45" style="edgeStyle=orthogonalEdgeStyle;rounded=0;orthogonalLoop=1;jettySize=auto;html=1;entryX=1;entryY=0.5;entryDx=0;entryDy=0;endArrow=none;endFill=0;" parent="1" source="EUrLBF1vASvb_XzxsAEc-33" target="EUrLBF1vASvb_XzxsAEc-6" edge="1">
          <mxGeometry relative="1" as="geometry" />
        </mxCell>
        <mxCell id="EUrLBF1vASvb_XzxsAEc-33" value="Possui" style="rhombus;whiteSpace=wrap;html=1;" parent="1" vertex="1">
          <mxGeometry x="212" y="-450" width="80" height="80" as="geometry" />
        </mxCell>
        <mxCell id="EUrLBF1vASvb_XzxsAEc-38" value="1" style="text;html=1;align=center;verticalAlign=middle;resizable=0;points=[];autosize=1;strokeColor=none;fillColor=none;" parent="1" vertex="1">
          <mxGeometry x="752" y="-880" width="30" height="30" as="geometry" />
        </mxCell>
        <mxCell id="EUrLBF1vASvb_XzxsAEc-39" value="N" style="text;html=1;align=center;verticalAlign=middle;resizable=0;points=[];autosize=1;strokeColor=none;fillColor=none;" parent="1" vertex="1">
          <mxGeometry x="752" y="-725" width="30" height="30" as="geometry" />
        </mxCell>
        <mxCell id="EUrLBF1vASvb_XzxsAEc-40" value="1" style="text;html=1;align=center;verticalAlign=middle;resizable=0;points=[];autosize=1;strokeColor=none;fillColor=none;" parent="1" vertex="1">
          <mxGeometry x="752" y="-640" width="30" height="30" as="geometry" />
        </mxCell>
        <mxCell id="EUrLBF1vASvb_XzxsAEc-41" value="N" style="text;html=1;align=center;verticalAlign=middle;resizable=0;points=[];autosize=1;strokeColor=none;fillColor=none;" parent="1" vertex="1">
          <mxGeometry x="751" y="-465" width="30" height="30" as="geometry" />
        </mxCell>
        <mxCell id="EUrLBF1vASvb_XzxsAEc-42" value="1" style="text;html=1;align=center;verticalAlign=middle;resizable=0;points=[];autosize=1;strokeColor=none;fillColor=none;" parent="1" vertex="1">
          <mxGeometry x="487" y="-452" width="30" height="30" as="geometry" />
        </mxCell>
        <mxCell id="EUrLBF1vASvb_XzxsAEc-43" value="N" style="text;html=1;align=center;verticalAlign=middle;resizable=0;points=[];autosize=1;strokeColor=none;fillColor=none;" parent="1" vertex="1">
          <mxGeometry x="666" y="-452" width="30" height="30" as="geometry" />
        </mxCell>
        <mxCell id="EUrLBF1vASvb_XzxsAEc-46" value="N" style="text;html=1;align=center;verticalAlign=middle;resizable=0;points=[];autosize=1;strokeColor=none;fillColor=none;" parent="1" vertex="1">
          <mxGeometry x="342" y="-450" width="30" height="30" as="geometry" />
        </mxCell>
        <mxCell id="EUrLBF1vASvb_XzxsAEc-47" value="1" style="text;html=1;align=center;verticalAlign=middle;resizable=0;points=[];autosize=1;strokeColor=none;fillColor=none;" parent="1" vertex="1">
          <mxGeometry x="127" y="-450" width="30" height="30" as="geometry" />
        </mxCell>
        <mxCell id="EUrLBF1vASvb_XzxsAEc-48" value="N" style="text;html=1;align=center;verticalAlign=middle;resizable=0;points=[];autosize=1;strokeColor=none;fillColor=none;" parent="1" vertex="1">
          <mxGeometry x="402" y="-380" width="30" height="30" as="geometry" />
        </mxCell>
        <mxCell id="EUrLBF1vASvb_XzxsAEc-49" value="1" style="text;html=1;align=center;verticalAlign=middle;resizable=0;points=[];autosize=1;strokeColor=none;fillColor=none;" parent="1" vertex="1">
          <mxGeometry x="402" y="-230" width="30" height="30" as="geometry" />
        </mxCell>
        <mxCell id="Q6jZBHtKFf94urd2r3kk-1" value="Conceitual" style="text;html=1;align=center;verticalAlign=middle;resizable=0;points=[];autosize=1;strokeColor=#b85450;fillColor=#f8cecc;" vertex="1" parent="1">
          <mxGeometry x="40" y="-980" width="80" height="30" as="geometry" />
        </mxCell>
        <mxCell id="Q6jZBHtKFf94urd2r3kk-2" value="Logico" style="text;html=1;align=center;verticalAlign=middle;resizable=0;points=[];autosize=1;strokeColor=#b85450;fillColor=#f8cecc;" vertex="1" parent="1">
          <mxGeometry x="880" y="-1120" width="60" height="30" as="geometry" />
        </mxCell>
        <mxCell id="tE7HsTgqF10oItBL9pMJ-1" value="Raca" style="shape=table;startSize=30;container=1;collapsible=1;childLayout=tableLayout;fixedRows=1;rowLines=0;fontStyle=1;align=center;resizeLast=1;html=1;" vertex="1" parent="1">
          <mxGeometry x="880" y="-1040" width="180" height="90" as="geometry" />
        </mxCell>
        <mxCell id="tE7HsTgqF10oItBL9pMJ-2" value="" style="shape=tableRow;horizontal=0;startSize=0;swimlaneHead=0;swimlaneBody=0;fillColor=none;collapsible=0;dropTarget=0;points=[[0,0.5],[1,0.5]];portConstraint=eastwest;top=0;left=0;right=0;bottom=1;" vertex="1" parent="tE7HsTgqF10oItBL9pMJ-1">
          <mxGeometry y="30" width="180" height="30" as="geometry" />
        </mxCell>
        <mxCell id="tE7HsTgqF10oItBL9pMJ-3" value="PK" style="shape=partialRectangle;connectable=0;fillColor=none;top=0;left=0;bottom=0;right=0;fontStyle=1;overflow=hidden;whiteSpace=wrap;html=1;" vertex="1" parent="tE7HsTgqF10oItBL9pMJ-2">
          <mxGeometry width="30" height="30" as="geometry">
            <mxRectangle width="30" height="30" as="alternateBounds" />
          </mxGeometry>
        </mxCell>
        <mxCell id="tE7HsTgqF10oItBL9pMJ-4" value="IdRaca" style="shape=partialRectangle;connectable=0;fillColor=none;top=0;left=0;bottom=0;right=0;align=left;spacingLeft=6;fontStyle=5;overflow=hidden;whiteSpace=wrap;html=1;" vertex="1" parent="tE7HsTgqF10oItBL9pMJ-2">
          <mxGeometry x="30" width="150" height="30" as="geometry">
            <mxRectangle width="150" height="30" as="alternateBounds" />
          </mxGeometry>
        </mxCell>
        <mxCell id="tE7HsTgqF10oItBL9pMJ-5" value="" style="shape=tableRow;horizontal=0;startSize=0;swimlaneHead=0;swimlaneBody=0;fillColor=none;collapsible=0;dropTarget=0;points=[[0,0.5],[1,0.5]];portConstraint=eastwest;top=0;left=0;right=0;bottom=0;" vertex="1" parent="tE7HsTgqF10oItBL9pMJ-1">
          <mxGeometry y="60" width="180" height="30" as="geometry" />
        </mxCell>
        <mxCell id="tE7HsTgqF10oItBL9pMJ-6" value="" style="shape=partialRectangle;connectable=0;fillColor=none;top=0;left=0;bottom=0;right=0;editable=1;overflow=hidden;whiteSpace=wrap;html=1;" vertex="1" parent="tE7HsTgqF10oItBL9pMJ-5">
          <mxGeometry width="30" height="30" as="geometry">
            <mxRectangle width="30" height="30" as="alternateBounds" />
          </mxGeometry>
        </mxCell>
        <mxCell id="tE7HsTgqF10oItBL9pMJ-7" value="Nome" style="shape=partialRectangle;connectable=0;fillColor=none;top=0;left=0;bottom=0;right=0;align=left;spacingLeft=6;overflow=hidden;whiteSpace=wrap;html=1;" vertex="1" parent="tE7HsTgqF10oItBL9pMJ-5">
          <mxGeometry x="30" width="150" height="30" as="geometry">
            <mxRectangle width="150" height="30" as="alternateBounds" />
          </mxGeometry>
        </mxCell>
        <mxCell id="6IPXSveeg3OtgVQQY8cT-1" value="Tipo de Pet" style="shape=table;startSize=30;container=1;collapsible=1;childLayout=tableLayout;fixedRows=1;rowLines=0;fontStyle=1;align=center;resizeLast=1;html=1;" vertex="1" parent="1">
          <mxGeometry x="880" y="-895" width="180" height="90" as="geometry" />
        </mxCell>
        <mxCell id="6IPXSveeg3OtgVQQY8cT-2" value="" style="shape=tableRow;horizontal=0;startSize=0;swimlaneHead=0;swimlaneBody=0;fillColor=none;collapsible=0;dropTarget=0;points=[[0,0.5],[1,0.5]];portConstraint=eastwest;top=0;left=0;right=0;bottom=1;" vertex="1" parent="6IPXSveeg3OtgVQQY8cT-1">
          <mxGeometry y="30" width="180" height="30" as="geometry" />
        </mxCell>
        <mxCell id="6IPXSveeg3OtgVQQY8cT-3" value="PK" style="shape=partialRectangle;connectable=0;fillColor=none;top=0;left=0;bottom=0;right=0;fontStyle=1;overflow=hidden;whiteSpace=wrap;html=1;" vertex="1" parent="6IPXSveeg3OtgVQQY8cT-2">
          <mxGeometry width="30" height="30" as="geometry">
            <mxRectangle width="30" height="30" as="alternateBounds" />
          </mxGeometry>
        </mxCell>
        <mxCell id="6IPXSveeg3OtgVQQY8cT-4" value="IdRaca" style="shape=partialRectangle;connectable=0;fillColor=none;top=0;left=0;bottom=0;right=0;align=left;spacingLeft=6;fontStyle=5;overflow=hidden;whiteSpace=wrap;html=1;" vertex="1" parent="6IPXSveeg3OtgVQQY8cT-2">
          <mxGeometry x="30" width="150" height="30" as="geometry">
            <mxRectangle width="150" height="30" as="alternateBounds" />
          </mxGeometry>
        </mxCell>
        <mxCell id="6IPXSveeg3OtgVQQY8cT-5" value="" style="shape=tableRow;horizontal=0;startSize=0;swimlaneHead=0;swimlaneBody=0;fillColor=none;collapsible=0;dropTarget=0;points=[[0,0.5],[1,0.5]];portConstraint=eastwest;top=0;left=0;right=0;bottom=0;" vertex="1" parent="6IPXSveeg3OtgVQQY8cT-1">
          <mxGeometry y="60" width="180" height="30" as="geometry" />
        </mxCell>
        <mxCell id="6IPXSveeg3OtgVQQY8cT-6" value="" style="shape=partialRectangle;connectable=0;fillColor=none;top=0;left=0;bottom=0;right=0;editable=1;overflow=hidden;whiteSpace=wrap;html=1;" vertex="1" parent="6IPXSveeg3OtgVQQY8cT-5">
          <mxGeometry width="30" height="30" as="geometry">
            <mxRectangle width="30" height="30" as="alternateBounds" />
          </mxGeometry>
        </mxCell>
        <mxCell id="6IPXSveeg3OtgVQQY8cT-7" value="Nome" style="shape=partialRectangle;connectable=0;fillColor=none;top=0;left=0;bottom=0;right=0;align=left;spacingLeft=6;overflow=hidden;whiteSpace=wrap;html=1;" vertex="1" parent="6IPXSveeg3OtgVQQY8cT-5">
          <mxGeometry x="30" width="150" height="30" as="geometry">
            <mxRectangle width="150" height="30" as="alternateBounds" />
          </mxGeometry>
        </mxCell>
      </root>
    </mxGraphModel>
  </diagram>
  <diagram id="7Ek5P1TqkKww93vytSwB" name="Exercício 1.4">
    <mxGraphModel dx="1877" dy="574" grid="1" gridSize="10" guides="1" tooltips="1" connect="1" arrows="1" fold="1" page="1" pageScale="1" pageWidth="827" pageHeight="1169" math="0" shadow="0">
      <root>
        <mxCell id="0" />
        <mxCell id="1" parent="0" />
        <mxCell id="6f_JXfi755zW4YLyqtgh-1" value="A Optus é uma empresa no ramo musical que deseja realizar o gerenciamento dos lançamentos de novos cds de seus artistas. Cada álbum lançado poderá conter mais de um estilo vinculado (ex.: Indie e Folk).&#xa;É importante que você crie também uma estratégia para que os usuários possuam acesso à plataforma.&#xa;Os usuários deverão conter nome, email, senha e o tipo de permissão (eles podem ser do tipo administrador ou comum).&#xa;&#xa;&#xa;Observações:&#xa;Os Artistas deverão possuir somente nome.&#xa;Estilos: nome.&#xa;Albuns: titulo, data de lançamento, localizacao, quantidade de minutos, se o álbum está ativo para visualização, a quem pertence (somente um artista por álbum) e quais os estilos vinculados." style="text;whiteSpace=wrap;" parent="1" vertex="1">
          <mxGeometry x="20" y="20" width="770" height="230" as="geometry" />
        </mxCell>
        <mxCell id="OEwJHyYeRt2I_QTzyb7y-1" style="edgeStyle=orthogonalEdgeStyle;rounded=0;orthogonalLoop=1;jettySize=auto;html=1;endArrow=none;endFill=0;" parent="1" source="OEwJHyYeRt2I_QTzyb7y-3" target="OEwJHyYeRt2I_QTzyb7y-25" edge="1">
          <mxGeometry relative="1" as="geometry" />
        </mxCell>
        <mxCell id="OEwJHyYeRt2I_QTzyb7y-2" style="edgeStyle=orthogonalEdgeStyle;rounded=0;orthogonalLoop=1;jettySize=auto;html=1;entryX=0;entryY=0.5;entryDx=0;entryDy=0;endArrow=none;endFill=0;" parent="1" source="OEwJHyYeRt2I_QTzyb7y-3" target="OEwJHyYeRt2I_QTzyb7y-23" edge="1">
          <mxGeometry relative="1" as="geometry" />
        </mxCell>
        <mxCell id="OEwJHyYeRt2I_QTzyb7y-3" value="Empresa" style="rounded=0;whiteSpace=wrap;html=1;" parent="1" vertex="1">
          <mxGeometry x="-480" y="470" width="120" height="60" as="geometry" />
        </mxCell>
        <mxCell id="OEwJHyYeRt2I_QTzyb7y-4" style="edgeStyle=orthogonalEdgeStyle;rounded=0;orthogonalLoop=1;jettySize=auto;html=1;entryX=0;entryY=0.5;entryDx=0;entryDy=0;endArrow=none;endFill=0;" parent="1" source="OEwJHyYeRt2I_QTzyb7y-5" target="OEwJHyYeRt2I_QTzyb7y-31" edge="1">
          <mxGeometry relative="1" as="geometry" />
        </mxCell>
        <mxCell id="OEwJHyYeRt2I_QTzyb7y-5" value="Album" style="rounded=0;whiteSpace=wrap;html=1;" parent="1" vertex="1">
          <mxGeometry x="100" y="470" width="120" height="60" as="geometry" />
        </mxCell>
        <mxCell id="OEwJHyYeRt2I_QTzyb7y-6" style="edgeStyle=orthogonalEdgeStyle;rounded=0;orthogonalLoop=1;jettySize=auto;html=1;entryX=0;entryY=0.5;entryDx=0;entryDy=0;endArrow=none;endFill=0;" parent="1" source="OEwJHyYeRt2I_QTzyb7y-7" target="OEwJHyYeRt2I_QTzyb7y-27" edge="1">
          <mxGeometry relative="1" as="geometry" />
        </mxCell>
        <mxCell id="OEwJHyYeRt2I_QTzyb7y-7" value="Usuários" style="rounded=0;whiteSpace=wrap;html=1;" parent="1" vertex="1">
          <mxGeometry x="-480" y="690" width="120" height="60" as="geometry" />
        </mxCell>
        <mxCell id="OEwJHyYeRt2I_QTzyb7y-8" style="edgeStyle=orthogonalEdgeStyle;rounded=0;orthogonalLoop=1;jettySize=auto;html=1;entryX=0;entryY=0.5;entryDx=0;entryDy=0;endArrow=none;endFill=0;" parent="1" source="OEwJHyYeRt2I_QTzyb7y-9" target="OEwJHyYeRt2I_QTzyb7y-29" edge="1">
          <mxGeometry relative="1" as="geometry" />
        </mxCell>
        <mxCell id="OEwJHyYeRt2I_QTzyb7y-9" value="Artista" style="rounded=0;whiteSpace=wrap;html=1;" parent="1" vertex="1">
          <mxGeometry x="-180" y="470" width="120" height="60" as="geometry" />
        </mxCell>
        <mxCell id="OEwJHyYeRt2I_QTzyb7y-10" style="edgeStyle=orthogonalEdgeStyle;rounded=0;orthogonalLoop=1;jettySize=auto;html=1;entryX=0;entryY=0.5;entryDx=0;entryDy=0;endArrow=none;endFill=0;" parent="1" source="OEwJHyYeRt2I_QTzyb7y-11" target="OEwJHyYeRt2I_QTzyb7y-15" edge="1">
          <mxGeometry relative="1" as="geometry" />
        </mxCell>
        <mxCell id="OEwJHyYeRt2I_QTzyb7y-11" value="Estilo" style="rounded=0;whiteSpace=wrap;html=1;" parent="1" vertex="1">
          <mxGeometry x="420" y="470" width="120" height="60" as="geometry" />
        </mxCell>
        <mxCell id="OEwJHyYeRt2I_QTzyb7y-46" style="edgeStyle=orthogonalEdgeStyle;rounded=0;orthogonalLoop=1;jettySize=auto;html=1;endArrow=none;endFill=0;" parent="1" source="OEwJHyYeRt2I_QTzyb7y-12" target="OEwJHyYeRt2I_QTzyb7y-5" edge="1">
          <mxGeometry relative="1" as="geometry" />
        </mxCell>
        <mxCell id="OEwJHyYeRt2I_QTzyb7y-12" value="Status de visualização&amp;nbsp;" style="ellipse;whiteSpace=wrap;html=1;" parent="1" vertex="1">
          <mxGeometry x="180" y="390" width="150" height="40" as="geometry" />
        </mxCell>
        <mxCell id="OEwJHyYeRt2I_QTzyb7y-47" style="edgeStyle=orthogonalEdgeStyle;rounded=0;orthogonalLoop=1;jettySize=auto;html=1;endArrow=none;endFill=0;" parent="1" source="OEwJHyYeRt2I_QTzyb7y-13" target="OEwJHyYeRt2I_QTzyb7y-5" edge="1">
          <mxGeometry relative="1" as="geometry" />
        </mxCell>
        <mxCell id="OEwJHyYeRt2I_QTzyb7y-13" value="Titulo" style="ellipse;whiteSpace=wrap;html=1;" parent="1" vertex="1">
          <mxGeometry x="30" y="390" width="90" height="40" as="geometry" />
        </mxCell>
        <mxCell id="OEwJHyYeRt2I_QTzyb7y-50" style="edgeStyle=orthogonalEdgeStyle;rounded=0;orthogonalLoop=1;jettySize=auto;html=1;entryX=0.5;entryY=0;entryDx=0;entryDy=0;endArrow=none;endFill=0;" parent="1" source="OEwJHyYeRt2I_QTzyb7y-14" target="OEwJHyYeRt2I_QTzyb7y-12" edge="1">
          <mxGeometry relative="1" as="geometry" />
        </mxCell>
        <mxCell id="OEwJHyYeRt2I_QTzyb7y-14" value="Data de lançamento" style="ellipse;whiteSpace=wrap;html=1;" parent="1" vertex="1">
          <mxGeometry x="185" y="330" width="140" height="40" as="geometry" />
        </mxCell>
        <mxCell id="OEwJHyYeRt2I_QTzyb7y-15" value="Nome do Estilo" style="ellipse;whiteSpace=wrap;html=1;" parent="1" vertex="1">
          <mxGeometry x="590" y="480" width="90" height="40" as="geometry" />
        </mxCell>
        <mxCell id="OEwJHyYeRt2I_QTzyb7y-48" style="edgeStyle=orthogonalEdgeStyle;rounded=0;orthogonalLoop=1;jettySize=auto;html=1;endArrow=none;endFill=0;" parent="1" source="OEwJHyYeRt2I_QTzyb7y-16" target="OEwJHyYeRt2I_QTzyb7y-13" edge="1">
          <mxGeometry relative="1" as="geometry" />
        </mxCell>
        <mxCell id="OEwJHyYeRt2I_QTzyb7y-16" value="Nome do Artista" style="ellipse;whiteSpace=wrap;html=1;" parent="1" vertex="1">
          <mxGeometry x="30" y="330" width="90" height="40" as="geometry" />
        </mxCell>
        <mxCell id="OEwJHyYeRt2I_QTzyb7y-17" value="Plataforma" style="rounded=0;whiteSpace=wrap;html=1;" parent="1" vertex="1">
          <mxGeometry x="-180" y="690" width="120" height="60" as="geometry" />
        </mxCell>
        <mxCell id="OEwJHyYeRt2I_QTzyb7y-61" style="edgeStyle=orthogonalEdgeStyle;rounded=0;orthogonalLoop=1;jettySize=auto;html=1;entryX=0;entryY=0.5;entryDx=0;entryDy=0;endArrow=none;endFill=0;" parent="1" source="OEwJHyYeRt2I_QTzyb7y-18" target="OEwJHyYeRt2I_QTzyb7y-7" edge="1">
          <mxGeometry relative="1" as="geometry" />
        </mxCell>
        <mxCell id="OEwJHyYeRt2I_QTzyb7y-18" value="Email" style="ellipse;whiteSpace=wrap;html=1;" parent="1" vertex="1">
          <mxGeometry x="-660" y="750" width="90" height="40" as="geometry" />
        </mxCell>
        <mxCell id="OEwJHyYeRt2I_QTzyb7y-62" style="edgeStyle=orthogonalEdgeStyle;rounded=0;orthogonalLoop=1;jettySize=auto;html=1;entryX=0;entryY=0.5;entryDx=0;entryDy=0;endArrow=none;endFill=0;" parent="1" source="OEwJHyYeRt2I_QTzyb7y-19" target="OEwJHyYeRt2I_QTzyb7y-7" edge="1">
          <mxGeometry relative="1" as="geometry" />
        </mxCell>
        <mxCell id="OEwJHyYeRt2I_QTzyb7y-19" value="Senha" style="ellipse;whiteSpace=wrap;html=1;" parent="1" vertex="1">
          <mxGeometry x="-660" y="650" width="90" height="40" as="geometry" />
        </mxCell>
        <mxCell id="OEwJHyYeRt2I_QTzyb7y-55" style="edgeStyle=orthogonalEdgeStyle;rounded=0;orthogonalLoop=1;jettySize=auto;html=1;entryX=0;entryY=0.5;entryDx=0;entryDy=0;endArrow=none;endFill=0;" parent="1" source="OEwJHyYeRt2I_QTzyb7y-20" target="OEwJHyYeRt2I_QTzyb7y-18" edge="1">
          <mxGeometry relative="1" as="geometry" />
        </mxCell>
        <mxCell id="OEwJHyYeRt2I_QTzyb7y-20" value="Administrador" style="ellipse;whiteSpace=wrap;html=1;" parent="1" vertex="1">
          <mxGeometry x="-790" y="750" width="90" height="40" as="geometry" />
        </mxCell>
        <mxCell id="OEwJHyYeRt2I_QTzyb7y-54" style="edgeStyle=orthogonalEdgeStyle;rounded=0;orthogonalLoop=1;jettySize=auto;html=1;endArrow=none;endFill=0;" parent="1" source="OEwJHyYeRt2I_QTzyb7y-21" target="OEwJHyYeRt2I_QTzyb7y-20" edge="1">
          <mxGeometry relative="1" as="geometry" />
        </mxCell>
        <mxCell id="OEwJHyYeRt2I_QTzyb7y-21" value="Comum" style="ellipse;whiteSpace=wrap;html=1;" parent="1" vertex="1">
          <mxGeometry x="-790" y="690" width="90" height="40" as="geometry" />
        </mxCell>
        <mxCell id="OEwJHyYeRt2I_QTzyb7y-22" style="edgeStyle=orthogonalEdgeStyle;rounded=0;orthogonalLoop=1;jettySize=auto;html=1;endArrow=none;endFill=0;" parent="1" source="OEwJHyYeRt2I_QTzyb7y-23" target="OEwJHyYeRt2I_QTzyb7y-9" edge="1">
          <mxGeometry relative="1" as="geometry" />
        </mxCell>
        <mxCell id="OEwJHyYeRt2I_QTzyb7y-23" value="Possui" style="rhombus;whiteSpace=wrap;html=1;" parent="1" vertex="1">
          <mxGeometry x="-310" y="460" width="80" height="80" as="geometry" />
        </mxCell>
        <mxCell id="OEwJHyYeRt2I_QTzyb7y-24" style="edgeStyle=orthogonalEdgeStyle;rounded=0;orthogonalLoop=1;jettySize=auto;html=1;endArrow=none;endFill=0;" parent="1" source="OEwJHyYeRt2I_QTzyb7y-25" target="OEwJHyYeRt2I_QTzyb7y-7" edge="1">
          <mxGeometry relative="1" as="geometry" />
        </mxCell>
        <mxCell id="OEwJHyYeRt2I_QTzyb7y-25" value="Possuem" style="rhombus;whiteSpace=wrap;html=1;" parent="1" vertex="1">
          <mxGeometry x="-460" y="570" width="80" height="80" as="geometry" />
        </mxCell>
        <mxCell id="OEwJHyYeRt2I_QTzyb7y-26" style="edgeStyle=orthogonalEdgeStyle;rounded=0;orthogonalLoop=1;jettySize=auto;html=1;endArrow=none;endFill=0;" parent="1" source="OEwJHyYeRt2I_QTzyb7y-27" target="OEwJHyYeRt2I_QTzyb7y-17" edge="1">
          <mxGeometry relative="1" as="geometry" />
        </mxCell>
        <mxCell id="OEwJHyYeRt2I_QTzyb7y-27" value="Acessam" style="rhombus;whiteSpace=wrap;html=1;" parent="1" vertex="1">
          <mxGeometry x="-310" y="680" width="80" height="80" as="geometry" />
        </mxCell>
        <mxCell id="OEwJHyYeRt2I_QTzyb7y-28" style="edgeStyle=orthogonalEdgeStyle;rounded=0;orthogonalLoop=1;jettySize=auto;html=1;entryX=0;entryY=0.5;entryDx=0;entryDy=0;endArrow=none;endFill=0;" parent="1" source="OEwJHyYeRt2I_QTzyb7y-29" target="OEwJHyYeRt2I_QTzyb7y-5" edge="1">
          <mxGeometry relative="1" as="geometry" />
        </mxCell>
        <mxCell id="OEwJHyYeRt2I_QTzyb7y-29" value="Possuem" style="rhombus;whiteSpace=wrap;html=1;" parent="1" vertex="1">
          <mxGeometry x="-20" y="460" width="80" height="80" as="geometry" />
        </mxCell>
        <mxCell id="OEwJHyYeRt2I_QTzyb7y-30" style="edgeStyle=orthogonalEdgeStyle;rounded=0;orthogonalLoop=1;jettySize=auto;html=1;endArrow=none;endFill=0;" parent="1" source="OEwJHyYeRt2I_QTzyb7y-31" target="OEwJHyYeRt2I_QTzyb7y-11" edge="1">
          <mxGeometry relative="1" as="geometry" />
        </mxCell>
        <mxCell id="OEwJHyYeRt2I_QTzyb7y-31" value="Possui" style="rhombus;whiteSpace=wrap;html=1;" parent="1" vertex="1">
          <mxGeometry x="280" y="460" width="80" height="80" as="geometry" />
        </mxCell>
        <mxCell id="OEwJHyYeRt2I_QTzyb7y-51" style="edgeStyle=orthogonalEdgeStyle;rounded=0;orthogonalLoop=1;jettySize=auto;html=1;entryX=0.5;entryY=0;entryDx=0;entryDy=0;endArrow=none;endFill=0;" parent="1" source="OEwJHyYeRt2I_QTzyb7y-32" target="OEwJHyYeRt2I_QTzyb7y-14" edge="1">
          <mxGeometry relative="1" as="geometry" />
        </mxCell>
        <mxCell id="OEwJHyYeRt2I_QTzyb7y-32" value="Quantidade de minutos" style="ellipse;whiteSpace=wrap;html=1;" parent="1" vertex="1">
          <mxGeometry x="180" y="270" width="150" height="40" as="geometry" />
        </mxCell>
        <mxCell id="OEwJHyYeRt2I_QTzyb7y-59" style="edgeStyle=orthogonalEdgeStyle;rounded=0;orthogonalLoop=1;jettySize=auto;html=1;entryX=0;entryY=0.5;entryDx=0;entryDy=0;endArrow=none;endFill=0;" parent="1" source="OEwJHyYeRt2I_QTzyb7y-33" target="OEwJHyYeRt2I_QTzyb7y-7" edge="1">
          <mxGeometry relative="1" as="geometry" />
        </mxCell>
        <mxCell id="OEwJHyYeRt2I_QTzyb7y-33" value="Nome Usuário" style="ellipse;whiteSpace=wrap;html=1;" parent="1" vertex="1">
          <mxGeometry x="-660" y="700" width="90" height="40" as="geometry" />
        </mxCell>
        <mxCell id="OEwJHyYeRt2I_QTzyb7y-49" style="edgeStyle=orthogonalEdgeStyle;rounded=0;orthogonalLoop=1;jettySize=auto;html=1;entryX=0.5;entryY=0;entryDx=0;entryDy=0;endArrow=none;endFill=0;" parent="1" source="OEwJHyYeRt2I_QTzyb7y-34" target="OEwJHyYeRt2I_QTzyb7y-16" edge="1">
          <mxGeometry relative="1" as="geometry" />
        </mxCell>
        <mxCell id="OEwJHyYeRt2I_QTzyb7y-34" value="Localização" style="ellipse;whiteSpace=wrap;html=1;" parent="1" vertex="1">
          <mxGeometry x="20" y="270" width="110" height="40" as="geometry" />
        </mxCell>
        <mxCell id="OEwJHyYeRt2I_QTzyb7y-35" value="1" style="text;html=1;align=center;verticalAlign=middle;resizable=0;points=[];autosize=1;strokeColor=none;fillColor=none;" parent="1" vertex="1">
          <mxGeometry x="-370" y="460" width="30" height="30" as="geometry" />
        </mxCell>
        <mxCell id="OEwJHyYeRt2I_QTzyb7y-36" value="N" style="text;html=1;align=center;verticalAlign=middle;resizable=0;points=[];autosize=1;strokeColor=none;fillColor=none;" parent="1" vertex="1">
          <mxGeometry x="-210" y="460" width="30" height="30" as="geometry" />
        </mxCell>
        <mxCell id="OEwJHyYeRt2I_QTzyb7y-37" value="1" style="text;html=1;align=center;verticalAlign=middle;resizable=0;points=[];autosize=1;strokeColor=none;fillColor=none;" parent="1" vertex="1">
          <mxGeometry x="-65" y="460" width="30" height="30" as="geometry" />
        </mxCell>
        <mxCell id="OEwJHyYeRt2I_QTzyb7y-38" value="N" style="text;html=1;align=center;verticalAlign=middle;resizable=0;points=[];autosize=1;strokeColor=none;fillColor=none;" parent="1" vertex="1">
          <mxGeometry x="70" y="460" width="30" height="30" as="geometry" />
        </mxCell>
        <mxCell id="OEwJHyYeRt2I_QTzyb7y-39" value="1" style="text;html=1;align=center;verticalAlign=middle;resizable=0;points=[];autosize=1;strokeColor=none;fillColor=none;" parent="1" vertex="1">
          <mxGeometry x="220" y="460" width="30" height="30" as="geometry" />
        </mxCell>
        <mxCell id="OEwJHyYeRt2I_QTzyb7y-40" value="N" style="text;html=1;align=center;verticalAlign=middle;resizable=0;points=[];autosize=1;strokeColor=none;fillColor=none;" parent="1" vertex="1">
          <mxGeometry x="390" y="460" width="30" height="30" as="geometry" />
        </mxCell>
        <mxCell id="OEwJHyYeRt2I_QTzyb7y-41" value="1" style="text;html=1;align=center;verticalAlign=middle;resizable=0;points=[];autosize=1;strokeColor=none;fillColor=none;" parent="1" vertex="1">
          <mxGeometry x="-420" y="525" width="30" height="30" as="geometry" />
        </mxCell>
        <mxCell id="OEwJHyYeRt2I_QTzyb7y-42" value="N" style="text;html=1;align=center;verticalAlign=middle;resizable=0;points=[];autosize=1;strokeColor=none;fillColor=none;" parent="1" vertex="1">
          <mxGeometry x="-421" y="665" width="30" height="30" as="geometry" />
        </mxCell>
        <mxCell id="OEwJHyYeRt2I_QTzyb7y-43" value="1" style="text;html=1;align=center;verticalAlign=middle;resizable=0;points=[];autosize=1;strokeColor=none;fillColor=none;" parent="1" vertex="1">
          <mxGeometry x="-204" y="680" width="30" height="30" as="geometry" />
        </mxCell>
      </root>
    </mxGraphModel>
  </diagram>
  <diagram id="wFem-AUaVcUP7bpqjYbS" name="Exercício 1.5">
    <mxGraphModel dx="1050" dy="574" grid="1" gridSize="10" guides="1" tooltips="1" connect="1" arrows="1" fold="1" page="1" pageScale="1" pageWidth="827" pageHeight="1169" math="0" shadow="0">
      <root>
        <mxCell id="0" />
        <mxCell id="1" parent="0" />
        <mxCell id="CsnGFD69IqgLF0apJY4f-1" value="E-Commerce - SenaiShop&#xa;&#xa;&#xa;Uma Loja possui várias categorias&#xa;Uma categoria possui subcategorias&#xa;Um produto possui uma subcategoria&#xa;Um cliente efetua um pedido&#xa;Um pedido pode ter 1 ou vários produtos" style="text;whiteSpace=wrap;" parent="1" vertex="1">
          <mxGeometry x="10" y="10" width="250" height="140" as="geometry" />
        </mxCell>
        <mxCell id="CsnGFD69IqgLF0apJY4f-21" style="edgeStyle=orthogonalEdgeStyle;rounded=0;orthogonalLoop=1;jettySize=auto;html=1;endArrow=none;endFill=0;" parent="1" source="CsnGFD69IqgLF0apJY4f-2" target="CsnGFD69IqgLF0apJY4f-9" edge="1">
          <mxGeometry relative="1" as="geometry" />
        </mxCell>
        <mxCell id="CsnGFD69IqgLF0apJY4f-2" value="Loja" style="whiteSpace=wrap;html=1;" parent="1" vertex="1">
          <mxGeometry x="510" y="185" width="120" height="60" as="geometry" />
        </mxCell>
        <mxCell id="CsnGFD69IqgLF0apJY4f-23" style="edgeStyle=orthogonalEdgeStyle;rounded=0;orthogonalLoop=1;jettySize=auto;html=1;endArrow=none;endFill=0;" parent="1" source="CsnGFD69IqgLF0apJY4f-3" target="CsnGFD69IqgLF0apJY4f-20" edge="1">
          <mxGeometry relative="1" as="geometry" />
        </mxCell>
        <mxCell id="CsnGFD69IqgLF0apJY4f-3" value="Categoria" style="whiteSpace=wrap;html=1;" parent="1" vertex="1">
          <mxGeometry x="510" y="435" width="120" height="60" as="geometry" />
        </mxCell>
        <mxCell id="CsnGFD69IqgLF0apJY4f-25" style="edgeStyle=orthogonalEdgeStyle;rounded=0;orthogonalLoop=1;jettySize=auto;html=1;entryX=1;entryY=0.5;entryDx=0;entryDy=0;endArrow=none;endFill=0;" parent="1" source="CsnGFD69IqgLF0apJY4f-4" target="CsnGFD69IqgLF0apJY4f-11" edge="1">
          <mxGeometry relative="1" as="geometry" />
        </mxCell>
        <mxCell id="CsnGFD69IqgLF0apJY4f-4" value="Subcategoria" style="whiteSpace=wrap;html=1;" parent="1" vertex="1">
          <mxGeometry x="510" y="700" width="120" height="60" as="geometry" />
        </mxCell>
        <mxCell id="CsnGFD69IqgLF0apJY4f-5" value="Cliente" style="whiteSpace=wrap;html=1;" parent="1" vertex="1">
          <mxGeometry x="160" y="185" width="120" height="60" as="geometry" />
        </mxCell>
        <mxCell id="CsnGFD69IqgLF0apJY4f-27" style="edgeStyle=orthogonalEdgeStyle;rounded=0;orthogonalLoop=1;jettySize=auto;html=1;endArrow=none;endFill=0;" parent="1" source="CsnGFD69IqgLF0apJY4f-6" target="CsnGFD69IqgLF0apJY4f-8" edge="1">
          <mxGeometry relative="1" as="geometry" />
        </mxCell>
        <mxCell id="CsnGFD69IqgLF0apJY4f-6" value="Produto" style="whiteSpace=wrap;html=1;" parent="1" vertex="1">
          <mxGeometry x="160" y="700" width="120" height="60" as="geometry" />
        </mxCell>
        <mxCell id="CsnGFD69IqgLF0apJY4f-29" style="edgeStyle=orthogonalEdgeStyle;rounded=0;orthogonalLoop=1;jettySize=auto;html=1;entryX=0.5;entryY=1;entryDx=0;entryDy=0;endArrow=none;endFill=0;" parent="1" source="CsnGFD69IqgLF0apJY4f-7" target="CsnGFD69IqgLF0apJY4f-16" edge="1">
          <mxGeometry relative="1" as="geometry" />
        </mxCell>
        <mxCell id="CsnGFD69IqgLF0apJY4f-7" value="Pedido" style="whiteSpace=wrap;html=1;" parent="1" vertex="1">
          <mxGeometry x="160" y="435" width="120" height="60" as="geometry" />
        </mxCell>
        <mxCell id="CsnGFD69IqgLF0apJY4f-28" style="edgeStyle=orthogonalEdgeStyle;rounded=0;orthogonalLoop=1;jettySize=auto;html=1;entryX=0.5;entryY=1;entryDx=0;entryDy=0;endArrow=none;endFill=0;" parent="1" source="CsnGFD69IqgLF0apJY4f-8" target="CsnGFD69IqgLF0apJY4f-7" edge="1">
          <mxGeometry relative="1" as="geometry" />
        </mxCell>
        <mxCell id="CsnGFD69IqgLF0apJY4f-8" value="Possui" style="rhombus;whiteSpace=wrap;html=1;" parent="1" vertex="1">
          <mxGeometry x="180" y="560" width="80" height="80" as="geometry" />
        </mxCell>
        <mxCell id="CsnGFD69IqgLF0apJY4f-22" style="edgeStyle=orthogonalEdgeStyle;rounded=0;orthogonalLoop=1;jettySize=auto;html=1;endArrow=none;endFill=0;" parent="1" source="CsnGFD69IqgLF0apJY4f-9" target="CsnGFD69IqgLF0apJY4f-3" edge="1">
          <mxGeometry relative="1" as="geometry" />
        </mxCell>
        <mxCell id="CsnGFD69IqgLF0apJY4f-9" value="Possui" style="rhombus;whiteSpace=wrap;html=1;" parent="1" vertex="1">
          <mxGeometry x="530" y="310" width="80" height="80" as="geometry" />
        </mxCell>
        <mxCell id="CsnGFD69IqgLF0apJY4f-26" style="edgeStyle=orthogonalEdgeStyle;rounded=0;orthogonalLoop=1;jettySize=auto;html=1;entryX=1;entryY=0.5;entryDx=0;entryDy=0;endArrow=none;endFill=0;" parent="1" source="CsnGFD69IqgLF0apJY4f-11" target="CsnGFD69IqgLF0apJY4f-6" edge="1">
          <mxGeometry relative="1" as="geometry" />
        </mxCell>
        <mxCell id="CsnGFD69IqgLF0apJY4f-11" value="Possui" style="rhombus;whiteSpace=wrap;html=1;" parent="1" vertex="1">
          <mxGeometry x="350" y="690" width="80" height="80" as="geometry" />
        </mxCell>
        <mxCell id="CsnGFD69IqgLF0apJY4f-30" style="edgeStyle=orthogonalEdgeStyle;rounded=0;orthogonalLoop=1;jettySize=auto;html=1;entryX=0.5;entryY=1;entryDx=0;entryDy=0;endArrow=none;endFill=0;" parent="1" source="CsnGFD69IqgLF0apJY4f-16" target="CsnGFD69IqgLF0apJY4f-5" edge="1">
          <mxGeometry relative="1" as="geometry" />
        </mxCell>
        <mxCell id="CsnGFD69IqgLF0apJY4f-16" value="Efetua" style="rhombus;whiteSpace=wrap;html=1;" parent="1" vertex="1">
          <mxGeometry x="180" y="310" width="80" height="80" as="geometry" />
        </mxCell>
        <mxCell id="CsnGFD69IqgLF0apJY4f-24" style="edgeStyle=orthogonalEdgeStyle;rounded=0;orthogonalLoop=1;jettySize=auto;html=1;entryX=0.5;entryY=0;entryDx=0;entryDy=0;endArrow=none;endFill=0;" parent="1" source="CsnGFD69IqgLF0apJY4f-20" target="CsnGFD69IqgLF0apJY4f-4" edge="1">
          <mxGeometry relative="1" as="geometry" />
        </mxCell>
        <mxCell id="CsnGFD69IqgLF0apJY4f-20" value="Possui" style="rhombus;whiteSpace=wrap;html=1;" parent="1" vertex="1">
          <mxGeometry x="530" y="560" width="80" height="80" as="geometry" />
        </mxCell>
        <mxCell id="CsnGFD69IqgLF0apJY4f-31" value="1" style="text;html=1;align=center;verticalAlign=middle;resizable=0;points=[];autosize=1;strokeColor=none;fillColor=none;" parent="1" vertex="1">
          <mxGeometry x="570" y="245" width="30" height="30" as="geometry" />
        </mxCell>
        <mxCell id="CsnGFD69IqgLF0apJY4f-32" value="N" style="text;html=1;align=center;verticalAlign=middle;resizable=0;points=[];autosize=1;strokeColor=none;fillColor=none;" parent="1" vertex="1">
          <mxGeometry x="570" y="405" width="30" height="30" as="geometry" />
        </mxCell>
        <mxCell id="CsnGFD69IqgLF0apJY4f-33" value="1" style="text;html=1;align=center;verticalAlign=middle;resizable=0;points=[];autosize=1;strokeColor=none;fillColor=none;" parent="1" vertex="1">
          <mxGeometry x="570" y="495" width="30" height="30" as="geometry" />
        </mxCell>
        <mxCell id="CsnGFD69IqgLF0apJY4f-34" value="N" style="text;html=1;align=center;verticalAlign=middle;resizable=0;points=[];autosize=1;strokeColor=none;fillColor=none;" parent="1" vertex="1">
          <mxGeometry x="568" y="670" width="30" height="30" as="geometry" />
        </mxCell>
        <mxCell id="CsnGFD69IqgLF0apJY4f-35" value="N" style="text;html=1;align=center;verticalAlign=middle;resizable=0;points=[];autosize=1;strokeColor=none;fillColor=none;" parent="1" vertex="1">
          <mxGeometry x="480" y="690" width="30" height="30" as="geometry" />
        </mxCell>
        <mxCell id="CsnGFD69IqgLF0apJY4f-36" value="1" style="text;html=1;align=center;verticalAlign=middle;resizable=0;points=[];autosize=1;strokeColor=none;fillColor=none;" parent="1" vertex="1">
          <mxGeometry x="280" y="690" width="30" height="30" as="geometry" />
        </mxCell>
        <mxCell id="CsnGFD69IqgLF0apJY4f-37" value="1" style="text;html=1;align=center;verticalAlign=middle;resizable=0;points=[];autosize=1;strokeColor=none;fillColor=none;" parent="1" vertex="1">
          <mxGeometry x="220" y="245" width="30" height="30" as="geometry" />
        </mxCell>
        <mxCell id="CsnGFD69IqgLF0apJY4f-38" value="N" style="text;html=1;align=center;verticalAlign=middle;resizable=0;points=[];autosize=1;strokeColor=none;fillColor=none;" parent="1" vertex="1">
          <mxGeometry x="221" y="406" width="30" height="30" as="geometry" />
        </mxCell>
        <mxCell id="ONaX-Hq9NblbY5OgrWQi-1" value="1" style="text;html=1;align=center;verticalAlign=middle;resizable=0;points=[];autosize=1;strokeColor=none;fillColor=none;" parent="1" vertex="1">
          <mxGeometry x="220" y="495" width="30" height="30" as="geometry" />
        </mxCell>
        <mxCell id="ONaX-Hq9NblbY5OgrWQi-2" value="N" style="text;html=1;align=center;verticalAlign=middle;resizable=0;points=[];autosize=1;strokeColor=none;fillColor=none;" parent="1" vertex="1">
          <mxGeometry x="220" y="670" width="30" height="30" as="geometry" />
        </mxCell>
      </root>
    </mxGraphModel>
  </diagram>
  <diagram id="vqS5mQKbG95QCzyrR4Z6" name="Exercício 1.6">
    <mxGraphModel dx="1909" dy="1044" grid="1" gridSize="10" guides="1" tooltips="1" connect="1" arrows="1" fold="1" page="1" pageScale="1" pageWidth="827" pageHeight="1169" math="0" shadow="0">
      <root>
        <mxCell id="0" />
        <mxCell id="1" parent="0" />
        <mxCell id="tD0wrIK7UTj4f8NjUOcW-1" value="A empresa MicroManu possui uma grande quantidade de clientes que leva seus equipamentos &#xa;como computadores, celulares, video games e até tvs para que seus colaboradores realizem o conserto.&#xa;E eles querem que você desenvolva a base para armazenar todos os dados de seus clientes e seus respectivos consertos.&#xa;Para isto, desenvolva a modelagem para atender a demanda acima. Levando em conta o exemplo abaixo:&#xa;O cliente A levou seu computador na MicroManu, o Erik e o Claudio realizaram a manutenção deste item.&#xa;O cliente B levou sua tv na MicroManu e o Daniel realizou a limpeza de todas as peças.&#xa;&#xa;&#xa;O cliente pode verificar seus consertos no site da MicroManu.&#xa;O colaborador pode encerrar o conserto." style="text;whiteSpace=wrap;" parent="1" vertex="1">
          <mxGeometry x="10" width="560" height="230" as="geometry" />
        </mxCell>
        <mxCell id="2e9fS-BUwRRxfaYHLVj6-7" style="edgeStyle=orthogonalEdgeStyle;rounded=0;orthogonalLoop=1;jettySize=auto;html=1;endArrow=none;endFill=0;" parent="1" source="tD0wrIK7UTj4f8NjUOcW-3" target="2e9fS-BUwRRxfaYHLVj6-5" edge="1">
          <mxGeometry relative="1" as="geometry" />
        </mxCell>
        <mxCell id="tD0wrIK7UTj4f8NjUOcW-3" value="Empresa" style="whiteSpace=wrap;html=1;" parent="1" vertex="1">
          <mxGeometry x="280" y="280" width="120" height="60" as="geometry" />
        </mxCell>
        <mxCell id="te2sezCe_KsdoY2xWf5c-2" style="edgeStyle=orthogonalEdgeStyle;rounded=0;orthogonalLoop=1;jettySize=auto;html=1;entryX=0;entryY=0.5;entryDx=0;entryDy=0;endArrow=none;endFill=0;" parent="1" source="tD0wrIK7UTj4f8NjUOcW-4" target="te2sezCe_KsdoY2xWf5c-1" edge="1">
          <mxGeometry relative="1" as="geometry" />
        </mxCell>
        <mxCell id="te2sezCe_KsdoY2xWf5c-5" style="edgeStyle=orthogonalEdgeStyle;rounded=0;orthogonalLoop=1;jettySize=auto;html=1;endArrow=none;endFill=0;" parent="1" source="tD0wrIK7UTj4f8NjUOcW-4" target="te2sezCe_KsdoY2xWf5c-4" edge="1">
          <mxGeometry relative="1" as="geometry" />
        </mxCell>
        <mxCell id="tD0wrIK7UTj4f8NjUOcW-4" value="Clientes" style="whiteSpace=wrap;html=1;" parent="1" vertex="1">
          <mxGeometry x="280" y="500" width="120" height="60" as="geometry" />
        </mxCell>
        <mxCell id="ZFgzHFRs6T8P76JOSRrM-1" value="Colaborador" style="whiteSpace=wrap;html=1;" parent="1" vertex="1">
          <mxGeometry x="280" y="770" width="120" height="60" as="geometry" />
        </mxCell>
        <mxCell id="QojiN1X4jlWZFlVhOEEp-3" style="edgeStyle=orthogonalEdgeStyle;rounded=0;orthogonalLoop=1;jettySize=auto;html=1;entryX=0;entryY=0.5;entryDx=0;entryDy=0;endArrow=none;endFill=0;" parent="1" source="2e9fS-BUwRRxfaYHLVj6-1" target="tD0wrIK7UTj4f8NjUOcW-4" edge="1">
          <mxGeometry relative="1" as="geometry" />
        </mxCell>
        <mxCell id="2e9fS-BUwRRxfaYHLVj6-1" value="Verificação" style="ellipse;whiteSpace=wrap;html=1;" parent="1" vertex="1">
          <mxGeometry x="130" y="510" width="80" height="40" as="geometry" />
        </mxCell>
        <mxCell id="QojiN1X4jlWZFlVhOEEp-2" style="edgeStyle=orthogonalEdgeStyle;rounded=0;orthogonalLoop=1;jettySize=auto;html=1;entryX=0;entryY=0.5;entryDx=0;entryDy=0;endArrow=none;endFill=0;" parent="1" source="2e9fS-BUwRRxfaYHLVj6-2" target="ZFgzHFRs6T8P76JOSRrM-1" edge="1">
          <mxGeometry relative="1" as="geometry" />
        </mxCell>
        <mxCell id="2e9fS-BUwRRxfaYHLVj6-2" value="Encerrar conserto" style="ellipse;whiteSpace=wrap;html=1;" parent="1" vertex="1">
          <mxGeometry x="110" y="780" width="100" height="40" as="geometry" />
        </mxCell>
        <mxCell id="2e9fS-BUwRRxfaYHLVj6-4" value="Equipamentos" style="whiteSpace=wrap;html=1;" parent="1" vertex="1">
          <mxGeometry x="630" y="500" width="120" height="60" as="geometry" />
        </mxCell>
        <mxCell id="2e9fS-BUwRRxfaYHLVj6-8" style="edgeStyle=orthogonalEdgeStyle;rounded=0;orthogonalLoop=1;jettySize=auto;html=1;entryX=0.5;entryY=0;entryDx=0;entryDy=0;endArrow=none;endFill=0;" parent="1" source="2e9fS-BUwRRxfaYHLVj6-5" target="tD0wrIK7UTj4f8NjUOcW-4" edge="1">
          <mxGeometry relative="1" as="geometry" />
        </mxCell>
        <mxCell id="2e9fS-BUwRRxfaYHLVj6-5" value="Possui" style="rhombus;whiteSpace=wrap;html=1;" parent="1" vertex="1">
          <mxGeometry x="300" y="380" width="80" height="80" as="geometry" />
        </mxCell>
        <mxCell id="te2sezCe_KsdoY2xWf5c-3" style="edgeStyle=orthogonalEdgeStyle;rounded=0;orthogonalLoop=1;jettySize=auto;html=1;entryX=0;entryY=0.5;entryDx=0;entryDy=0;endArrow=none;endFill=0;" parent="1" source="te2sezCe_KsdoY2xWf5c-1" target="2e9fS-BUwRRxfaYHLVj6-4" edge="1">
          <mxGeometry relative="1" as="geometry" />
        </mxCell>
        <mxCell id="te2sezCe_KsdoY2xWf5c-1" value="Possui" style="rhombus;whiteSpace=wrap;html=1;" parent="1" vertex="1">
          <mxGeometry x="480" y="490" width="80" height="80" as="geometry" />
        </mxCell>
        <mxCell id="QojiN1X4jlWZFlVhOEEp-1" style="edgeStyle=orthogonalEdgeStyle;rounded=0;orthogonalLoop=1;jettySize=auto;html=1;endArrow=none;endFill=0;" parent="1" source="te2sezCe_KsdoY2xWf5c-4" target="ZFgzHFRs6T8P76JOSRrM-1" edge="1">
          <mxGeometry relative="1" as="geometry" />
        </mxCell>
        <mxCell id="te2sezCe_KsdoY2xWf5c-4" value="Possui" style="rhombus;whiteSpace=wrap;html=1;" parent="1" vertex="1">
          <mxGeometry x="300" y="620" width="80" height="80" as="geometry" />
        </mxCell>
        <mxCell id="u3ghLXdOtqxaSakSCkBX-1" value="1" style="text;html=1;align=center;verticalAlign=middle;resizable=0;points=[];autosize=1;strokeColor=none;fillColor=none;" parent="1" vertex="1">
          <mxGeometry x="340" y="340" width="30" height="30" as="geometry" />
        </mxCell>
        <mxCell id="6WbMcXkVC6e-iUIb-Z9l-1" value="N" style="text;html=1;align=center;verticalAlign=middle;resizable=0;points=[];autosize=1;strokeColor=none;fillColor=none;" parent="1" vertex="1">
          <mxGeometry x="340" y="470" width="30" height="30" as="geometry" />
        </mxCell>
        <mxCell id="6WbMcXkVC6e-iUIb-Z9l-2" value="1" style="text;html=1;align=center;verticalAlign=middle;resizable=0;points=[];autosize=1;strokeColor=none;fillColor=none;" parent="1" vertex="1">
          <mxGeometry x="395" y="488" width="30" height="30" as="geometry" />
        </mxCell>
        <mxCell id="6WbMcXkVC6e-iUIb-Z9l-3" value="N" style="text;html=1;align=center;verticalAlign=middle;resizable=0;points=[];autosize=1;strokeColor=none;fillColor=none;" parent="1" vertex="1">
          <mxGeometry x="600" y="488" width="30" height="30" as="geometry" />
        </mxCell>
        <mxCell id="sZdeEbIRCUUWDItiN6JR-1" value="1" style="text;html=1;align=center;verticalAlign=middle;resizable=0;points=[];autosize=1;strokeColor=none;fillColor=none;" parent="1" vertex="1">
          <mxGeometry x="340" y="740" width="30" height="30" as="geometry" />
        </mxCell>
        <mxCell id="sZdeEbIRCUUWDItiN6JR-2" value="N" style="text;html=1;align=center;verticalAlign=middle;resizable=0;points=[];autosize=1;strokeColor=none;fillColor=none;" parent="1" vertex="1">
          <mxGeometry x="340" y="560" width="30" height="30" as="geometry" />
        </mxCell>
      </root>
    </mxGraphModel>
  </diagram>
</mxfile>
